<svg xmlns="http://www.w3.org/2000/svg" xmlns:xlink="http://www.w3.org/1999/xlink" viewBox="0 0 571.99 571.99"><defs><style>.cls-1{fill:none;}.cls-2{fill:#ebece0;}.cls-10,.cls-12,.cls-13,.cls-16,.cls-17,.cls-18,.cls-19,.cls-2,.cls-20,.cls-22,.cls-23,.cls-24,.cls-25,.cls-26,.cls-28,.cls-29,.cls-3,.cls-30,.cls-31,.cls-33,.cls-34,.cls-4,.cls-5,.cls-6,.cls-7,.cls-8{fill-rule:evenodd;}.cls-3{fill:#e5e6da;}.cls-4{fill:#e0e1d6;}.cls-5{fill:#dbdbd0;}.cls-6{fill:#d5d6cb;}.cls-7{fill:#cfd0c6;}.cls-8{fill:#c9cac0;}.cls-9{fill:#58861e;}.cls-10{fill:#85b220;}.cls-11{fill:#6b9cd3;}.cls-12,.cls-32{fill:#9ebce3;}.cls-13{fill:#506aaf;}.cls-14{fill:#d3c068;}.cls-15{fill:#b29b00;}.cls-16,.cls-27{fill:#fff;}.cls-17{fill:#669c24;}.cls-18{fill:#e1d4b9;}.cls-19{fill:#b7b2a8;}.cls-20{fill:#c6b991;}.cls-21{fill:#a79c71;}.cls-22{fill:#355978;}.cls-23{fill:#d9dee9;}.cls-24{fill:#d4d5db;}.cls-25{fill:#1d1d1b;}.cls-26{fill:#e2e3ea;}.cls-28{fill:#807b82;}.cls-29{fill:#638e2f;}.cls-30{fill:#28455d;}.cls-31{fill:#9da3be;}.cls-33,.cls-35{fill:#534f3c;}.cls-34{fill:#a98014;}</style><symbol id="illus-5" data-name="illus-5" viewBox="0 0 272 272"><rect class="cls-1" width="272" height="272"/><path class="cls-2" d="M4.21,187.09c-2.7-1.6-2.7-4.2,0-5.8L131.6,105.84a10.55,10.55,0,0,1,9.8,0l127.4,75.44c2.7,1.6,2.7,4.2,0,5.8L141.42,262.54a10.59,10.59,0,0,1-9.8,0Z"/><path class="cls-3" d="M6.4,187.11c-2.66-1.57-2.66-4.13,0-5.71l125.26-74.18a10.4,10.4,0,0,1,9.64,0L266.57,181.4c2.67,1.58,2.67,4.14,0,5.71L141.32,261.29a10.4,10.4,0,0,1-9.64,0Z"/><path class="cls-4" d="M8.59,187.12c-2.62-1.55-2.62-4.06,0-5.61l123.14-72.93a10.25,10.25,0,0,1,9.48,0l123.15,72.93c2.61,1.55,2.61,4.06,0,5.61L141.22,260.05a10.25,10.25,0,0,1-9.48,0Z"/><path class="cls-5" d="M10.77,187.13c-2.57-1.52-2.57-4,0-5.51l121-71.67a10.06,10.06,0,0,1,9.31,0l121,71.67c2.57,1.52,2.57,4,0,5.51l-121,71.67a10.06,10.06,0,0,1-9.31,0Z"/><path class="cls-6" d="M13,187.15c-2.52-1.5-2.52-3.92,0-5.42l118.89-70.42a9.88,9.88,0,0,1,9.15,0l118.91,70.42c2.52,1.5,2.52,3.92,0,5.42L141,257.56a9.88,9.88,0,0,1-9.15,0Z"/><path class="cls-7" d="M15.15,187.16c-2.48-1.47-2.48-3.85,0-5.31l116.77-69.16a9.73,9.73,0,0,1,9,0l116.78,69.16c2.48,1.47,2.48,3.85,0,5.31L140.92,256.32a9.72,9.72,0,0,1-9,0Z"/><path class="cls-8" d="M17.34,187.17c-2.44-1.44-2.44-3.78,0-5.22L132,114a9.57,9.57,0,0,1,8.82,0L255.46,182c2.43,1.44,2.43,3.78,0,5.22l-114.65,67.9a9.51,9.51,0,0,1-8.82,0Z"/><path class="cls-9" d="M272,172.68,136,251.5v-13c21.07-5.17,34.9-33.13,34.9-33.13l-1.75.1L272,145.91Z"/><path class="cls-9" d="M0,172.68,136,251.5Z"/><polygon class="cls-10" points="136 66.86 272 145.91 136 224.94 0 145.9 136 66.86"/><polygon class="cls-11" points="136 224.94 136 238.83 0 159.78 0 145.9 136 224.94"/><path class="cls-12" d="M44.13,120.25c4.42,6.4,21.88,28.17,58.67,34.91,0,0,57.8,14.24,68,49.58L136,224.94,0,145.9Z"/><path class="cls-13" d="M170.9,205.4s-13.83,28-34.9,33.13V224.73l34.74-20Z"/><polygon class="cls-14" points="136 238.83 136 251.5 0 172.68 0 159.78 136 238.83"/><path class="cls-15" d="M136,251.5v-13c15.11-3.71,26.5-19.14,31.73-27.57L272,150.53v22.14Z"/><path class="cls-16" d="M168.82,205.87l-2.38,1.38c-1.35-6.81-1.78-12.11-7.11-16.73-1.82-1.57-4.05-1.07-5.62-3-3-3.47-2.89-6.94-6.28-9.91-6.44-5.79-12.15-6.36-20.16-9.59-7.19-2.89-9.58-8.68-17.19-9.91-20.49-3.39-41.51-3.78-55.14-19.73C48.64,131,45.39,129.68,43,120.9l4.42-2.57c1.91,2.15,2.51,6.12,4.46,9.06,4.13,6.28,9.26,7.44,15.21,11.9,9.09,6.78,14.79,12.89,26.2,12.89h9.75c5.7,0,7.85,4.46,13.3,6.28,7.85,2.56,13,2.56,19.5,7.61,2.31,1.73,2.56,4.46,5.29,5.62,8.51,3.71,11.08,9.42,18.51,14.88,6,4.38,9.59,9.34,9.59,16.85A7.38,7.38,0,0,1,168.82,205.87Z"/><polygon class="cls-17" points="158.01 171.36 135.2 103.59 251.55 134.01 266.38 142.64 252.22 151.52 226.1 163.42 158.01 171.36"/><polygon class="cls-18" points="85.82 89.8 147.67 125.75 157.24 172.06 95.39 136.11 85.82 89.8"/><polygon class="cls-19" points="95.39 88.48 157.24 124.43 157.24 127.15 95.39 91.21 95.39 88.48"/><polygon class="cls-20" points="226.12 111.44 201.6 100.16 163.63 136.76 130 172.06 197.59 142.66 226.12 111.44"/><polygon class="cls-21" points="221.03 81.74 173.87 88.72 175.18 87.73 222.15 80.78 231.1 116.64 229.96 117.51 221.03 81.74"/><polygon class="cls-22" points="159.24 62.6 233.39 57.8 196.41 72.98 126.24 59.13 159.24 62.6"/><polygon class="cls-16" points="93.55 88.84 155.4 124.8 155.4 127.52 93.55 91.58 93.55 88.84"/><polygon class="cls-23" points="187.84 81.17 147.42 124.52 147.42 127.25 187.84 83.9 187.84 81.17"/><polygon class="cls-23" points="205.21 73.99 227.84 98.36 226.31 100.62 203.68 76.26 205.21 73.99"/><polygon class="cls-24" points="101.23 111.19 124.39 124.66 124.39 143.61 123.89 143.92 123.89 124.97 100.74 111.53 101.23 111.19"/><polygon class="cls-16" points="100.72 111.5 123.89 124.97 123.89 143.92 100.72 130.46 100.72 111.5"/><polygon class="cls-25" points="101.42 112.87 123.18 125.52 123.18 142.83 101.42 130.19 101.42 112.87"/><polygon class="cls-26" points="124.38 124.69 123.89 124.97 100.74 111.53 101.23 111.19 124.38 124.69"/><polygon class="cls-27" points="106.31 133.58 106.09 133.58 105.45 133.21 105.45 114.25 106.31 114.76 106.31 133.58"/><polygon class="cls-27" points="103.3 133.84 103.13 133.64 103.01 132.95 117.52 120.77 117.69 121.76 103.3 133.84"/><polygon class="cls-27" points="123.79 139.62 100.72 126.83 100.72 126.58 101.36 126.23 123.89 138.72 123.89 139.55 123.79 139.62"/><polygon class="cls-24" points="133.95 126.81 146.94 134.5 146.94 165.59 146.43 165.91 146.43 134.81 133.47 127.14 133.95 126.81"/><polygon class="cls-25" points="133.44 127.13 146.43 134.81 146.43 165.91 133.44 158.22 133.44 127.13"/><polygon class="cls-24" points="194.79 115.76 171.62 130.38 171.62 149.33 172.13 149.61 172.13 130.67 195.28 116.06 194.79 115.76"/><polygon class="cls-16" points="195.3 116.04 172.13 130.67 172.13 149.61 195.3 134.99 195.3 116.04"/><polygon class="cls-28" points="194.6 117.44 172.84 131.17 172.84 148.49 194.6 134.76 194.6 117.44"/><polygon class="cls-26" points="171.64 130.42 172.13 130.67 195.28 116.06 194.79 115.76 171.64 130.42"/><polygon class="cls-27" points="189.7 138.39 189.93 138.38 190.57 137.98 190.57 119.03 189.7 119.58 189.7 138.39"/><polygon class="cls-27" points="179.59 141.94 179.84 142.02 180.53 141.88 187.02 124.07 186.02 124.28 179.59 141.94"/><polygon class="cls-27" points="182.25 145.06 182.53 144.94 182.93 144.41 176.14 126.72 175.52 127.54 182.25 145.06"/><polygon class="cls-27" points="170.97 126.42 197.67 130.1 197.83 129.91 197.53 129.25 171.46 125.66 170.94 126.31 170.97 126.42"/><polygon class="cls-27" points="172.23 140.69 195.3 126.75 195.3 126.5 194.66 126.18 172.13 139.79 172.13 140.63 172.23 140.69"/><polygon class="cls-27" points="172.23 145.31 195.3 131.37 195.3 131.12 194.66 130.8 172.13 144.41 172.13 145.25 172.23 145.31"/><path class="cls-29" d="M236.8,74.56a2.11,2.11,0,0,0,1.07-.48c-.69-.77-1.25-1-2-1.78,2.85.91,4.5,1.5,7.64,1.3a2.13,2.13,0,0,0,1.62-.92l-.24-.53c1.93-.12,3-.05,4.92-.17a3,3,0,0,0,2.54-1.11,8.66,8.66,0,0,0-1.71-.3c4.6-.28,8.1-1.59,11.25-5.19A7.82,7.82,0,0,0,256.73,64l-3.47.21a10.81,10.81,0,0,1,1.07-.54l.07-.69-3.18.2a48.14,48.14,0,0,0-4.84.84c.09-.55.22-.83.28-1.38.12-1.23-1.9-.56-3.22-.48a9.69,9.69,0,0,0-5.31,1.56c.07-.38.21-.63.24-1,.07-.72-.65-1.15-1.42-1.1-4.05.25-5.37,4-8.44,6.92-.92.88.55,1.74,1.35,2.51C232,73.08,233.51,74.76,236.8,74.56Z"/><path class="cls-29" d="M176.82,42.32a1,1,0,0,0,.17.7c.73-.31,1-.6,1.76-1a9.91,9.91,0,0,0-2.45,4.38,1.08,1.08,0,0,0,.4,1.08l.46-.07c-.27,1.17-.53,1.78-.8,3a1.51,1.51,0,0,0,.38,1.66,4.54,4.54,0,0,0,.56-1,7.35,7.35,0,0,0,1.9,7.41,4.69,4.69,0,0,0,2.05-2.86l.49-2.1a5.23,5.23,0,0,1,.22.71l.52.13.45-1.92a22.9,22.9,0,0,0,.26-3c.41.13.6.25,1,.35.93.24.8-1.06,1-1.85a4.6,4.6,0,0,0-.2-3.38c.28.09.45.21.74.28a.92.92,0,0,0,1.13-.69c.57-2.45-2.12-3.75-3.78-6-.51-.67-1.46.09-2.21.46C178.88,39.67,177.29,40.34,176.82,42.32Z"/><path class="cls-29" d="M244.51,31.29a15,15,0,0,1,8.76-1.56l-1.1.21c1.12.26,1.77.22,2.85.55a1.7,1.7,0,0,1-.62.89c-2.69,1.68-5,1-8.15.27C245.72,31.51,245.06,31.44,244.51,31.29Z"/><path class="cls-29" d="M246.79,43.16a15,15,0,0,1-8.85-.92l1.11.11c-1-.55-1.63-.71-2.58-1.32a1.67,1.67,0,0,1,.83-.68c3-.88,5.12.44,7.91,2C245.69,42.61,246.31,42.87,246.79,43.16Z"/><path class="cls-29" d="M269.91,27.47a15,15,0,0,1-8.85-.91l1.11.1c-1-.55-1.63-.71-2.58-1.32a1.69,1.69,0,0,1,.83-.68c3-.87,5.12.44,7.91,2C268.82,26.92,269.43,27.18,269.91,27.47Z"/><path class="cls-29" d="M264.22,37.27a15,15,0,0,1-3.91-8l.5,1c-.06-1.14-.27-1.75-.25-2.88a1.65,1.65,0,0,1,1,.34c2.36,2.12,2.34,4.57,2.51,7.77C264.11,36,264.22,36.7,264.22,37.27Z"/><path class="cls-29" d="M162.57,35.13a15,15,0,0,1-6.92-5.59l.87.7c-.54-1-1-1.48-1.44-2.5a1.68,1.68,0,0,1,1.07-.12c3,.93,4.05,3.16,5.55,6C162,34.07,162.33,34.62,162.57,35.13Z"/><path class="cls-29" d="M166.61,24.85a.94.94,0,0,0,.52,0c-.14-.47-.32-.68-.5-1.14a6.87,6.87,0,0,0,2.88,1.81.91.91,0,0,0,.83-.16V25c.81.25,1.23.45,2,.7a1.29,1.29,0,0,0,1.24-.11,3.38,3.38,0,0,0-.64-.41,6.22,6.22,0,0,0,5.52-.61,3.17,3.17,0,0,0-1.84-1.45l-1.45-.45c.19,0,.34-.07.53-.08l.15-.31-1.33-.41a18.7,18.7,0,0,0-2.12-.37c.13-.24.24-.35.36-.59.27-.55-.67-.56-1.23-.73a3.9,3.9,0,0,0-2.44-.12c.1-.16.2-.26.28-.43a.53.53,0,0,0-.38-.74c-1.7-.52-2.92,1-4.69,1.86-.53.26-.09.89.1,1.37C164.92,23.41,165.23,24.42,166.61,24.85Z"/><path class="cls-29" d="M169.38,38.28a.51.51,0,0,0,.33.16c.12-.39.1-.61.19-1a5,5,0,0,0,1,2.39.55.55,0,0,0,.56.19l.12-.2c.38.49.54.79.92,1.27a.77.77,0,0,0,.78.39,2.46,2.46,0,0,0-.21-.54,3.75,3.75,0,0,0,3.56,1.63,2.42,2.42,0,0,0-.48-1.74l-.67-.87a3.58,3.58,0,0,1,.35.14l.22-.16-.62-.8a11.88,11.88,0,0,0-1.11-1.07c.18-.12.29-.16.47-.29.4-.29-.16-.65-.42-1a2.38,2.38,0,0,0-1.41-1c.13-.08.23-.11.35-.2a.47.47,0,0,0,.09-.67c-.79-1-2.18-.37-3.59-.43-.43,0-.43.61-.52,1C169,36.61,168.74,37.46,169.38,38.28Z"/><path class="cls-12" d="M38.15,111.72c3.58,0,4.13,4.68,4.13,8.26h5c1-.14,1.24-1.1,2.2-1.1,5.09,0,0,8.39,2.75,12.66,1.38,2.2,3.3,3,4.4,5.5,3.44,8,13.9,2.06,21.46,6.05,1.93,1,.28,3.85,1.65,5.5,4,4.68,9.22,4.4,15.41,4.4,2.2,0,2.75-2.75,5-2.75,7.43,0,8.67,8.81,16,10.46,8.12,1.79,12.8,4.27,19.26,9.36,9.49,7.57,17.89,9.91,23.11,20.91,2.48,5.37,8.26,6.74,8.26,12.66,0,7.43-8.12,8.81-14.31,12.66a31.63,31.63,0,0,0-4.57,3.58L136,224.94,0,145.9l.49-1c3.68-1.83,6.65-4.57,11-7.3,6.47-4,10.32-7.15,14.86-13.21C30.31,119,31.41,111.72,38.15,111.72Z"/><path class="cls-16" d="M32.37,117.22a6.78,6.78,0,0,0-3.26,2.52c2.22-4.17,4.14-8,9-8,3.58,0,4.13,4.68,4.13,8.26h5c1-.14,1.24-1.1,2.2-1.1,5.09,0,0,8.39,2.75,12.66,1.38,2.2,3.3,3,4.4,5.5,3.44,8,13.9,2.06,21.46,6.05,1.93,1,.28,3.85,1.65,5.5,4,4.68,9.22,4.4,15.41,4.4,2.2,0,2.75-2.75,5-2.75,7.43,0,8.67,8.81,16,10.46,8.12,1.79,12.8,4.27,19.26,9.36,9.49,7.57,17.89,9.91,23.11,20.91,2.48,5.37,8.26,6.74,8.26,12.66a8.67,8.67,0,0,1-.25,2.12,17.15,17.15,0,0,1-2.5-5.43c-1.38-5-7.7-5.37-7.7-10.46-5.23-.69-12.66.28-12.66-5,0-1.38.69-2.06,1.1-3.3-13.9-4.26-17.2-15.55-30.82-20.36-16.37-5.78-26.83-6.88-42.38-14.86-5-2.48-9.22.69-14.31-1.65-5.92-2.75-7.57-7.43-13.76-9.91l1.1-2.2v-6.05C38.56,126.58,35.4,122.31,32.37,117.22Z"/><path class="cls-13" d="M165.55,192.89h1.38l.28,1.1c-3.23,1.93-5.57,3.65-6.33,7.43a14.81,14.81,0,0,0,2.48,0l.28,1.1c-.62,1.24-1.38,1.93-1.38,3.3,0,1,1.24,1.1,2.2,1.1,1.38,0,2.06-.62,3.3-1.1h1.38v1.44c0,5.64-6.26,6.47-10.46,10.11-4.61,4-6.33,9.63-12.45,9.63h-6c-2-1.17-6.05.14-5.5-2.2.48-1.93,2.89-1.1,4.4-2.2,4.27-3.16,7.77-4.54,10.18-9.36C153.86,204.11,156.06,197.64,165.55,192.89Z"/><path class="cls-16" d="M162.25,185.74a3,3,0,0,1,2.75,1.38,17,17,0,0,1-7.15,1.1C155.92,188.21,160.32,185.74,162.25,185.74Z"/><path class="cls-16" d="M152.07,181.34a8,8,0,0,1,5-4.13l.83,1.38C156.13,180.3,154.2,180.1,152.07,181.34Z"/><path class="cls-16" d="M55.21,123.82c1.31-1.31,2.27-2.2,4.13-2.2A1.82,1.82,0,0,1,61,123a6.58,6.58,0,0,1-2.48.83C57.21,123.82,56.45,123.41,55.21,123.82Z"/><path class="cls-16" d="M55.21,135.38c.69-2.61,2.55-4.68,5.3-4.68,1,0,1.44.21,2.41.28v1.38C60.09,133,58,134.28,55.21,135.38Z"/><path class="cls-29" d="M183.46,54.83a1.48,1.48,0,0,0,.9-.09c-.24-.81-.55-1.18-.86-2a12.08,12.08,0,0,0,5,3.14,1.6,1.6,0,0,0,1.43-.29v-.49c1.41.44,2.12.78,3.53,1.22a2.24,2.24,0,0,0,2.15-.19,5.51,5.51,0,0,0-1.12-.71,10.8,10.8,0,0,0,9.59-1.07,5.46,5.46,0,0,0-3.2-2.52l-2.52-.78a8.14,8.14,0,0,1,.92-.15l.26-.52-2.31-.71a32,32,0,0,0-3.69-.65c.24-.42.42-.61.63-1,.47-1-1.17-1-2.13-1.26a6.73,6.73,0,0,0-4.24-.21,8.75,8.75,0,0,0,.49-.74.92.92,0,0,0-.66-1.27c-2.95-.91-5.06,1.76-8.14,3.22-.92.45-.15,1.54.18,2.37C180.52,52.33,181.07,54.09,183.46,54.83Z"/><path class="cls-29" d="M185.23,28.39A1.51,1.51,0,0,0,186,28c-.53-.65-1-.89-1.54-1.5a12.2,12.2,0,0,0,5.82,1,1.6,1.6,0,0,0,1.22-.81l-.18-.45c1.47-.12,2.26-.07,3.73-.19a2.24,2.24,0,0,0,1.92-1,5.41,5.41,0,0,0-1.31-.25,10.8,10.8,0,0,0,8.5-4.58,5.48,5.48,0,0,0-3.91-1.14l-2.63.22a7.5,7.5,0,0,1,.81-.48l0-.59-2.41.21a32.39,32.39,0,0,0-3.67.77c.06-.47.16-.71.2-1.19.08-1.06-1.45-.46-2.45-.38a6.78,6.78,0,0,0-4,1.39c.05-.33.15-.54.18-.86a.92.92,0,0,0-1.09-.93c-3.08.26-4,3.53-6.34,6-.69.76.44,1.48,1,2.14C181.57,27.18,182.73,28.6,185.23,28.39Z"/><path class="cls-12" d="M29.62,118.6c2.34-3.78,4.2-7.43,8.6-7.43h5.09c6.6,0,9.7,4.68,16.3,4.68,10.8,0,15.48-5.71,25.59-10.73a8.09,8.09,0,0,1,.83,2.48c0,2.89-3.3,3.23-5,5.5h6.05c.21.62.55,1,.55,1.65,0,1.65-1.44,2.06-2.2,3.58,3.85,1.72,3.85,7.43,8.12,7.43,2.68,0,3.85-1.93,6.47-2.48.28,1.38.83,2.06.83,3.44,0,2.41-2.75,3.23-2.75,5.64s3,2.75,4.4,4.68c1.58,2.13,2.55,4.68,5.23,4.68,1.38,0,2.06-.83,3.44-.83,5,0,4,9.08,8.94,9.08,3.51,0,4.2-4.68,7.7-4.68,1.44,0,2.2,1.58,2.2,3,0,1.86-1.1,2.82-1.1,4.68,0,3.44,4.82,3,8.26,3,0,4.4,2.34,7.84,6.6,9.08s7.22.21,11,2.48c15.2,0,20.57-15.68,35.77-15.68,2.34,0,3.85,2.34,3.85,4.68,4.06.76,6.4,0,10.46,0,2.2-2.2,4.2-3.3,7.29-3.3,2.55,0,4,.69,6.47.07.14.55.55,1,.55,1.58,0,4.13-5,4.27-8,7.09,4.82.83,7.57.07,12.38.07a8,8,0,0,1,2.75.83c-1.72,1.24-3.1,1.93-4.13,3.85h5.5v2.55c0,2.82-3.37,2.82-5.5,4.61a27.07,27.07,0,0,1-7.43,4.68c-7.43,3.37-10.94,6.54-18.71,9.08-10,3.3-13.76,9-22.56,14.86-2.75,1.79-3.58,5-6.88,5-.76,0-1.17-.55-1.93-.55-.48,0-.62.55-1.1.55-.69,0-.69-.83-1.1-1.38-.89.48-.89,1.93-1.93,1.93-.55,0-.55-.83-1.1-.83-1.93,0-1.1,3.16-2.48,4.4-4,3.71-7.22,6.33-12.73,6.33h-7.84c-6.95,0-8.94-6.33-14.65-10.18-12.52-8.53-19.47-13.55-32.75-21.19-11.21-6.47-13.35-16.1-25-21.46-7.36-3.37-12-4.2-19.54-7.15-3.44-1.38-6.74-.76-8.81-3.85C31.82,148.25,34,143,31.55,136.48c-1.38-3.58-3-5.64-3-9.49,0-2.41.76-3.65,1.65-5.92V119.7H28.79"/><path class="cls-13" d="M138.31,223.16l1.38-1.38c3.26-1,5.79-1.46,7.43-4.4,3.51-6.33,5.92-13.21,13.21-13.21.55,0,.83.55,1.38.55,1.72,0,1.86-2.13,3-3.3,3.51-3.51,6.12-6,6.6-11,1.31.21,2.06-.28,3.37-.28h8.67c2.41,0,2.75-2.89,4.75-4.13s4-.48,6.33-1.38,3.37-3.3,6.05-3.3c1,0,1.58.55,2.61.55,8.13,0,13.41-4.14,19.37-7.28l-53.33,30.9,1.75-.1s-1.11,2.24-3.17,5.56c-.74,1.19-1.61,2.53-2.59,3.95-6.1,5.14-12.13,9.62-21.74,9.62-1.59,0-2.09-1.47-3.25-2.42A15.33,15.33,0,0,0,138.31,223.16Z"/><path class="cls-16" d="M59.61,116.12c10.88-.38,15.57-6,25.59-11a8.09,8.09,0,0,1,.83,2.48c0,2.89-3.3,3.23-5,5.5h6.05c.21.62.55,1,.55,1.65,0,1.65-1.44,2.06-2.2,3.58,3.85,1.72,3.85,7.43,8.12,7.43,2.68,0,3.85-1.93,6.47-2.48.28,1.38.83,2.06.83,3.44,0,2.41-2.75,3.23-2.75,5.64s3,2.75,4.4,4.68c1.58,2.13,2.55,4.68,5.23,4.68,1.38,0,2.06-.83,3.44-.83,5,0,4,9.08,8.94,9.08,3.51,0,4.2-4.68,7.7-4.68,1.44,0,2.2,1.58,2.2,3,0,1.86-1.1,2.82-1.1,4.68,0,3.44,4.82,3,8.26,3,0,4.4,2.34,7.84,6.6,9.08s7.22.21,11,2.48c15.2,0,20.57-15.68,35.77-15.68,2.34,0,3.85,2.34,3.85,4.68,4.06.76,6.4,0,10.46,0,2.2-2.2,4.2-3.3,7.29-3.3,2.55,0,4,.69,6.47.07.14.55.55,1,.55,1.58,0,4.13-5,4.27-8,7.09,4.82.83,7.57.07,12.38.07a8,8,0,0,1,2.75.83c-1.72,1.24-3.1,1.93-4.13,3.85h5.5v2.55c0,1.7-1.23,2.38-2.67,3-3.65-.46-6.38-1.72-10.26-3.65l.83-1.51h-7.7c0-1.58,1-2.55,2.2-3.44-3.65-.48-7.5.34-8.81-3-2.48,1-3.23,3.3-5.85,3.3h-1.86v-1.38a18.94,18.94,0,0,1,2.48-2.2c-3,1.44-4.33,3-7.5,3H187v-1.38c.69-1.79,2.13-2.2,3.58-3.44-1.58-.07-2.48-.14-4.06-.14-4.75,0-6.4,3.78-10,6.88-5.92,5.16-11.21,6.33-19,6.33-.55,0-.83-.55-1.38-.55-1.72,0-2.55.76-4.13,1.38l-.28-1.1-4.4,1.65h-2.48V170.6c-3.65.69-5.16,3.3-8.81,3.3a3.21,3.21,0,0,1-3.3-3c-2.75,0-6.88,1.1-6.88-1.65,0-2.06,3-2.34,3-4.4a4,4,0,0,0-3.85-4.13c-2.34,0-3.16,2.2-5.5,2.2-.55,0-.62-.76-1.1-.83l2.2-2.75c-.83-1.72-1.93-3-3.85-3s-3,1.93-5,1.93c-.83,0-1.31-.21-2.13-.28v-2.48l2.75-3.58-.55-1.1c-1.86-.21-4.4.21-4.4-1.65,0-.69.55-1,.55-1.65s-.41-1-.55-1.65H104c-1.38,0-2.06.83-3.44.83s-2-.07-3.23-.07v-4c0-2.27-2.34-3-4.4-3.92.55-1.51,1.79-1.93,2.2-3.58-2.27-.55-2.48-3-2.48-5.23h-8l-1.38-.83c.76-1.51,3-1.38,3-3,0-3-4.13-3.37-4.13-6.33,0,1.72-2.68.34-4.4,0,1.31-2.27,3.65-2.34,5-4.68l-.28-1.1c-1.79.69-3,1.65-5,1.65l.55-1.1a7.79,7.79,0,0,1-6.6,3c-.55,0-.89-.41-1.38-.55a3.6,3.6,0,0,0,1.65-2.2c-3.65.48-5.64,1.65-9.29,1.65A19.55,19.55,0,0,1,59.61,116.12Z"/><path class="cls-16" d="M40.08,112.54c-3.65,0-5.78,2.41-7.43,5.78l1.1.28c1.24-1.24,2.48-1.31,4.13-1.93l-5,3.85-.55,1.1,2.48-1.38-1.38,2.48c5.43-2.68,8.39-3.85,13.48-6.88-.55-1.38-2.13-1.38-3.58-1.38a11.6,11.6,0,0,0,3-.83C44.62,112.61,42.14,112.68,40.08,112.54Z"/><path class="cls-16" d="M51.08,122.17l1.1.83,4.68-.28c-2.82.55-3.92,1.72-6.6,2.75a19.34,19.34,0,0,0,6.6,0,12.13,12.13,0,0,0-2.75,1.1l-.55,1.1c4.61,0,6.74-3.16,11.35-3.16h6.53c-2.48-3.1-5.92-2.61-9.91-2.61a14.59,14.59,0,0,0,6.33-1.38c-2.27-.28-3.51-.83-5.78-.83C57.69,119.7,55.28,120.8,51.08,122.17Z"/><path class="cls-16" d="M80.8,132.36c-1-.07-1.44-.28-2.41-.28a10.07,10.07,0,0,0-4.47,1H80.8Z"/><path class="cls-30" d="M121.8,51.46l-.14.69a2.75,2.75,0,0,1,1.51,1c-.41.24-.79.38-1,.83.28.14.48.41.83.41s.52-.17.83-.28a5.41,5.41,0,0,0,.55,2.06h.69c.89-1.51,2.61-2,2.61-3.71C127.72,50.08,124,50.6,121.8,51.46Z"/><path class="cls-30" d="M138.72,60.54a2,2,0,0,1-1.93,1.38V63c0,1.41,1.89,1.48,3.3,1.48a1.08,1.08,0,0,0,1-1.17C141.06,61.95,139.72,61.53,138.72,60.54Z"/><path class="cls-30" d="M149.46,88.47a7.19,7.19,0,0,0-1.2-.14,3.07,3.07,0,0,0-1.55.41c.48.55,1.38.62,1.38,1.38,0,.55-.45.72-.69,1.24l.83.14c.31-.28.52-.69,1-.69s.76.31,1.24.55h.69a6.71,6.71,0,0,0,.55-1.79C150.73,89.29,150,89.26,149.46,88.47Z"/><path class="cls-30" d="M150.42,53.79l-1.72-.07a11.18,11.18,0,0,1,0,1.86c1.38,0,2.13-.31,3.51-.41l.14-.62C151.66,54.52,151.11,53.79,150.42,53.79Z"/><path class="cls-30" d="M169.68,46.37l-.83-.41h-1.38c0,.55-.14.86-.14,1.41,0,1.1,1.38,1.1,1.93,2h1.1C170.44,48.26,169.75,47.5,169.68,46.37Z"/><path class="cls-30" d="M137.07,47.6c0,.31-.1.52-.14.83l.55.28h1.93a2.32,2.32,0,0,0-.55-.83"/><path class="cls-30" d="M180.69,63a3.3,3.3,0,0,0-3,2.2l1.1.55H180A5.83,5.83,0,0,1,180.69,63Z"/><path class="cls-30" d="M108.32,87.92c.45.62.76,1.38,1.55,1.38s1.07-.1,1.75-.14c.07-.45.28-.65.28-1.1A1.71,1.71,0,0,0,110,86.54C109.32,86.54,109,87.78,108.32,87.92Z"/><path class="cls-30" d="M167.34,77.12a.83.83,0,0,0-.83.76c0,.55.55.86,1.1,1A2.31,2.31,0,0,0,166,81a4,4,0,0,0,.28,1.1,8.53,8.53,0,0,1,2.48,0c-.28.41-.55.69-.55,1.17s.38.48.55.76h.69a15.19,15.19,0,0,0,.41-2.75l.55-.14c.52.41.72,1,1.38,1,.24,0,.31-.28.55-.28a11.21,11.21,0,0,0,.41-1.79c0-1.31-1.48-1.65-1.65-3Z"/><path class="cls-29" d="M227.63,37.91a1,1,0,0,0-.34-.71c-.67.69-.92,1.17-1.56,1.9.89-2.36,1.44-3.74,1.42-6.08a1.05,1.05,0,0,0-.68-1l-.45.29c0-1.44.09-2.25.09-3.7,0-.76-.12-1.4-.8-1.69a7.64,7.64,0,0,0-.33,1.37c0-3.44-.94-5.82-3.76-7.44a7.23,7.23,0,0,0-1.38,4.2c0,1,0,1.58,0,2.59a5.75,5.75,0,0,1-.4-.7l-.56.09c0,.93,0,1.44,0,2.37a29.52,29.52,0,0,0,.47,3.5c-.45,0-.67,0-1.12.08-1,.17-.55,1.57-.55,2.55a5.32,5.32,0,0,0,1,3.7c-.31,0-.51,0-.82,0a1.32,1.32,0,0,0-1,1.31c0,3,3.09,3.21,5.32,4.93.68.52,1.46-.79,2.13-1.57C226.19,41.87,227.65,40.36,227.63,37.91Z"/><polygon class="cls-31" points="111.92 99.58 136.97 54.72 138.46 55.59 113.41 100.44 111.92 99.58"/><polygon class="cls-31" points="119.7 104.1 144.75 59.25 146.24 60.12 121.19 104.96 119.7 104.1"/><polygon class="cls-31" points="123.59 106.36 148.64 61.51 150.13 62.38 125.08 107.22 123.59 106.36"/><polygon class="cls-31" points="135.26 113.14 160.31 68.29 161.8 69.16 136.75 114 135.26 113.14"/><polygon class="cls-31" points="139.15 115.4 164.2 70.55 165.69 71.42 140.64 116.27 139.15 115.4"/><path class="cls-32" d="M46.68,111.72h1.86c2.34,0,3.58-.76,5.85-1.38a25.86,25.86,0,0,0,10.46-5.23c2.41-1.86,4.61-1.65,7.43-2.75,5.3-2.06,8.19-3.65,13.76-5,1.79-.41,2.89-.41,4.68-.83.48-.07.62-.83,1.17-.83,2.06,0,3.23.07,5.3.07-.07,1.65,0,2.55,0,4.2,0,1.24-1.58,1.24-2.06,2.34s-.07,2.27-.28,3.58a22.77,22.77,0,0,0-.83,4.82c0,3.58-.55,8.67,3,8.67a8.86,8.86,0,0,0,1.93-.55h2.48a20.74,20.74,0,0,0,0,3.58,8,8,0,0,1-.83,3c2.27.34,3.85-.83,5.78.28s1.79,3,2.75,5a5.13,5.13,0,0,0,4.68,3c6,.28,9.42.55,15.41.55.07,1.93-.41,3.16.28,5,.55,1.51,2.2,1.93,2.2,3.58,0,.62-1.1.62-1.1,1.24,0,2,2.48,2.13,4.4,2.61a64.26,64.26,0,0,1,8,2.75c4.47,1.58,7,1.72,11.69,2.75l5.37-1.93a12.46,12.46,0,0,0,7.15,1.93c1.65,0,2.27-1.51,3.85-1.93,1.79-.48,3.44-.48,4.13-2.2.48-1.31.07-2.68,1.1-3.58,2.55-2.2,4.54-2.68,7.43-4.4.41-.21.34-1,.83-1.1,1.79-.62,3.1.07,5-.28,2.27-.41,3-2.41,4.4-4.13,2.34-2.75,3.85-5.5,7.5-5.5h5.71V102.36l9.91,9.36,3.58,3.3,5,.55,6.05,3,5.78,3.58,3.3,2.48,7.7,4.68,6.33,3.3,7.15,1.93,4.4,1.38,5.23,3.3v6.88L225,172.25l-3.85,3.58L211,180.23l-51.46,4.4s-51.18,2.75-52.28,2.48-64.39-65.49-64.39-65.49Z"/><path class="cls-33" d="M122.63,119.15a6.77,6.77,0,0,0,1.93-.83v3.44c0,1.24,1,1.72,1.38,2.89,1.65-.83,2-2.75,3.85-2.75s2.82,1.93,4.82,1.93c1.58,0,3,.34,4-.83.83-1,.55-2,.55-3.3,0-3.44-3.92-3.71-6.88-5.5-2.41-1.44-3.23-3.85-6.05-3.85-.76,0-1.51-.28-1.93.28s-.14,1.58-.28,2.48C123.59,115.43,123,116.74,122.63,119.15Z"/><path class="cls-30" d="M203.53,61.36c-4.88,1.58-7.22,3.37-12.11,5l1.1.55v1.38a14.45,14.45,0,0,0-1.65,1.93,14.37,14.37,0,0,0,2.48-.55V71c.48,0,.62.55,1.1.55s.76-.83,1.38-.83.69,1.1,1.38,1.1c1.24,0,1.51-1.17,2.48-1.93s1.93-.55,2.75-1.38C204.28,66.66,203.53,64,203.53,61.36Z"/><path class="cls-30" d="M164.73,56.13c0,1.44,1.65,1.86,1.65,3.3,0,1-.55,1.44-1.1,2.2.83,0,1.51.34,2.2,0,1.31-.76,1.31-2.48,2.75-2.75s3.3,0,3.3-1.38c0-2.2-1.72-3.51-3.85-4.13-1-.28-1.72-1.1-2.75-.83C165.35,53,164.73,54.48,164.73,56.13Z"/><path class="cls-30" d="M157,46.5l-.83,1.93c1,.55,1.65,1.38,2.89,1.38.83,0,1.31-.55,2.06-.83C159.77,47.4,159,47.26,157,46.5Z"/><path class="cls-30" d="M209,55.86l-.28,1.1c1,.34,2,.21,2.48,1.1s.89,2.2,2.06,2.2c1.44,0,1.38-2,2.61-2.75.41-.21,1.1-.21,1.1-.69a3.07,3.07,0,0,0-3.3-3.16C211.71,53.93,210.89,55,209,55.86Z"/><path class="cls-30" d="M217.56,70.72c0,.62.55.89.83,1.38H222c.07-1,.28-1.51.28-2.48C222.24,67.76,217.56,68.86,217.56,70.72Z"/><path class="cls-16" d="M55.49,112.27c2.89,0,4.54-.83,7.43-.83-2.2,1.24-3.85,1.44-6.05,2.75l2.48.55c-3.16,1.58-4.47,2.82-7.7,3.85,6-2.34,9.84-1.51,16-3.3,2.89-.83,5.23-.89,7.15-3.3-3,0-4.26,2.2-7.22,2.2H65.39c1.93-1.93,3.44-2.55,6.05-3.58l-1.65-.28-1.65.55c3.23-.76,4.75-2.06,7.43-3.85-.48-.14-.55-.83-1.1-.83a15.58,15.58,0,0,0-8.26,1.93c-1.93,1-2.82,2.2-5,2.75S57.69,111.58,55.49,112.27Z"/><path class="cls-16" d="M91.81,96.58a10.78,10.78,0,0,0,1-.83c1.5,0,2.61.07,4.32.07-.07,1.65,0,2.55,0,4.2,0,1.24-1.58,1.24-2.06,2.34s-.07,2.27-.28,3.58a22.77,22.77,0,0,0-.83,4.82c0,3.58-.55,8.67,3,8.67a8.86,8.86,0,0,0,1.93-.55h2.48a20.74,20.74,0,0,0,0,3.58,8,8,0,0,1-.83,3c2.27.34,3.85-.83,5.78.28s1.79,3,2.75,5a5.13,5.13,0,0,0,4.68,3c6,.28,9.42.55,15.41.55.07,1.93-.41,3.16.28,5,.55,1.51,2.2,1.93,2.2,3.58,0,.62-1.1.62-1.1,1.24,0,2,2.48,2.13,4.4,2.61a64.26,64.26,0,0,1,8,2.75c4.47,1.58,7,1.72,11.69,2.75l5.37-1.93a12.46,12.46,0,0,0,7.15,1.93c1.65,0,2.27-1.51,3.85-1.93,1.79-.48,3.44-.48,4.13-2.2.48-1.31.07-2.68,1.1-3.58,2.55-2.2,4.54-2.68,7.43-4.4.41-.21.34-1,.83-1.1,1.79-.62,3.1.07,5-.28,2.27-.41,3-2.41,4.4-4.13,2.34-2.75,3.85-5.5,7.5-5.5h5.71V125.7c.83,1,1.65,1,1.65,1.57,0,3.78-4.33,4.06-7.15,6.47-1,.83-1.17,1.72-2.2,2.48-1.38,1-2.68.48-4.13,1.38-1.93,1.24-2.68,3-5,3-1,0-1.58-.55-2.61-.55-2.41,0-3.3,1.72-5.64,2.48-1,.34-2,.41-2.48,1.38-1.1,2,1,4.54-.83,6.05-1.58,1.31-3.51.28-5.23,1.38-3.51,2.34-4.88,5.78-9.08,5.78-2.55,0-4.33.14-6.6-.83-.89-.34-.89-1.93-1.93-1.93-2.82,0-3.23,3.85-6.05,3.85-5.16,0-7.29-3.71-12.11-5.5-3.44-1.24-5-3.3-8.26-5-2.34-1.17-4.06-.89-6.33-2.2-.89-.48-.41-2-1.38-2.48-1.24-.62-2.2-.28-3.58-.28v-2.75c.07-.48.55-.62.55-1.1,0-2.27-3.1-2.2-5.37-2.2-1.24,0-1.58-1.31-2.34-2.2s-1.93-.21-3-.55a8.87,8.87,0,0,1-2.75-1.1c-.41-.28-.28-1.1-.83-1.1-1,0-1.58.55-2.61.55A3.34,3.34,0,0,1,99.51,131l.83-1.38c-1.1-.07-1.65-.14-2.75-.28,1-1.38,1.93-2.34,1.93-4.13,0-1.17-1.31-1.65-2.48-1.65-2.75,0-4,2.2-6.74,2.2-1,0-2.34-.34-2.34-1.38,0-1.51.83-2.34,1.65-3.58l-.28-1.1c-1.17,0-2.75.07-2.75-1.1,0-2.34,2.2-2.75,3.3-5a3.45,3.45,0,0,1-1.65-3,16.59,16.59,0,0,1,.55-4.13c.14-.69,1.17-.69,1.38-1.38.55-1.72.28-3,1.1-4.68a15.3,15.3,0,0,1-2.75-1.1A11.76,11.76,0,0,1,91.81,96.58Z"/><path class="cls-16" d="M64,131.25h3.51c5.57,0,8.53-2,14.1-2.75-3,2.27-5.78,1.93-9.08,3.85,2.61,0,4.13-.69,6.6-1.65l-3,1.65-.55,1.1c4.27,0,6.19-2.75,10.46-3l-1.1-.28c-4.4,4.4-8.53,4.88-14.58,5.23-1.72.07-2.68.83-4.4.83a13,13,0,0,1-2.75-.55A60.91,60.91,0,0,1,69,133.18h-6.6a6.62,6.62,0,0,0-2.2-1.65l-1.38-.28C61.06,131.25,61.88,132.08,64,131.25Z"/><path class="cls-16" d="M103.64,148.31,99,150.24c1.72,0,2.68.14,4.4,0,1.1-.07,1.44-1.1,2.55-1.1h2.68c-.83,2.2-2.75,2.48-4.4,4.13h5.23a28.79,28.79,0,0,1-3.3,3.85,17.71,17.71,0,0,0,2.68.28c3,0,4.54-1.24,7.5-1.38,1,0,1.51.07,2.48,0s2.2-1.1,2.2-.28c0,1,1.58.83,2.61.83a28.07,28.07,0,0,0,5.37-.83c1.72-.28,2.34-1.93,4.13-1.93,1,0,1.31,1.17,1.93,1.93l-5,3,.28,1.38h3.3a5.48,5.48,0,0,0-1.93,2.2,5,5,0,0,0,2.2.83c5.57,0,8.46-2.48,14-2.48-11.08,1.65-16,9.08-27,9.08h-2.68a22.91,22.91,0,0,1,7.15-5.23c-.48-.14-.83-.55-1.38-.55-2.27,0-3.51.69-5.78.83,2.34-1.17,4.2-1.58,5.5-3.85a8,8,0,0,0-3.58-.83c-2.13,0-3.37.69-5.5.83-1.86.14-2.89-.41-4.68,0-1.17.28-1.79.83-3,.83-2.41,0-3.65-1.24-6.05-1.38-2.75-.14-5.5.41-6.88-1.93,1.93-1.93,3.37-2.55,5.5-4.13l1.38-.28c-.48-.14-.83-.55-1.38-.55-2.2,0-3.44,1-5.5,1.65a17.48,17.48,0,0,1,.83-2.48l-1.93-.83H83l-1.1-.55c1.93-1.51,3.65-1.44,6.05-1.65,3-.28,4.54-1.1,7.5-1.1h5.09c2.82,0,4.13-1.51,6.95-1.93Z"/><path class="cls-16" d="M163.9,160.15l-1.1,1h7.7c-3.23,1.31-5.5,1.65-8.26,3.71a6.75,6.75,0,0,0,3.85.83c-5.3,1.1-7.5,3.92-12.93,5.23a65.19,65.19,0,0,0,14-3.85c2.34-.83,3.78-.83,6.05-1.93l-1.1.55-.55,1.1c3.85,0,5.71-1.86,9.36-3.3a42.35,42.35,0,0,1-9.63,7.43c2.82-.41,4.06-1.72,6.88-2.2a5.18,5.18,0,0,0,2.75-.83l-1.1,1.1c.48.14.83.55,1.38.55,1.44,0,2.06-1,3.3-1.65a47.45,47.45,0,0,0,7.7-5.23,14.9,14.9,0,0,0-1.72-.28c-2.27,0-3.44.76-5.71,1.1,1.31-2.68,4.4-3.16,4.4-6.05h-2.75l1.1-1.38c-.48-.28-.76-.83-1.38-.83-3.65,0-5.09,2.75-8.53,4.13.62-1.31,1.44-1.72,2.48-2.75-.48-.07-.62-.55-1.1-.55-2.13,0-3.37,1-5.23,1.93s-3.37.55-5.5,1.1C166.65,159.46,165.62,160.08,163.9,160.15Z"/><path class="cls-16" d="M180.69,148.31a5.42,5.42,0,0,0,2.06.55,11.59,11.59,0,0,0,4.54-1.1c-2.75,1.38-4.54,1.79-6.6,3.85l1.65.28,13.21-5.23,1.1-.83C190.73,143.5,186.95,147.9,180.69,148.31Z"/><path class="cls-16" d="M225.54,148.87a35.48,35.48,0,0,0,7.15,0c-2.82,0-4.06,2.2-6.88,2.48-1.86.21-3,0-4.68.55h-1.38a21.47,21.47,0,0,0,3,.28c3.37,0,5.23-.76,8.6-1.38a18.31,18.31,0,0,0,3.85-1.38c.62-.21,1.65.14,1.65-.55s1.51,0,2.2-.28a29.14,29.14,0,0,0,6.05-3.85,5.41,5.41,0,0,0-1.79-.55c-3,0-4.61,1.31-7.57,1.93C231.66,146.94,229.12,146.73,225.54,148.87Z"/><path class="cls-13" d="M262.14,142.81c3.69-1.07,5.79-2.36,9.36-3.1v6.41L225,172.25l-3.85,3.58-13.35,6.33-10,.41c1.14-1.1,4.06-1.79,5.23-1.79,5.85-2.34,7.36-6.33,12.66-9.63,1.93-1.17,3.44-1.1,5.23-2.48.76-.55.89-1.44,1.65-1.93,1.65-1.17,3.23-.62,5.23-1.1a28,28,0,0,0,5.23-1.93c2.55-1.1,3.65-2.48,6.05-3.85,6.54-3.78,9.91-6.81,14.86-12.66C256.29,144.39,258.7,143.77,262.14,142.81Z"/><path class="cls-29" d="M240.2,16.05a1.49,1.49,0,0,0,.8-.41c-.53-.66-1-.89-1.54-1.51a12,12,0,0,0,5.82,1,1.58,1.58,0,0,0,1.21-.8l-.18-.46c1.47-.12,2.27-.07,3.73-.2a2.24,2.24,0,0,0,1.92-1,5.92,5.92,0,0,0-1.31-.24,10.81,10.81,0,0,0,8.5-4.57,5.42,5.42,0,0,0-3.91-1.14L252.61,7a8.64,8.64,0,0,1,.81-.48l0-.59-2.41.2a34.44,34.44,0,0,0-3.67.77c.06-.47.16-.71.2-1.19.08-1.06-1.45-.46-2.45-.38a6.82,6.82,0,0,0-4,1.39c.05-.33.15-.54.17-.86a.92.92,0,0,0-1.09-.93c-3.07.26-4,3.53-6.34,6-.69.76.44,1.49,1.05,2.13C236.55,14.84,237.71,16.27,240.2,16.05Z"/><path class="cls-34" d="M170.28,23.69s1.9,3.26,7,3.92c0,0,32.59-3.54,80.83,11.74l.77,2.88s-49.69-13-78.51-8.19c0,0-4.88,1.6-5.44,3.95l-.55-2.07-1.05-1.38L171.8,33.2l-.05-1.47.11-1.49L171,28.37l.83-.73Z"/><polygon class="cls-33" points="95.38 86.13 138.04 72.37 176.83 85.11 157.24 121.47 156.75 122.45 95.38 86.13"/><polygon class="cls-31" points="95.13 88.9 139.7 63.36 140.53 64.87 95.96 90.41 95.13 88.9"/><polygon class="cls-31" points="98.17 90.21 138.76 58.71 139.79 60.09 99.21 91.59 98.17 90.21"/><polygon class="cls-31" points="104.14 95.05 129.19 50.2 130.68 51.07 105.63 95.92 104.14 95.05"/><path class="cls-31" d="M135.28,90c-.6-.06-1.22-.11-1.9-.14l11.36-30.6,1.49.87Zm-17.2,8.14,17.39-5.59a13.55,13.55,0,0,0-.4,1.93l-16.49,5.3Z"/><path class="cls-31" d="M150.13,62.38,138,84.11l-1.85-.21,12.51-22.4Zm-26.54,44,8-14.34A13.19,13.19,0,0,0,133,93.08l-7.9,14.15Z"/><path class="cls-31" d="M141,84.39l11.52-20.62,1.49.87L142.77,84.77A11.18,11.18,0,0,0,141,84.39Zm-13.53,24.23,8-14.27a12.48,12.48,0,0,0,1.68.52L129,109.48Z"/><path class="cls-31" d="M161.21,89.47l-8.63-21.56,1.61-.62L163.68,91l-1.14-.92A2.6,2.6,0,0,0,161.21,89.47Zm-23.82,23.12-12.2-13.17a14.06,14.06,0,0,0,.48-2l13,14Z"/><polygon class="cls-31" points="135.26 113.14 160.31 68.29 161.8 69.16 136.75 114 135.26 113.14"/><polygon class="cls-31" points="139.15 115.4 164.2 70.55 165.69 71.42 140.64 116.27 139.15 115.4"/><polygon class="cls-31" points="141.61 116.04 177.42 79.2 178.63 80.43 142.83 117.26 141.61 116.04"/><polygon class="cls-31" points="146.93 119.92 171.98 75.08 173.47 75.94 148.42 120.79 146.93 119.92"/><polygon class="cls-31" points="152.28 117.11 195.93 90.03 196.81 91.51 153.16 118.59 152.28 117.11"/><polygon class="cls-31" points="106.06 94.39 156.16 83 156.51 84.69 106.42 96.08 106.06 94.39"/><path class="cls-35" d="M179.86,101.54h3.51a7.4,7.4,0,0,1,2.82-2.2c-.55-1.72-2.75-2-2.75-3.85,0-2.75,3.44-2.61,5.5-4.4,1.43-1.23,2.29-2.82,3.65-3.62l12.22,7.85a21.26,21.26,0,0,0-2.67,4c-.41,1,0,1.72-.28,2.75-.41,1.38-1.86,1.93-3.3,1.93a6.65,6.65,0,0,1-3-.83c-.55-.21-.48-1.1-1.1-1.1-3,0-4.4,1.86-6.88,3.58a10.54,10.54,0,0,0-1.11,1c-.15,4.81-2.36,10-7.15,10a3.62,3.62,0,0,1-3-1.1c-.55-.69-.69-1.93-1.65-1.93-.55,0-.55.83-1.1.83s-.89-.41-1.38-.55c1.65-2.75,3.85-4.2,3.85-7.43,0-.89-.83-1.31-.83-2.2C175.18,102.22,177.94,102.09,179.86,101.54Z"/><path class="cls-33" d="M215.63,92.18c-.62-.21-1-.55-1.65-.55-1.93,0-2.89,1.79-3.58,3.58,2.06.28,3.16.83,5.23.83.48,0,.62-.48,1.1-.55C216.8,94.11,215.7,93.56,215.63,92.18Z"/><path class="cls-33" d="M230.22,83.65l1.65-.83h-1.38a3.06,3.06,0,0,1-.55,1.38,16,16,0,0,0,1.79.28c.62,0,.83-.76,1.24-1.1"/><path class="cls-33" d="M232.42,55.58c-1.58.62-2.75,1.72-2.75,3.44,0,.83.55,1.79,1.38,1.79C233.31,60.81,232.42,57.85,232.42,55.58Z"/><path class="cls-16" d="M99.51,100.71a6.2,6.2,0,0,1,.55,1.93c0,3-1.79,4.68-4.13,6.6l-1.1.55a12.26,12.26,0,0,0,6.33-1.65c0,3-2.68,4.13-4.68,6.33h2.75a4.92,4.92,0,0,0-2.75,2.75,5,5,0,0,0,3.3.83,11.24,11.24,0,0,0,6.88-2.2c1.72-1.1,2.06-3.3,4.13-3.3A2.33,2.33,0,0,1,113,115c0,3.71-2.68,5.43-5.78,7.57,2.61.55,4.2.07,6.88,0-.21,2.82-2.55,3.58-3.85,6.19a7.41,7.41,0,0,0,4.68,1.1v3a51,51,0,0,0,11.56,1.38v1.38c-.89.28-1.58.48-2.48.83,1.24,1.1,2.48,1,4.13,1.38,2.75.62,4.2,1.65,7,1.65,4.4,0,5.64-4.54,10-5.23v8.26a14.73,14.73,0,0,1-6.05,3.85,23.23,23.23,0,0,0,6.05-1.65c.14.48.55.83.55,1.38a16,16,0,0,1-.55,2.48c.62.21,1,.55,1.65.55,1.24,0,1.79-1.1,3-1.1,2.34,0,2.75,3,5.09,3,.76,0,1-.83,1.79-.83.55,0,.83.55,1.38.55s.62-.55,1.1-.55.83.55,1.38.55.62-.48,1.1-.55c-.55-3.58-3.3-5-3.3-8.6v-2.41c1.1-.07,1.79-.28,2.89-.28,1.44,0,1.65,1.79,2.61,2.75a5.09,5.09,0,0,0,3,1.65h1.38c-.83-2.06-2.82-2.55-3.3-4.68.48-.14.55-.83,1.1-.83,2.55,0,3.78,1.93,6.33,1.93v-9.36c2.89,1.1,3.51,4.4,6.6,4.4,1.51,0,1.65-2.06,1.65-3.58h2.48l3,1.1c1.51-1.51,2.48-2.82,2.48-5v-5.16c1.44-.55,2.27-1.1,3.85-1.1a4.64,4.64,0,0,1,2.2.28c1.65.89.83,3,.83,5,3.23-1.24,3.58-4,6.33-6.05.69,1.72,1.17,3.58,3,3.58s1.72-2.34,3.3-3,2.68,0,4.4-.28c2.34-.34,3.16-1.86,5.5-2.2l-.28,1.38c.48.55,1.1.89,1.1,1.65,0,6.05-4.54,9.7-10.18,11.83-2.13.83-4.26.62-5.5,2.61l1.38,3.16a33.91,33.91,0,0,1-3,2.48c-.83.55-1.93.89-1.93,1.93,0,.55.41.89.55,1.38-1.58.21-2.61-.07-4.13.28-2.61.55-3.65,2.48-6.33,3-2.89.62-4.75.55-7.15,2.2-2,1.38-3,3-5.37,3-3.1,0-4.47-2.48-7.57-2.48-6.6,0-7.7,9.08-14.31,9.08-2.06,0-2.89-1.79-4.68-2.75a10.88,10.88,0,0,0-4.68-1.38c-4.26-.28-7.15-.21-10.73-2.48-4.68-3-7.43-4.13-12.38-6.6a37.43,37.43,0,0,0-6.05-2.2c-2-.62-4.54-.41-5-2.48s.41-3.92-1.1-5.23c-2.06-1.79-4.13-1.58-6.88-1.93-4.75-.62-10.46-1.58-10.46-6.33,0-5.64-5.85-6.88-10.73-9.63-1.44-.83-1.31-2.48-2.2-3.85-.55-.89-1.38-1.38-1.38-2.48,0-.62,1-.48,1.38-.83,2.48-2.27,5-2.13,8.26-3.3C93.6,106.63,94.56,102.36,99.51,100.71Z"/><path class="cls-16" d="M193.62,150.52h2.68c7.43,0,10.94-4.4,16.85-9.08-4.82,5.64-7.64,8.81-14.31,12.11,3.51,0,5.5-.89,8.81-2.2-.76,3.1-3.23,3.85-6.05,5.23.41,0,.62.28,1,.28,3.71,0,6-1.72,8.32-4.68l.28,1.38a28.14,28.14,0,0,1-7.43,4.68c-2.61,1.1-4.06,2.48-6.95,2.48h-3.78v-1.93c2.68-1.86,5-2.41,6.6-5.23l-1.65-.28-5.5,2.75c1.44-.69,2.06-1.58,3.3-2.48-2.27-1.1-5-.34-5.78-2.68l4.68-.07"/><path class="cls-16" d="M212.88,157.67c-1.72.83-2.48,1.79-4.13,2.75-3.65,2.06-6.53,1.86-9.63,5a27.54,27.54,0,0,0,4.13,0l-9.63,4.68c7.29,0,11.14-2.68,18.16-4.68-2.48,1.24-3.92,2-5.5,4.13.48,0,.83.28,1.31.28,1.1,0,1.58-.76,2.55-1.1a24.4,24.4,0,0,0,6.88-4.13l-1.1-.28-.55,1.1c4.75-.76,6.05-4.06,9.63-7.36-3.44,0-5.3-.07-8.74-.07a11.23,11.23,0,0,0-3.65.83"/><path class="cls-16" d="M92.91,136.48c-2.55,1-4,1.65-6.6,2.48a6.84,6.84,0,0,0,2.34.55c1.24,0,1.93-.55,3.16-.55l-2.75,2.2a4.56,4.56,0,0,0,2.2.83c.69,0,1-.55,1.65-.55,1,0,1.51.83,2.48.83,1.86,0,2.68-1.1,4.13-2.2-1.65-1.65-3.58-1.1-5.78-1.93-1-.34-1.17-1.17-2.2-1.65"/><path class="cls-16" d="M65.94,123c-5.5,0-8.53,1.24-13.76,3.3l1.93.55,3-1.38c-2.13,1-3.58,1.38-5.23,3a3.38,3.38,0,0,0,3,1.38c3,0,4.2-2.48,7.15-2.75,3.51-.34,6.05-.41,8.81-2.48a43.83,43.83,0,0,0-5.78-1.93"/><polygon class="cls-31" points="117.47 28.58 163.96 50.44 163.2 51.99 116.72 30.12 117.47 28.58"/><path class="cls-31" d="M198.8,57.42,210.31,36.8l1.49.87L200.56,57.8A11.18,11.18,0,0,0,198.8,57.42Z"/></symbol></defs><title>01_modele_1col</title><g id="MODULE"><g id="CONTENT"><use width="272" height="272" transform="scale(2.1)" xlink:href="#illus-5"/></g></g></svg>