<svg xmlns="http://www.w3.org/2000/svg" xmlns:xlink="http://www.w3.org/1999/xlink" viewBox="0 0 571.99 571.99"><defs><style>.cls-1,.cls-28{fill:#807b82;}.cls-1{clip-rule:evenodd;}.cls-2{fill:none;}.cls-3{fill:#ebece0;}.cls-11,.cls-13,.cls-14,.cls-17,.cls-18,.cls-20,.cls-21,.cls-22,.cls-24,.cls-25,.cls-26,.cls-27,.cls-28,.cls-3,.cls-30,.cls-31,.cls-33,.cls-34,.cls-35,.cls-36,.cls-4,.cls-5,.cls-6,.cls-7,.cls-8,.cls-9{fill-rule:evenodd;}.cls-4{fill:#e5e6da;}.cls-5{fill:#e0e1d6;}.cls-6{fill:#dbdbd0;}.cls-7{fill:#d5d6cb;}.cls-8{fill:#cfd0c6;}.cls-9{fill:#c9cac0;}.cls-10{fill:#58861e;}.cls-11{fill:#85b220;}.cls-12{fill:#6b9cd3;}.cls-13{fill:#9ebce3;}.cls-14{fill:#506aaf;}.cls-15{fill:#d3c068;}.cls-16{fill:#b29b00;}.cls-17,.cls-32{fill:#fff;}.cls-18,.cls-19{fill:#669c24;}.cls-20{fill:#e1d4b9;}.cls-21{fill:#b7b2a8;}.cls-22{fill:#c6b991;}.cls-23{fill:#a79c71;}.cls-24{fill:#7682a4;}.cls-25{fill:#355978;}.cls-26{fill:#d9dee9;}.cls-27{fill:#d4d5db;}.cls-29{clip-path:url(#clip-path);}.cls-30{fill:#1d1d1b;}.cls-31{fill:#e2e3ea;}.cls-33{fill:#9da3be;}.cls-34{fill:#638e2f;}.cls-35{fill:#a98014;}.cls-36{fill:#28455d;}</style><clipPath id="clip-path"><polygon class="cls-1" points="101.42 113.97 123.18 126.61 123.18 143.93 101.42 131.29 101.42 113.97"/></clipPath><symbol id="illus-3" data-name="illus-3" viewBox="0 0 272 272"><rect class="cls-2" width="272" height="272"/><path class="cls-3" d="M4.21,187.09c-2.7-1.6-2.7-4.2,0-5.8L131.6,105.84a10.58,10.58,0,0,1,9.8,0l127.4,75.45c2.7,1.6,2.7,4.2,0,5.8L141.42,262.54a10.6,10.6,0,0,1-9.8,0Z"/><path class="cls-4" d="M6.4,187.1c-2.66-1.58-2.66-4.13,0-5.71l125.26-74.19a10.41,10.41,0,0,1,9.64,0L266.57,181.4c2.67,1.58,2.67,4.13,0,5.71L141.32,261.29a10.41,10.41,0,0,1-9.64,0Z"/><path class="cls-5" d="M8.59,187.12c-2.62-1.55-2.62-4.06,0-5.61l123.14-72.93a10.25,10.25,0,0,1,9.48,0l123.15,72.93c2.61,1.55,2.61,4.06,0,5.61L141.22,260a10.25,10.25,0,0,1-9.48,0Z"/><path class="cls-6" d="M10.77,187.13c-2.57-1.52-2.57-4,0-5.51l121-71.67a10.06,10.06,0,0,1,9.31,0l121,71.67c2.57,1.52,2.57,4,0,5.51l-121,71.67a10,10,0,0,1-9.31,0Z"/><path class="cls-7" d="M13,187.15c-2.52-1.5-2.52-3.92,0-5.42l118.89-70.41a9.88,9.88,0,0,1,9.15,0l118.91,70.41c2.52,1.5,2.52,3.92,0,5.42L141,257.56a9.89,9.89,0,0,1-9.15,0Z"/><path class="cls-8" d="M15.15,187.16c-2.48-1.47-2.48-3.85,0-5.32l116.77-69.16a9.72,9.72,0,0,1,9,0l116.78,69.16c2.48,1.47,2.48,3.85,0,5.32L140.92,256.32a9.71,9.71,0,0,1-9,0Z"/><path class="cls-9" d="M17.34,187.17c-2.44-1.44-2.44-3.78,0-5.22L132,114a9.55,9.55,0,0,1,8.82,0l114.66,67.9c2.43,1.44,2.43,3.78,0,5.22l-114.65,67.9a9.52,9.52,0,0,1-8.82,0Z"/><path class="cls-10" d="M272,173.78,136,252.6v-13c21.07-5.17,34.9-33.13,34.9-33.13l-1.75.11L272,147Z"/><path class="cls-10" d="M0,173.77,136,252.6Z"/><polygon class="cls-11" points="136 67.96 272 147 136 226.04 0 147 136 67.96"/><polygon class="cls-12" points="136 226.04 136 239.93 0 160.88 0 147 136 226.04"/><path class="cls-13" d="M44.13,121.35c4.42,6.4,21.88,28.17,58.67,34.91,0,0,57.8,14.24,68,49.58L136,226,0,147Z"/><path class="cls-14" d="M170.9,206.5s-13.83,28-34.9,33.13V225.83l34.74-20Z"/><polygon class="cls-15" points="136 239.93 136 252.6 0 173.77 0 160.88 136 239.93"/><path class="cls-16" d="M136,252.6v-13c15.11-3.71,26.5-19.14,31.73-27.57L272,151.63v22.15Z"/><path class="cls-17" d="M168.82,207l-2.38,1.38c-1.35-6.8-1.78-12.11-7.11-16.72-1.82-1.57-4.05-1.08-5.62-3-3-3.47-2.89-6.94-6.28-9.92-6.44-5.78-12.15-6.36-20.16-9.59-7.19-2.89-9.58-8.68-17.19-9.92-20.49-3.39-41.51-3.78-55.14-19.73C48.64,132.13,45.39,130.78,43,122l4.42-2.56c1.91,2.14,2.51,6.12,4.46,9.06,4.13,6.28,9.26,7.44,15.21,11.9,9.09,6.78,14.79,12.89,26.2,12.89h9.75c5.7,0,7.85,4.46,13.3,6.28,7.85,2.56,13,2.56,19.5,7.6,2.31,1.74,2.56,4.46,5.29,5.62,8.51,3.72,11.08,9.42,18.51,14.88,6,4.38,9.59,9.34,9.59,16.86A7.34,7.34,0,0,1,168.82,207Z"/><polygon class="cls-18" points="158.01 172.46 135.2 104.69 251.55 135.12 266.38 143.74 252.22 152.62 226.1 164.52 158.01 172.46"/><path class="cls-19" d="M160.87,21.77c-3.26.94-5.22-.28-7.9-1.7-1-.53-2.72-1-2-2,2.35-3.39,2.67-7.23,6.7-8.39.76-.22,1.6,0,1.72.7a9.49,9.49,0,0,1,0,1,10.15,10.15,0,0,1,4.94-2.67c1.3-.38,3.17-1.47,3.37-.29.09.52,0,.82.08,1.35,1.82-.7,2.81-1.36,4.66-1.9l3.15-.91a2.27,2.27,0,0,1-.82,1.41l3.44-1a8.83,8.83,0,0,1,5.54.12c-2.23,4.08-5.42,6.1-10,7.42a9.55,9.55,0,0,1,1.81-.11,3.11,3.11,0,0,1-2.27,1.62c-1.92.55-3,.73-4.91,1.28.1,1-.32,1.47-1,1.67-3.12.9-4.93.74-8,.54,1,.51,1.6.64,2.49,1.2A2.15,2.15,0,0,1,160.87,21.77Zm-37.58,8.92c2.06.09,4.09-.6,5.63-.13L127.27,30c-1,0-2.36.33-2.84-.11Zm-.74,7.44c-1.25-1.61-.77-3.27-.28-5.43a9.62,9.62,0,0,1,.34-1.5c-12.09,8.87-41.71,34.33-40.25,70,0,0,.28,5.13,2.4,6.28H82.6l-1.6.66-1.69,1.16L77.89,109l-1.4-.5-2,.33-.49-1-4.22.49s3.64-1,5.62-5.78c0,0-.83-41.3,45.77-72.93-1.85-1.5-4-2.34-3.63-4.92a1.32,1.32,0,0,1,1.17-1.15c.31,0,.5.08.81.1a5.35,5.35,0,0,1-.44-3.82c.15-1-.09-2.42.94-2.43.46,0,.67.07,1.12.09a30.23,30.23,0,0,1,.08-3.53l.36-2.35c.64.29.75.48.86.74l.39-2.56a7.29,7.29,0,0,1,2-3.93c2.53,2,3.07,4.54,2.55,7.93a7.29,7.29,0,0,1,.54-1.3c.62.4.64,1,.52,1.8-.22,1.43-.45,2.21-.67,3.64.87,0,1.08.39,1,.9L128.52,20a10.93,10.93,0,0,1,3.32-4.31c1-.92,2.21-2.66,3-1.83.37.37.47.63.81,1,1.34-1.41,1.92-2.4,3.38-3.7l2.48-2.21a1.79,1.79,0,0,1,0,1.5L144.24,8a10.41,10.41,0,0,1,5.29-2.53c.1,4.27-1.82,7.37-5.42,10.57a10.8,10.8,0,0,1,1.64-.94c.12.94-.47,1.64-1.27,2.35-1.33,1.18-2.19,1.83-3.4,2.87,1.31-.08,3.34-.75,3.22.48-.05.55-.18.83-.28,1.38,1.88-.28,3-.73,4.84-.84l3.18-.19c-.48.85-.75,1-1.14,1.23l3.47-.21a7.83,7.83,0,0,1,5.13,1.39c-3.14,3.6-6.65,4.91-11.25,5.19A8.34,8.34,0,0,1,150,29a3,3,0,0,1-2.54,1.11c-1.93.12-3,0-4.92.17-.18,1.07-.68,1.41-1.37,1.45-3.14.19-4.79-.39-7.64-1.3.76.74,1.32,1,2,1.78a2.09,2.09,0,0,1-1.06.48,6.29,6.29,0,0,1-4-1,.91.91,0,0,1-.31,1.07c.64.74,1.27,1.34,2.06,2.36.5.64,1.6,1.36.82,1.93-.34.26-.56.33-.92.57a22.56,22.56,0,0,1,2.16,2.09l1.21,1.56c-.67.19-.87.14-1.12,0l1.32,1.7a4.69,4.69,0,0,1,.94,3.39,7.34,7.34,0,0,1-7-3.19,4.81,4.81,0,0,1,.41,1.05,1.52,1.52,0,0,1-1.53-.75c-.74-1-1.05-1.53-1.79-2.48-.7.46-1.07.37-1.33,0a9.94,9.94,0,0,1-1.85-4.67c-.18.78-.15,1.21-.37,2Zm106.83,81.55c-1.57-1.44-1.33-3-1.16-5.11a79.86,79.86,0,0,0-21.32,10.05v19.14L173,163.83l-.72,1.49s-2.15,4.66-.83,6.67l-1.9-1-1.72-.17-2,.23-1.11-1-.8-.87-6.65,3.94-10.7-6.22-13.1-7.61L95.39,137.21V93.75l-1.84-1.07V89.95C118.1,44.81,118.1,44.86,118.1,44.86l30.08,14,62.14,35.9v2.73l-3.42-1.57v23.21a70.33,70.33,0,0,1,22.28-7.06l.84.45.93-.12c-.58-1.74-.81-3.36.68-5.1a1.71,1.71,0,0,1,2-.52,9.93,9.93,0,0,1,.78.63,7.53,7.53,0,0,1,2.25-4.54c.85-1,1.63-2.76,2.71-2.11.48.29.64.51,1.1.83a42.33,42.33,0,0,1,2.6-3.88l2-2.39c.46.74.45,1,.36,1.38l2.23-2.6a10,10,0,0,1,4.9-3.08c1.19,3.91,0,7-3,10.5a10.38,10.38,0,0,1,1.48-1.1,1.49,1.49,0,0,1,0,1.18c.89-.46,1.72-.77,2.07-.09.24.47.25.74.45,1.23,1.72-.92,2.57-1.69,4.36-2.46l3-1.33a1.79,1.79,0,0,1-.48,1.41l3.33-1.45a10.49,10.49,0,0,1,5.82-.76c-1.21,4.08-4,6.43-8.41,8.35a11.15,11.15,0,0,1,1.86-.38c-.17.93-1,1.41-1.93,1.84-1.86.81-2.93,1.14-4.79,1.94.39.93.07,1.39-.59,1.68-3,1.31-5,1.45-8.27,1.75,1.15.32,1.84.34,2.93.71a1.83,1.83,0,0,1-.8.77,8.36,8.36,0,0,1-3.47.74l.77.54c1,.73,2.92,1.42,2,2.35-.42.41-.7.56-1.15,1a39.9,39.9,0,0,1,4.05,2.25l2.42,1.77a2.49,2.49,0,0,1-1.66.31l2.64,1.93a6.74,6.74,0,0,1,2.73,4.24,13.37,13.37,0,0,1-11.66-2.62,7.15,7.15,0,0,1,1,1.29,2.76,2.76,0,0,1-2.59-.64l-1.54-1.2a8.13,8.13,0,0,1-3.41-1,9.79,9.79,0,0,1-2.13-1.5,3.87,3.87,0,0,1,.51.84,1.84,1.84,0,0,1-1.73-.61c-.87-.8-1.3-1.32-2.12-2.08-.81.33-1.22.27-1.55,0a10.07,10.07,0,0,1-2.68-4.28c-.06.74,0,1.15-.08,1.88Z"/><polygon class="cls-20" points="95.39 86.62 157.24 122.57 157.24 173.16 95.39 137.21 95.39 86.62"/><polygon class="cls-21" points="95.39 89.58 157.24 125.53 157.24 128.25 95.39 92.31 95.39 89.58"/><polygon class="cls-22" points="206.9 93.17 179.95 80.44 157.24 122.57 157.24 173.16 206.9 143.76 206.9 93.17"/><polygon class="cls-23" points="180.04 85.01 157.24 126.88 157.24 125.23 179.95 83.54 206.9 95.95 206.9 97.38 180.04 85.01"/><polygon class="cls-24" points="93.55 90 155.4 125.94 179.95 80.81 118.1 44.86 93.55 90"/><polygon class="cls-25" points="148.18 58.89 210.41 94.84 179.95 80.81 118.1 44.86 148.18 58.89"/><polygon class="cls-17" points="93.55 89.95 155.4 125.89 155.4 128.62 93.55 92.67 93.55 89.95"/><polygon class="cls-26" points="179.95 80.81 155.4 125.89 155.4 128.62 179.95 83.54 179.95 80.81"/><polygon class="cls-26" points="179.95 80.81 210.32 94.79 210.32 97.52 179.95 83.54 179.95 80.81"/><polygon class="cls-27" points="101.23 112.3 124.39 125.76 124.39 144.71 123.89 145.02 123.89 126.07 100.74 112.63 101.23 112.3"/><polygon class="cls-17" points="100.72 112.61 123.89 126.07 123.89 145.02 100.72 131.56 100.72 112.61"/><polygon class="cls-28" points="101.42 113.97 123.18 126.61 123.18 143.93 101.42 131.29 101.42 113.97"/><g class="cls-29"><path class="cls-30" d="M112.24,122.65c-.86.74-1.58.74-2.55,1.38.15.41.62.52.62,1s-.28.83-.28,1.38.93.57,1.44,1a1.82,1.82,0,0,0,1.17.55c0,.28-.07.43-.07.7,0,.88-.14,1.74.62,2.18a4.84,4.84,0,0,1,1.24-3c.5-.5,1.15,0,1.79-.34a2,2,0,0,0,1.17-1.93c0-.93-1-1-1.79-1.58s-1.31-1.51-2.41-1.51A1.89,1.89,0,0,0,112.24,122.65Z"/></g><polygon class="cls-31" points="124.38 125.8 123.89 126.07 100.74 112.63 101.23 112.3 124.38 125.8"/><polygon class="cls-32" points="106.31 134.67 106.09 134.67 105.45 134.31 105.45 115.36 106.31 115.86 106.31 134.67"/><polygon class="cls-32" points="112.41 138.2 112.14 138.2 111.55 137.85 115.02 127.38 115.89 127.88 112.41 138.2"/><polygon class="cls-32" points="118.51 141.72 118.2 141.71 117.64 141.39 108.9 130.13 109.76 130.63 118.51 141.72"/><polygon class="cls-32" points="123.79 131.48 102.07 128.29 100.82 126.3 102.71 127.69 123.89 130.58 123.89 131.41 123.79 131.48"/><polygon class="cls-32" points="123.79 136.1 100.72 123.31 100.72 123.06 101.36 122.71 123.89 135.2 123.89 136.03 123.79 136.1"/><polygon class="cls-32" points="123.79 140.72 100.72 127.93 100.72 127.68 101.36 127.33 123.89 139.82 123.89 140.65 123.79 140.72"/><polygon class="cls-27" points="133.95 127.91 146.94 135.6 146.94 166.69 146.43 167.01 146.43 135.91 133.47 128.25 133.95 127.91"/><polygon class="cls-30" points="133.44 128.22 146.43 135.91 146.43 167.01 133.44 159.32 133.44 128.22"/><polygon class="cls-27" points="194.79 116.86 171.62 131.48 171.62 150.43 172.13 150.71 172.13 131.77 195.28 117.16 194.79 116.86"/><polygon class="cls-17" points="195.3 117.14 172.13 131.77 172.13 150.71 195.3 136.09 195.3 117.14"/><polygon class="cls-28" points="194.6 118.54 172.84 132.27 172.84 149.59 194.6 135.86 194.6 118.54"/><polygon class="cls-31" points="171.64 131.51 172.13 131.77 195.28 117.16 194.79 116.86 171.64 131.51"/><polygon class="cls-32" points="189.7 139.49 189.93 139.48 190.57 139.08 190.57 120.13 189.7 120.67 189.7 139.49"/><polygon class="cls-32" points="183.61 143.32 183.88 143.3 184.47 142.93 184.47 123.98 183.61 124.52 183.61 143.32"/><polygon class="cls-32" points="177.51 147.14 177.82 147.12 178.38 146.77 178.38 127.83 177.51 128.37 177.51 147.14"/><polygon class="cls-32" points="172.23 137.17 195.3 123.23 195.3 122.98 194.66 122.66 172.13 136.27 172.13 137.11 172.23 137.17"/><polygon class="cls-32" points="172.23 141.79 195.3 127.85 195.3 127.6 194.66 127.28 172.13 140.89 172.13 141.73 172.23 141.79"/><polygon class="cls-32" points="172.23 146.41 195.3 132.47 195.3 132.22 194.66 131.9 172.13 145.51 172.13 146.34 172.23 146.41"/><polygon class="cls-33" points="96.36 91.63 121.41 46.78 122.9 47.65 97.85 92.5 96.36 91.63"/><polygon class="cls-33" points="100.25 93.89 125.3 49.04 126.79 49.91 101.74 94.76 100.25 93.89"/><polygon class="cls-33" points="104.14 96.16 129.19 51.3 130.68 52.17 105.63 97.02 104.14 96.16"/><polygon class="cls-33" points="108.03 98.42 133.08 53.56 134.57 54.43 109.52 99.28 108.03 98.42"/><polygon class="cls-33" points="111.92 100.68 136.97 55.83 138.46 56.69 113.41 101.54 111.92 100.68"/><polygon class="cls-33" points="115.81 102.94 140.86 58.09 142.35 58.95 117.3 103.8 115.81 102.94"/><polygon class="cls-33" points="119.7 105.2 144.75 60.35 146.24 61.21 121.19 106.06 119.7 105.2"/><polygon class="cls-33" points="123.59 107.46 148.64 62.61 150.13 63.48 125.08 108.32 123.59 107.46"/><polygon class="cls-33" points="127.48 109.72 152.53 64.87 154.02 65.74 128.97 110.58 127.48 109.72"/><polygon class="cls-33" points="131.37 111.98 156.42 67.13 157.91 68 132.86 112.85 131.37 111.98"/><polygon class="cls-33" points="135.26 114.24 160.31 69.39 161.8 70.26 136.75 115.11 135.26 114.24"/><polygon class="cls-33" points="139.15 116.5 164.2 71.65 165.69 72.52 140.64 117.37 139.15 116.5"/><polygon class="cls-33" points="143.04 118.76 168.09 73.91 169.58 74.78 144.53 119.63 143.04 118.76"/><polygon class="cls-33" points="146.93 121.02 171.98 76.17 173.47 77.04 148.42 121.89 146.93 121.02"/><polygon class="cls-33" points="150.82 123.28 175.87 78.44 177.36 79.3 152.31 124.15 150.82 123.28"/><path class="cls-34" d="M160.87,21.77a2.15,2.15,0,0,0,.95-.69c-.89-.57-1.53-.69-2.49-1.2,3.12.2,4.93.36,8-.54a2.12,2.12,0,0,0,1.38-1.23l-.38-.44c1.92-.55,3-.73,4.91-1.28a3.11,3.11,0,0,0,2.27-1.62,9.55,9.55,0,0,0-1.81.11c4.57-1.32,7.76-3.34,10-7.42a8.83,8.83,0,0,0-5.54-.12l-3.44,1a11.66,11.66,0,0,1,.93-.75l-.11-.65-3.15.91c-1.85.53-2.84,1.2-4.66,1.9-.06-.53,0-.83-.08-1.35-.2-1.18-2.07-.09-3.37.29a10.15,10.15,0,0,0-4.94,2.67,9.49,9.49,0,0,0,0-1c-.12-.69-1-.93-1.72-.7-4,1.16-4.35,5-6.7,8.39-.7,1,1,1.49,2,2C155.64,21.49,157.6,22.71,160.87,21.77Z"/><path class="cls-34" d="M134.43,32.73a2.09,2.09,0,0,0,1.06-.48c-.68-.77-1.24-1-2-1.78,2.85.92,4.5,1.5,7.64,1.3a2.14,2.14,0,0,0,1.61-.92l-.24-.53c1.93-.12,3,0,4.92-.17A3,3,0,0,0,150,29a8.34,8.34,0,0,0-1.71-.3c4.6-.28,8.1-1.59,11.25-5.19a7.83,7.83,0,0,0-5.13-1.39l-3.47.21a11.75,11.75,0,0,1,1.07-.54l.07-.68-3.18.19c-1.86.12-3,.56-4.84.84.09-.55.22-.83.28-1.38.12-1.23-1.9-.56-3.22-.48a9.71,9.71,0,0,0-5.31,1.55c.07-.38.2-.63.24-1,.07-.72-.65-1.15-1.42-1.1-4.05.25-5.37,4-8.44,6.92-.92.88.55,1.74,1.35,2.51C129.64,31.25,131.15,32.93,134.43,32.73Z"/><path class="cls-35" d="M69.73,108.33s3.64-1,5.62-5.78c0,0-.88-43.39,49.34-75.28l2.94.46s-47.1,28.67-45.28,73.49c0,0,.28,5.13,2.4,6.28H82.6l-1.6.66-1.69,1.16L77.89,109l-1.4-.5-2,.33-.49-1Z"/><path class="cls-34" d="M135.65,27.58a1.88,1.88,0,0,0,.52-1c-1.15,0-1.81.18-3,.23,3.05-1.32,4.85-2.06,7.31-4.24a1.79,1.79,0,0,0,.65-1.62l-.6-.17c1.52-1.35,2.44-2,4-3.34.8-.71,1.39-1.41,1.27-2.35a10.8,10.8,0,0,0-1.64.94c3.6-3.21,5.52-6.31,5.42-10.57A10.41,10.41,0,0,0,144.24,8l-2.72,2.41a9.67,9.67,0,0,1,.48-1l-.46-.46-2.48,2.21c-1.46,1.3-2,2.29-3.38,3.7-.34-.39-.44-.66-.81-1-.83-.83-2,.91-3,1.83a9.53,9.53,0,0,0-3.23,4.44,8.25,8.25,0,0,0-.55-.77c-.48-.49-1.41-.28-2,.26-3.17,2.82-1.41,6-1.79,9.78-.11,1.14,1.77.69,3,.64C130.57,29.84,133.07,29.87,135.65,27.58Z"/><path class="cls-34" d="M128.44,23.74a1,1,0,0,0-.23-.75c-.77.57-1.09,1-1.84,1.64,1.24-2.2,2-3.47,2.36-5.79a1.06,1.06,0,0,0-.51-1.12l-.49.22c.21-1.43.45-2.21.67-3.64.12-.75.1-1.4-.52-1.8a7.29,7.29,0,0,0-.54,1.3c.52-3.4,0-5.89-2.55-7.93a7.29,7.29,0,0,0-2,3.93l-.39,2.56a5,5,0,0,1-.28-.75h-.57c-.14.92-.21,1.43-.36,2.35a30.23,30.23,0,0,0-.08,3.53c-.45,0-.67-.1-1.12-.09-1,0-.79,1.46-.94,2.43a5.35,5.35,0,0,0,.44,3.82c-.31,0-.49-.1-.81-.1a1.32,1.32,0,0,0-1.17,1.15c-.46,3,2.55,3.65,4.48,5.7.59.61,1.57-.56,2.35-1.21C126.41,27.43,128.08,26.17,128.44,23.74Z"/><path class="cls-34" d="M122.54,38.12a1,1,0,0,0,.65.31c.22-.76.19-1.19.37-2a9.94,9.94,0,0,0,1.85,4.67,1.1,1.1,0,0,0,1.1.37l.23-.4c.74.95,1.05,1.53,1.79,2.48a1.52,1.52,0,0,0,1.53.75,4.81,4.81,0,0,0-.41-1.05,7.34,7.34,0,0,0,7,3.19,4.69,4.69,0,0,0-.94-3.39l-1.32-1.7a5.92,5.92,0,0,1,.69.28l.43-.32-1.21-1.56a22.56,22.56,0,0,0-2.16-2.09c.36-.24.57-.31.92-.57.77-.57-.32-1.29-.82-1.93a4.58,4.58,0,0,0-2.74-2c.25-.16.44-.22.68-.39a.92.92,0,0,0,.17-1.31c-1.54-2-4.25-.71-7-.83-.83,0-.84,1.19-1,2C121.78,34.86,121.29,36.51,122.54,38.12Z"/><path class="cls-34" d="M249.73,114.83a1.83,1.83,0,0,0,.8-.77c-1.09-.38-1.78-.4-2.93-.71,3.31-.31,5.25-.44,8.27-1.75a1.79,1.79,0,0,0,1.11-1.34l-.52-.34c1.86-.81,2.93-1.14,4.79-1.94,1-.43,1.76-.91,1.93-1.84a11.15,11.15,0,0,0-1.86.38c4.42-1.92,7.2-4.27,8.41-8.35a10.49,10.49,0,0,0-5.82.76l-3.33,1.45a9.31,9.31,0,0,1,.77-.83l-.3-.58-3,1.33c-1.79.78-2.64,1.54-4.36,2.46-.2-.48-.21-.76-.45-1.23-.53-1-2.19.25-3.45.79a9.47,9.47,0,0,0-4.45,3.21,8.19,8.19,0,0,0-.29-.9c-.31-.61-1.26-.7-2-.38-3.89,1.69-3.18,5.26-4.71,8.73-.45,1,1.47,1.21,2.67,1.54C244.2,115.4,246.58,116.21,249.73,114.83Z"/><path class="cls-35" d="M157.8,165.68s3.68.83,7.67-2.47c0,0,19.9-45,63.71-51.11l2.63,1.4s-38.38,7.16-59.54,51.83c0,0-2.15,4.66-.83,6.67l-1.9-1-1.72-.17-2,.23-1.11-1-1-1.1-2-.67,0-1.11Z"/><path class="cls-34" d="M233.72,122.12a1.9,1.9,0,0,0,1.09.26c0-1-.17-1.6-.21-2.66,1.42,2.47,2.21,3.94,4.6,5.69a2,2,0,0,0,1.79.23l.19-.57c1.47,1.08,2.18,1.77,3.65,2.85a2.76,2.76,0,0,0,2.59.64,7.15,7.15,0,0,0-1-1.29,13.37,13.37,0,0,0,11.66,2.62,6.74,6.74,0,0,0-2.73-4.24l-2.64-1.93a10.29,10.29,0,0,1,1.14.21l.52-.51-2.42-1.77a39.9,39.9,0,0,0-4.05-2.25c.44-.39.73-.54,1.15-1,.94-.93-1-1.61-2-2.35a8.4,8.4,0,0,0-4.88-2c.31-.26.58-.38.87-.67a1.14,1.14,0,0,0-.26-1.76c-3.08-2.26-6.64,0-10.83.49-1.26.15-.8,1.75-.75,2.85C231.29,118,231.22,120.29,233.72,122.12Z"/><path class="cls-34" d="M243.72,113.34a1.47,1.47,0,0,0,.3-1c-1.21.14-1.86.42-3.09.64,2.86-1.64,4.56-2.57,6.58-4.93a1.43,1.43,0,0,0,.27-1.58l-.67-.07c1.24-1.45,2-2.18,3.28-3.63.66-.77,1.1-1.5.73-2.34a10.38,10.38,0,0,0-1.48,1.1c3-3.45,4.18-6.58,3-10.5a10,10,0,0,0-4.9,3.08l-2.23,2.6a7.74,7.74,0,0,1,.24-1l-.6-.36-2,2.39a42.33,42.33,0,0,0-2.6,3.88c-.46-.32-.62-.54-1.1-.83-1.08-.65-1.87,1.12-2.71,2.11a7.53,7.53,0,0,0-2.25,4.54,9.93,9.93,0,0,0-.78-.63,1.71,1.71,0,0,0-2,.52c-2.61,3,.05,5.72.61,9.26.18,1.06,2,.39,3.31.16C239,116.13,241.61,115.8,243.72,113.34Z"/><path class="cls-34" d="M229.37,119.67a1.24,1.24,0,0,0,.73.25c.12-.73,0-1.14.08-1.88a10.07,10.07,0,0,0,2.68,4.28,1.33,1.33,0,0,0,1.21.28l.18-.39c.92.85,1.35,1.38,2.27,2.23a1.84,1.84,0,0,0,1.73.61,4.62,4.62,0,0,0-.6-1,9,9,0,0,0,7.81,2.58,4.61,4.61,0,0,0-1.52-3.14L242.3,122a6.18,6.18,0,0,1,.77.22l.4-.33-1.51-1.4a27.46,27.46,0,0,0-2.61-1.84c.34-.24.55-.33.87-.59.72-.59-.54-1.19-1.16-1.77a5.6,5.6,0,0,0-3.2-1.69c.24-.16.43-.23.65-.41a.81.81,0,0,0,0-1.25c-1.94-1.78-4.57-.41-7.5-.34-.89,0-.7,1.17-.76,2C228,116.64,227.81,118.23,229.37,119.67Z"/><path class="cls-34" d="M244.51,32.39a15,15,0,0,1,8.76-1.56l-1.1.2c1.12.26,1.77.23,2.85.55a1.7,1.7,0,0,1-.62.88c-2.69,1.68-5,1-8.15.27C245.72,32.61,245.06,32.54,244.51,32.39Z"/><path class="cls-34" d="M246.79,44.26a15,15,0,0,1-8.85-.92l1.11.11c-1-.56-1.63-.71-2.58-1.32a1.65,1.65,0,0,1,.83-.68c3-.88,5.12.44,7.91,2C245.69,43.71,246.31,44,246.79,44.26Z"/><path class="cls-34" d="M269.47,41.86a15,15,0,0,1-8.85-.91l1.11.11c-1-.56-1.63-.71-2.58-1.32a1.67,1.67,0,0,1,.83-.68c3.05-.88,5.12.44,7.91,2C268.38,41.31,269,41.56,269.47,41.86Z"/><path class="cls-34" d="M263.78,51.65a15,15,0,0,1-3.92-8l.5,1c-.06-1.15-.27-1.76-.25-2.89a1.67,1.67,0,0,1,1,.35c2.36,2.13,2.34,4.57,2.51,7.76C263.67,50.43,263.78,51.09,263.78,51.65Z"/><path class="cls-34" d="M162.57,36.23a15,15,0,0,1-6.92-5.59l.87.7c-.54-1-1-1.48-1.44-2.51a1.65,1.65,0,0,1,1.07-.12c3,.93,4.05,3.16,5.55,6C162,35.17,162.33,35.72,162.57,36.23Z"/><path class="cls-34" d="M166.61,25.95a.91.91,0,0,0,.52,0c-.14-.47-.32-.68-.5-1.14a7,7,0,0,0,2.88,1.81.92.92,0,0,0,.83-.17v-.28c.81.25,1.23.45,2,.7a1.28,1.28,0,0,0,1.24-.11,3.37,3.37,0,0,0-.64-.41,6.22,6.22,0,0,0,5.52-.61,3.14,3.14,0,0,0-1.84-1.45l-1.45-.45a4.49,4.49,0,0,1,.53-.08l.15-.31L174.53,23a18.7,18.7,0,0,0-2.12-.37c.13-.24.24-.35.36-.59.27-.55-.67-.56-1.23-.73a3.9,3.9,0,0,0-2.44-.12,4.91,4.91,0,0,0,.28-.43A.53.53,0,0,0,169,20c-1.7-.52-2.92,1-4.69,1.85-.53.26-.09.89.1,1.37C164.92,24.51,165.23,25.52,166.61,25.95Z"/><path class="cls-34" d="M169.38,39.38a.49.49,0,0,0,.33.16c.12-.39.1-.61.19-1a5.05,5.05,0,0,0,1,2.39.56.56,0,0,0,.56.19l.12-.21c.38.49.54.79.92,1.27a.78.78,0,0,0,.78.38A2.41,2.41,0,0,0,173,42a3.76,3.76,0,0,0,3.56,1.63,2.41,2.41,0,0,0-.48-1.74l-.67-.87a3.14,3.14,0,0,1,.35.14L176,41l-.62-.8a11.35,11.35,0,0,0-1.11-1.07c.18-.12.29-.16.47-.29.4-.29-.16-.66-.42-1a2.35,2.35,0,0,0-1.41-1c.13-.08.23-.11.35-.2a.47.47,0,0,0,.09-.67c-.79-1-2.18-.37-3.59-.42-.43,0-.43.61-.52,1C169,37.71,168.74,38.56,169.38,39.38Z"/><path class="cls-13" d="M38.15,112.82c3.58,0,4.13,4.68,4.13,8.26h5c1-.14,1.24-1.1,2.2-1.1,5.09,0,0,8.39,2.75,12.66,1.38,2.2,3.3,3,4.4,5.5,3.44,8,13.9,2.06,21.46,6.05,1.93,1,.28,3.85,1.65,5.5,4,4.68,9.22,4.4,15.41,4.4,2.2,0,2.75-2.75,5-2.75,7.43,0,8.67,8.81,16,10.46,8.12,1.79,12.8,4.26,19.26,9.36,9.49,7.57,17.89,9.91,23.11,20.91,2.48,5.37,8.26,6.74,8.26,12.66,0,7.43-8.12,8.81-14.31,12.66a32.07,32.07,0,0,0-4.57,3.58L136,226,0,147l.49-1c3.68-1.83,6.65-4.57,11-7.3,6.47-4,10.32-7.15,14.86-13.21C30.31,120.11,31.41,112.82,38.15,112.82Z"/><path class="cls-17" d="M32.37,118.32a6.79,6.79,0,0,0-3.26,2.52c2.22-4.17,4.14-8,9-8,3.58,0,4.13,4.68,4.13,8.26h5c1-.14,1.24-1.1,2.2-1.1,5.09,0,0,8.39,2.75,12.66,1.38,2.2,3.3,3,4.4,5.5,3.44,8,13.9,2.06,21.46,6.05,1.93,1,.28,3.85,1.65,5.5,4,4.68,9.22,4.4,15.41,4.4,2.2,0,2.75-2.75,5-2.75,7.43,0,8.67,8.81,16,10.46,8.12,1.79,12.8,4.26,19.26,9.36,9.49,7.57,17.89,9.91,23.11,20.91,2.48,5.37,8.26,6.74,8.26,12.66a8.71,8.71,0,0,1-.25,2.13,17.13,17.13,0,0,1-2.5-5.43c-1.38-5-7.7-5.37-7.7-10.46-5.23-.69-12.66.28-12.66-5,0-1.38.69-2.06,1.1-3.3-13.9-4.27-17.2-15.55-30.82-20.36-16.37-5.78-26.83-6.88-42.38-14.86-5-2.48-9.22.69-14.31-1.65-5.92-2.75-7.57-7.43-13.76-9.91l1.1-2.2v-6.05C38.56,127.67,35.4,123.41,32.37,118.32Z"/><path class="cls-14" d="M165.55,194h1.38l.28,1.1c-3.23,1.93-5.57,3.65-6.33,7.43a14.91,14.91,0,0,0,2.48,0l.28,1.1c-.62,1.24-1.38,1.93-1.38,3.3,0,1,1.24,1.1,2.2,1.1,1.38,0,2.06-.62,3.3-1.1h1.38v1.44c0,5.64-6.26,6.47-10.46,10.11-4.61,4-6.33,9.63-12.45,9.63h-6c-2-1.17-6.05.14-5.5-2.2.48-1.93,2.89-1.1,4.4-2.2,4.27-3.16,7.77-4.54,10.18-9.36C153.86,205.2,156.06,198.74,165.55,194Z"/><path class="cls-17" d="M162.25,186.84a3,3,0,0,1,2.75,1.38,17,17,0,0,1-7.15,1.1C155.92,189.31,160.32,186.84,162.25,186.84Z"/><path class="cls-17" d="M152.07,182.43a8,8,0,0,1,5-4.13l.83,1.38C156.13,181.4,154.2,181.2,152.07,182.43Z"/><path class="cls-17" d="M55.21,124.92c1.31-1.31,2.27-2.2,4.13-2.2A1.82,1.82,0,0,1,61,124.1a6.59,6.59,0,0,1-2.48.83C57.21,124.92,56.45,124.51,55.21,124.92Z"/><path class="cls-17" d="M55.21,136.48c.69-2.61,2.55-4.68,5.3-4.68,1,0,1.44.21,2.41.28v1.38C60.09,134.07,58,135.38,55.21,136.48Z"/><path class="cls-34" d="M183.46,55.93a1.53,1.53,0,0,0,.9-.09c-.24-.81-.55-1.18-.86-2a12.13,12.13,0,0,0,5,3.14,1.6,1.6,0,0,0,1.43-.29v-.49c1.41.44,2.12.78,3.53,1.22a2.22,2.22,0,0,0,2.15-.19,5.72,5.72,0,0,0-1.12-.71,10.8,10.8,0,0,0,9.59-1.06,5.44,5.44,0,0,0-3.2-2.52l-2.52-.78a8.14,8.14,0,0,1,.92-.14l.26-.53-2.31-.71a32.43,32.43,0,0,0-3.69-.65c.24-.42.42-.6.63-1,.47-1-1.17-1-2.13-1.27a6.79,6.79,0,0,0-4.24-.22,8.68,8.68,0,0,0,.49-.73.92.92,0,0,0-.66-1.27c-2.95-.91-5.06,1.76-8.14,3.22-.92.45-.15,1.54.18,2.37C180.52,53.44,181.07,55.19,183.46,55.93Z"/><path class="cls-34" d="M186.33,33.34a1.5,1.5,0,0,0,.8-.42c-.53-.66-1-.89-1.54-1.51a12.11,12.11,0,0,0,5.82,1,1.6,1.6,0,0,0,1.22-.8l-.18-.45c1.47-.12,2.26-.08,3.73-.2a2.23,2.23,0,0,0,1.92-1,5.78,5.78,0,0,0-1.31-.24,10.8,10.8,0,0,0,8.5-4.58,5.45,5.45,0,0,0-3.91-1.14l-2.63.22a8.31,8.31,0,0,1,.81-.48l0-.59-2.41.2a32.88,32.88,0,0,0-3.67.77c.06-.47.16-.71.2-1.19.08-1.06-1.45-.46-2.45-.38a6.8,6.8,0,0,0-4,1.39c.05-.33.15-.54.18-.86a.92.92,0,0,0-1.09-.93c-3.08.26-4,3.53-6.34,6-.69.76.44,1.49,1,2.13C182.67,32.13,183.83,33.55,186.33,33.34Z"/><path class="cls-13" d="M29.62,119.7c2.34-3.78,4.2-7.43,8.6-7.43h5.09c6.6,0,9.7,4.68,16.3,4.68,10.8,0,15.48-5.71,25.59-10.73a8.08,8.08,0,0,1,.83,2.48c0,2.89-3.3,3.23-5,5.5h6.05c.21.62.55,1,.55,1.65,0,1.65-1.44,2.06-2.2,3.58,3.85,1.72,3.85,7.43,8.12,7.43,2.68,0,3.85-1.93,6.47-2.48.28,1.38.83,2.06.83,3.44,0,2.41-2.75,3.23-2.75,5.64s3,2.75,4.4,4.68c1.58,2.13,2.55,4.68,5.23,4.68,1.38,0,2.06-.83,3.44-.83,5,0,4,9.08,8.94,9.08,3.51,0,4.2-4.68,7.7-4.68,1.44,0,2.2,1.58,2.2,3,0,1.86-1.1,2.82-1.1,4.68,0,3.44,4.82,3,8.26,3,0,4.4,2.34,7.84,6.6,9.08s7.22.21,11,2.48c15.2,0,20.57-15.68,35.77-15.68,2.34,0,3.85,2.34,3.85,4.68,4.06.76,6.4,0,10.46,0,2.2-2.2,4.2-3.3,7.29-3.3,2.55,0,4,.69,6.47.07.14.55.55,1,.55,1.58,0,4.13-5,4.26-8,7.09,4.82.83,7.57.07,12.38.07a7.93,7.93,0,0,1,2.75.83c-1.72,1.24-3.1,1.93-4.13,3.85h5.5v2.55c0,2.82-3.37,2.82-5.5,4.61a27.07,27.07,0,0,1-7.43,4.68c-7.43,3.37-10.94,6.54-18.71,9.08-10,3.3-13.76,9-22.56,14.86-2.75,1.79-3.58,5-6.88,5-.76,0-1.17-.55-1.93-.55-.48,0-.62.55-1.1.55-.69,0-.69-.83-1.1-1.38-.89.48-.89,1.93-1.93,1.93-.55,0-.55-.83-1.1-.83-1.93,0-1.1,3.16-2.48,4.4-4,3.71-7.22,6.33-12.73,6.33h-7.84c-6.95,0-8.94-6.33-14.65-10.18-12.52-8.53-19.47-13.55-32.75-21.19-11.21-6.47-13.35-16.1-25-21.46-7.36-3.37-12-4.2-19.54-7.15-3.44-1.38-6.74-.76-8.81-3.85-3.85-5.85-1.65-11.08-4.13-17.61-1.38-3.58-3-5.64-3-9.49,0-2.41.76-3.65,1.65-5.92V120.8H28.79"/><path class="cls-14" d="M138.31,224.26l1.38-1.38c3.26-1,5.79-1.46,7.43-4.4,3.51-6.33,5.92-13.21,13.21-13.21.55,0,.83.55,1.38.55,1.72,0,1.86-2.13,3-3.3,3.51-3.51,6.12-6,6.6-11,1.31.21,2.06-.28,3.37-.28h8.67c2.41,0,2.75-2.89,4.75-4.13s4-.48,6.33-1.38,3.37-3.3,6.05-3.3c1,0,1.58.55,2.61.55,8.13,0,13.41-4.14,19.37-7.28l-53.33,30.91,1.75-.11s-1.11,2.24-3.17,5.56c-.74,1.19-1.61,2.53-2.59,4-6.1,5.14-12.13,9.62-21.74,9.62-1.59,0-2.09-1.47-3.25-2.42A15.53,15.53,0,0,0,138.31,224.26Z"/><path class="cls-17" d="M59.61,117.22c10.88-.38,15.57-6,25.59-11a8.08,8.08,0,0,1,.83,2.48c0,2.89-3.3,3.23-5,5.5h6.05c.21.62.55,1,.55,1.65,0,1.65-1.44,2.06-2.2,3.58,3.85,1.72,3.85,7.43,8.12,7.43,2.68,0,3.85-1.93,6.47-2.48.28,1.38.83,2.06.83,3.44,0,2.41-2.75,3.23-2.75,5.64s3,2.75,4.4,4.68c1.58,2.13,2.55,4.68,5.23,4.68,1.38,0,2.06-.83,3.44-.83,5,0,4,9.08,8.94,9.08,3.51,0,4.2-4.68,7.7-4.68,1.44,0,2.2,1.58,2.2,3,0,1.86-1.1,2.82-1.1,4.68,0,3.44,4.82,3,8.26,3,0,4.4,2.34,7.84,6.6,9.08s7.22.21,11,2.48c15.2,0,20.57-15.68,35.77-15.68,2.34,0,3.85,2.34,3.85,4.68,4.06.76,6.4,0,10.46,0,2.2-2.2,4.2-3.3,7.29-3.3,2.55,0,4,.69,6.47.07.14.55.55,1,.55,1.58,0,4.13-5,4.26-8,7.09,4.82.83,7.57.07,12.38.07a7.93,7.93,0,0,1,2.75.83c-1.72,1.24-3.1,1.93-4.13,3.85h5.5v2.55c0,1.7-1.23,2.38-2.67,3-3.65-.46-6.38-1.72-10.26-3.66l.83-1.51h-7.7c0-1.58,1-2.55,2.2-3.44-3.65-.48-7.5.34-8.81-3-2.48,1-3.23,3.3-5.85,3.3h-1.86v-1.38a18.94,18.94,0,0,1,2.48-2.2c-3,1.44-4.33,3-7.5,3H187v-1.38c.69-1.79,2.13-2.2,3.58-3.44-1.58-.07-2.48-.14-4.06-.14-4.75,0-6.4,3.78-10,6.88-5.92,5.16-11.21,6.33-19,6.33-.55,0-.83-.55-1.38-.55-1.72,0-2.55.76-4.13,1.38l-.28-1.1-4.4,1.65h-2.48V171.7c-3.65.69-5.16,3.3-8.81,3.3a3.21,3.21,0,0,1-3.3-3c-2.75,0-6.88,1.1-6.88-1.65,0-2.06,3-2.34,3-4.4a4,4,0,0,0-3.85-4.13c-2.34,0-3.16,2.2-5.5,2.2-.55,0-.62-.76-1.1-.83l2.2-2.75c-.83-1.72-1.93-3-3.85-3s-3,1.93-5,1.93c-.83,0-1.31-.21-2.13-.28v-2.48l2.75-3.58-.55-1.1c-1.86-.21-4.4.21-4.4-1.65,0-.69.55-1,.55-1.65s-.41-1-.55-1.65H104c-1.38,0-2.06.83-3.44.83s-2-.07-3.23-.07v-4c0-2.27-2.34-3-4.4-3.92.55-1.51,1.79-1.93,2.2-3.58-2.27-.55-2.48-3-2.48-5.23h-8l-1.38-.83c.76-1.51,3-1.38,3-3,0-3-4.13-3.37-4.13-6.33,0,1.72-2.68.34-4.4,0,1.31-2.27,3.65-2.34,5-4.68l-.28-1.1c-1.79.69-3,1.65-5,1.65l.55-1.1a7.79,7.79,0,0,1-6.6,3c-.55,0-.89-.41-1.38-.55a3.6,3.6,0,0,0,1.65-2.2c-3.65.48-5.64,1.65-9.29,1.65A19.61,19.61,0,0,1,59.61,117.22Z"/><path class="cls-17" d="M40.08,113.64c-3.65,0-5.78,2.41-7.43,5.78l1.1.28c1.24-1.24,2.48-1.31,4.13-1.93l-5,3.85-.55,1.1,2.48-1.38-1.38,2.48c5.43-2.68,8.39-3.85,13.48-6.88-.55-1.38-2.13-1.38-3.58-1.38a11.64,11.64,0,0,0,3-.83C44.62,113.71,42.14,113.78,40.08,113.64Z"/><path class="cls-17" d="M51.08,123.27l1.1.83,4.68-.28c-2.82.55-3.92,1.72-6.6,2.75a19.36,19.36,0,0,0,6.6,0,12.11,12.11,0,0,0-2.75,1.1l-.55,1.1c4.61,0,6.74-3.16,11.35-3.16h6.53C69,122.52,65.53,123,61.54,123a14.59,14.59,0,0,0,6.33-1.38c-2.27-.28-3.51-.83-5.78-.83C57.69,120.8,55.28,121.9,51.08,123.27Z"/><path class="cls-17" d="M80.8,133.45c-1-.07-1.44-.28-2.41-.28a10.08,10.08,0,0,0-4.47,1H80.8Z"/><path class="cls-30" d="M121.8,52.55l-.14.69a2.75,2.75,0,0,1,1.51,1c-.41.24-.79.38-1,.83.28.14.48.41.83.41s.52-.17.83-.28a5.42,5.42,0,0,0,.55,2.06h.69c.89-1.51,2.61-2,2.61-3.71C127.72,51.18,124,51.69,121.8,52.55Z"/><path class="cls-30" d="M138.72,61.63A2,2,0,0,1,136.8,63v1.14c0,1.41,1.89,1.48,3.3,1.48a1.08,1.08,0,0,0,1-1.17C141.06,63,139.72,62.63,138.72,61.63Z"/><path class="cls-30" d="M149.46,89.56a7.19,7.19,0,0,0-1.2-.14,3.07,3.07,0,0,0-1.55.41c.48.55,1.38.62,1.38,1.38,0,.55-.45.72-.69,1.24l.83.14c.31-.28.52-.69,1-.69s.76.31,1.24.55h.69a6.72,6.72,0,0,0,.55-1.79C150.73,90.39,150,90.36,149.46,89.56Z"/><path class="cls-36" d="M150.42,54.89l-1.72-.07a11.18,11.18,0,0,1,0,1.86c1.38,0,2.13-.31,3.51-.41l.14-.62C151.66,55.62,151.11,54.89,150.42,54.89Z"/><path class="cls-36" d="M169.68,47.46l-.83-.41h-1.38c0,.55-.14.86-.14,1.41,0,1.1,1.38,1.1,1.93,2h1.1C170.44,49.35,169.75,48.6,169.68,47.46Z"/><path class="cls-36" d="M137.07,48.7c0,.31-.1.52-.14.83l.55.28h1.93a2.32,2.32,0,0,0-.55-.83"/><path class="cls-36" d="M180.69,64.11a3.3,3.3,0,0,0-3,2.2l1.1.55H180A5.83,5.83,0,0,1,180.69,64.11Z"/><path class="cls-36" d="M108.32,89c.45.62.76,1.38,1.55,1.38s1.07-.1,1.75-.14c.07-.45.28-.65.28-1.1A1.71,1.71,0,0,0,110,87.64C109.32,87.64,109,88.88,108.32,89Z"/><path class="cls-30" d="M167.34,78.21a.83.83,0,0,0-.83.76c0,.55.55.86,1.1,1a2.31,2.31,0,0,0-1.65,2.2,4,4,0,0,0,.28,1.1,8.55,8.55,0,0,1,2.48,0c-.28.41-.55.69-.55,1.17s.38.48.55.76h.69a15.19,15.19,0,0,0,.41-2.75l.55-.14c.52.41.72,1,1.38,1,.24,0,.31-.28.55-.28a11.2,11.2,0,0,0,.41-1.79c0-1.31-1.48-1.65-1.65-3Z"/><path class="cls-34" d="M227.63,39a1,1,0,0,0-.34-.7c-.67.69-.92,1.17-1.56,1.9.89-2.36,1.44-3.74,1.42-6.09a1.06,1.06,0,0,0-.68-1l-.45.29c0-1.45.09-2.26.09-3.7,0-.76-.12-1.4-.8-1.69a7.77,7.77,0,0,0-.33,1.37c0-3.44-.94-5.82-3.76-7.44a7.22,7.22,0,0,0-1.38,4.19c0,1,0,1.58,0,2.59a5.65,5.65,0,0,1-.4-.7l-.56.1c0,.93,0,1.45,0,2.37a29.74,29.74,0,0,0,.47,3.5c-.45,0-.67,0-1.12.08-1,.17-.55,1.57-.55,2.55a5.34,5.34,0,0,0,1,3.7c-.31,0-.51,0-.82,0a1.32,1.32,0,0,0-1,1.31c0,3,3.09,3.21,5.32,4.93.68.51,1.46-.8,2.13-1.57C226.19,43,227.65,41.47,227.63,39Z"/><path class="cls-30" d="M124,80.07c0,1.86,2.27,2.48,4.13,2.48.55,0,.89-.41,1.38-.55V78.14C127.24,78.14,124,77.8,124,80.07Z"/><path class="cls-30" d="M128.13,98c1.93,4,4.54,6.6,8.81,6.6,3,0,4.27-2.75,7.15-3.3-.28-3.85-1.65-6.05-1.65-9.91A29.74,29.74,0,0,0,139,90.8C133.91,90.8,132.81,96,128.13,98Z"/><path class="cls-30" d="M194.17,67.14v3.3h8.26v-5C199.4,65.21,197.2,66.72,194.17,67.14Z"/><path class="cls-30" d="M215.08,53.93l-2.2,3.3a16.18,16.18,0,0,0,5,1.65Z"/><path class="cls-30" d="M107.77,68l-.55,1.1h2.48a14.83,14.83,0,0,1,.28,1.72c0,1.79-.76,2.68-1.38,4.33a8.92,8.92,0,0,0,2.34.55c3.71,0,7.84-1.79,7.84-5.5,0-1.44-.62-2.13-.83-3.58C117,62.6,111.48,66.11,107.77,68Z"/><polygon class="cls-17" points="129.92 129.14 141.77 141.19 146.63 171.9 134.79 159.85 129.92 129.14"/></symbol></defs><title>01_modele_1col</title><g id="MODULE"><g id="CONTENT"><use width="272" height="272" transform="scale(2.1)" xlink:href="#illus-3"/></g></g></svg>