<svg xmlns="http://www.w3.org/2000/svg" xmlns:xlink="http://www.w3.org/1999/xlink" viewBox="0 0 571.99 571.99"><defs><style>.cls-1{fill:none;}.cls-2{fill:#ebece0;}.cls-10,.cls-12,.cls-13,.cls-16,.cls-17,.cls-19,.cls-2,.cls-20,.cls-21,.cls-23,.cls-24,.cls-25,.cls-26,.cls-27,.cls-28,.cls-3,.cls-30,.cls-31,.cls-32,.cls-4,.cls-5,.cls-6,.cls-7,.cls-8{fill-rule:evenodd;}.cls-3{fill:#e5e6da;}.cls-4{fill:#e0e1d6;}.cls-5{fill:#dbdbd0;}.cls-6{fill:#d5d6cb;}.cls-7{fill:#cfd0c6;}.cls-8{fill:#c9cac0;}.cls-9{fill:#58861e;}.cls-10{fill:#85b220;}.cls-11{fill:#6b9cd3;}.cls-12{fill:#9ebce3;}.cls-13{fill:#506aaf;}.cls-14{fill:#d3c068;}.cls-15{fill:#b29b00;}.cls-16,.cls-29{fill:#fff;}.cls-17,.cls-18{fill:#669c24;}.cls-19{fill:#e1d4b9;}.cls-20{fill:#b7b2a8;}.cls-21{fill:#c6b991;}.cls-22{fill:#a79c71;}.cls-23{fill:#7682a4;}.cls-24{fill:#355978;}.cls-25{fill:#d9dee9;}.cls-26{fill:#d4d5db;}.cls-27{fill:#807b82;}.cls-28{fill:#e2e3ea;}.cls-30{fill:#9da3be;}.cls-31{fill:#638e2f;}.cls-32{fill:#a98014;}</style><symbol id="illus-1" data-name="illus-1" viewBox="0 0 272 272"><rect class="cls-1" width="272" height="272"/><path class="cls-2" d="M5.15,187.09c-2.7-1.6-2.7-4.2,0-5.8l127.39-75.45a10.58,10.58,0,0,1,9.8,0l127.4,75.45c2.7,1.6,2.7,4.2,0,5.8L142.35,262.54a10.6,10.6,0,0,1-9.8,0Z"/><path class="cls-3" d="M7.33,187.11c-2.66-1.58-2.66-4.13,0-5.71L132.6,107.21a10.41,10.41,0,0,1,9.64,0L267.51,181.4c2.67,1.58,2.67,4.13,0,5.71L142.25,261.29a10.41,10.41,0,0,1-9.64,0Z"/><path class="cls-4" d="M9.52,187.12c-2.62-1.55-2.62-4.06,0-5.61l123.14-72.93a10.25,10.25,0,0,1,9.48,0l123.16,72.93c2.61,1.55,2.61,4.06,0,5.61L142.15,260a10.25,10.25,0,0,1-9.48,0Z"/><path class="cls-5" d="M11.71,187.13c-2.57-1.52-2.57-4,0-5.51l121-71.67a10.06,10.06,0,0,1,9.31,0l121,71.67c2.57,1.52,2.57,4,0,5.51L142,258.8a10,10,0,0,1-9.31,0Z"/><path class="cls-6" d="M13.9,187.15c-2.52-1.5-2.52-3.92,0-5.42l118.89-70.41a9.89,9.89,0,0,1,9.15,0l118.91,70.41c2.52,1.5,2.52,3.92,0,5.42L142,257.56a9.88,9.88,0,0,1-9.15,0Z"/><path class="cls-7" d="M16.08,187.16c-2.48-1.47-2.48-3.85,0-5.32l116.77-69.16a9.72,9.72,0,0,1,9,0l116.78,69.16c2.48,1.47,2.48,3.85,0,5.32L141.85,256.32a9.71,9.71,0,0,1-9,0Z"/><path class="cls-8" d="M18.27,187.17c-2.44-1.44-2.44-3.78,0-5.22L132.92,114a9.55,9.55,0,0,1,8.82,0l114.66,67.9c2.43,1.44,2.43,3.78,0,5.22l-114.65,67.9a9.53,9.53,0,0,1-8.82,0Z"/><path class="cls-9" d="M272,171.94,136,250.77v-13c21.07-5.17,34.9-33.13,34.9-33.13l-1.75.11L272,145.17Z"/><path class="cls-9" d="M0,171.94l136,78.83Z"/><polygon class="cls-10" points="136 66.13 272 145.17 136 224.21 0 145.16 136 66.13"/><polygon class="cls-11" points="136 224.21 136 238.09 0 159.05 0 145.16 136 224.21"/><path class="cls-12" d="M44.13,119.52c4.42,6.4,21.88,28.17,58.67,34.91,0,0,57.8,14.24,68,49.58L136,224.21l-136-79Z"/><path class="cls-13" d="M170.9,204.67s-13.83,28-34.9,33.13V224l34.74-20Z"/><polygon class="cls-14" points="136 238.09 136 250.77 0 171.94 0 159.05 136 238.09"/><path class="cls-15" d="M136,250.77v-13c15.11-3.71,26.5-19.14,31.73-27.57L272,149.8v22.15Z"/><path class="cls-16" d="M168.82,205.13l-2.38,1.38c-1.35-6.8-1.78-12.11-7.11-16.72-1.82-1.57-4.05-1.07-5.62-3-3-3.47-2.89-6.94-6.28-9.92-6.44-5.78-12.15-6.36-20.16-9.59-7.19-2.89-9.58-8.68-17.19-9.92C89.58,154,73.8,154.18,60.16,138.23c-6.29-7.38-14.77-9.28-17.14-18.06l4.42-2.56c1.91,2.14,2.51,6.12,4.46,9.06,4.13,6.28,9.26,7.44,15.21,11.9,9.09,6.78,14.79,12.89,26.2,12.89h9.75c5.7,0,7.85,4.46,13.3,6.28,7.85,2.56,13,2.56,19.5,7.6,2.31,1.74,2.56,4.46,5.29,5.62,8.51,3.72,11.08,9.42,18.51,14.88,6,4.38,9.59,9.34,9.59,16.86A7.34,7.34,0,0,1,168.82,205.13Z"/><polygon class="cls-17" points="158.01 170.62 135.2 102.86 251.55 133.28 266.38 141.91 252.22 150.79 226.1 162.69 158.01 170.62"/><path class="cls-18" d="M104.76,36.73a4.64,4.64,0,0,1-1.63-2.53C98.12,48.57,89,78.13,90.57,99.39c0,0,1.16,5.13,3.47,6.28H91.9l-1.49.66-1.49,1.16-1.49-.33-1.49-.5L84,107l-.66-1-4.13.49s3.47-1,4.63-5.78c0,0-.46-30.63,17.91-71.53-2.53-1.72-5.62-1.9-6.16-4.93a1.09,1.09,0,0,1,.75-1.32c.3-.05.5,0,.81,0a6.27,6.27,0,0,1-1.66-3.7c-.17-1-.87-2.38.11-2.55.44-.08.67,0,1.11-.08a33.17,33.17,0,0,1-1.07-3.5l-.42-2.37c.71.18.88.35,1.06.6l-.46-2.59a6.47,6.47,0,0,1,.67-4.2c3.1,1.62,4.42,4,5,7.44a6.77,6.77,0,0,1,.1-1.37,1.93,1.93,0,0,1,1.08,1.69c.26,1.44.29,2.26.54,3.7.86-.09,1.16.21,1.26.74l.15,1.13a9,9,0,0,1,1.8-4.78c.69-1.07,1.26-3,2.32-2.28.48.31.65.55,1.11.89a40.84,40.84,0,0,1,2-4.18l1.67-2.57A2,2,0,0,1,114,6.4l1.82-2.81A8.28,8.28,0,0,1,120.1.26a11,11,0,0,1,.48,6.29.78.78,0,0,1,1.08.35c.26.5.29.8.52,1.32A41.53,41.53,0,0,1,126,5.62l2.73-1.39a2,2,0,0,1-.34,1.52l3-1.52a8.26,8.26,0,0,1,5.36-.75c-.82,4.37-3.23,6.87-7.19,8.89a8.45,8.45,0,0,1,1.7-.39c-.09,1-.77,1.5-1.66,2-1.57.8-2.52,1.14-4,1.89l2-.45c-.18.91-.39,1.14-.69,1.39l3.26-.75a8.24,8.24,0,0,1,5.38.57c-1.85,4.05-4.79,5.89-9.12,6.89a8.42,8.42,0,0,1,1.75,0A2.46,2.46,0,0,1,126.09,25l-1.61.33a11.94,11.94,0,0,1,1.69.12l3,.43c-.5.78-.77.92-1.15,1.05l3.32.46a8.26,8.26,0,0,1,4.82,2.46c-3.18,3.12-6.59,3.78-11,3.16a8.52,8.52,0,0,1,1.62.66,2.46,2.46,0,0,1-2.48.65c-1.85-.26-2.84-.54-4.7-.8-.22,1.07-.72,1.32-1.38,1.23a13.75,13.75,0,0,1-3.63-1,4.29,4.29,0,0,1-.83,1.06,28.68,28.68,0,0,1,2.76,1.73l1.66,1.35a1.36,1.36,0,0,1-1.06.21L119,39.56a5.76,5.76,0,0,1,2,3.21c-3,.72-5.31-.11-7.72-2.06a6.07,6.07,0,0,1,.74,1,1.72,1.72,0,0,1-1.72-.5c-1-.82-1.51-1.35-2.52-2.17-.52.56-.91.53-1.27.24a12.54,12.54,0,0,1-3.29-4.31c.09.8.25,1.22.28,2ZM227.15,80.86a5.3,5.3,0,0,1-3.34-2.73c-4.23,11.46-16,45.91-14.23,69.85,0,0,1.16,5.12,3.47,6.28H210.9l-1.49.66-1.49,1.16-1.49-.33-1.49-.5-2,.33-.66-1-4.13.49s3.47-1,4.63-5.79c0,0,0-1.78.19-5.06l-45.75,27.08-10.7-6.22-13.1-7.61L95.39,135.37V91.91l-1.84-1.07V88.11C118.1,43,118.1,43,118.1,43l30.08,14L210.32,93v2.73l-3.42-1.57v24.57a218.82,218.82,0,0,1,13.81-40.9c-2.53-1.72-5.62-1.9-6.16-4.93a1.08,1.08,0,0,1,.75-1.31c.3-.05.51,0,.81,0a6.28,6.28,0,0,1-1.66-3.7c-.17-1-.87-2.38.11-2.55.44-.08.67,0,1.11-.08a33.05,33.05,0,0,1-1.07-3.5l-.42-2.37c.71.18.88.35,1.06.6l-.46-2.59a6.44,6.44,0,0,1,.67-4.19c3.1,1.62,4.42,4,5,7.44a6.45,6.45,0,0,1,.1-1.37,1.93,1.93,0,0,1,1.08,1.69c.26,1.45.28,2.26.54,3.7a4.74,4.74,0,0,0,.42-2c.06-1.27-.4-3.2.87-3.13.56,0,.84.15,1.4.22a41.18,41.18,0,0,1-.32-4.64l.16-3.07c.83.43,1,.69,1.15,1l.18-3.35a8.26,8.26,0,0,1,2-5c3.38,2.9,4.33,6.23,4.1,10.67a8.36,8.36,0,0,1,.51-1.67,1.87,1.87,0,0,1,.75,1c.43-.82.9-1.49,1.61-1.05.48.3.66.54,1.12.87a41.12,41.12,0,0,1,2-4.22l1.63-2.6a2,2,0,0,1,.49,1.47L242,46.33a8.25,8.25,0,0,1,4.21-3.4c1.55,4.17.77,7.55-1.58,11.32A8.36,8.36,0,0,1,245.93,53a2.46,2.46,0,0,1-.42,2.53c-1,1.59-1.65,2.38-2.64,4,.76.35.83.63.83.91a17.35,17.35,0,0,1,3.06-1.09l3-.69c-.19.91-.39,1.14-.69,1.39l3.26-.75a8.23,8.23,0,0,1,5.38.57c-1.85,4-4.79,5.89-9.12,6.88a8.39,8.39,0,0,1,1.75,0,2.46,2.46,0,0,1-2.08,1.49c-1.82.42-2.85.51-4.67.93.18,1.08-.2,1.5-.85,1.65-.69.44-.79.69-.86,1.09a41.32,41.32,0,0,1,4.65.09l3,.43c-.5.79-.77.92-1.15,1l3.32.47a8.24,8.24,0,0,1,4.82,2.46c-3.18,3.11-6.59,3.78-11,3.16a8.5,8.5,0,0,1,1.62.65,2.46,2.46,0,0,1-2.48.65l-2-.33a7.39,7.39,0,0,1-3.36.71,1.65,1.65,0,0,1-.74.05,15.35,15.35,0,0,1-1.9-.38,4.88,4.88,0,0,1,.93.5,1.72,1.72,0,0,1-1.77.27c-1.19-.3-1.86-.55-3-.85-.45.67-.81.81-1.27.7A12.53,12.53,0,0,1,226.79,79c.41.69.74,1,1.1,1.7A1.17,1.17,0,0,1,227.15,80.86Z"/><polygon class="cls-19" points="95.39 84.79 157.24 120.74 157.24 171.32 95.39 135.37 95.39 84.79"/><polygon class="cls-20" points="95.39 87.74 157.24 123.69 157.24 126.42 95.39 90.47 95.39 87.74"/><polygon class="cls-21" points="206.9 91.34 179.95 78.6 157.24 120.74 157.24 171.32 206.9 141.93 206.9 91.34"/><polygon class="cls-22" points="180.04 83.18 157.24 125.04 157.24 123.4 179.95 81.7 206.9 94.11 206.9 95.55 180.04 83.18"/><polygon class="cls-23" points="93.55 88.17 155.4 124.11 179.95 78.97 118.1 43.03 93.55 88.17"/><polygon class="cls-24" points="148.18 57.06 210.41 93 179.95 78.97 118.1 43.03 148.18 57.06"/><polygon class="cls-16" points="93.55 88.11 155.4 124.06 155.4 126.79 93.55 90.84 93.55 88.11"/><polygon class="cls-25" points="179.95 78.97 155.4 124.06 155.4 126.79 179.95 81.7 179.95 78.97"/><polygon class="cls-25" points="179.95 78.97 210.32 92.96 210.32 95.68 179.95 81.7 179.95 78.97"/><polygon class="cls-26" points="101.23 110.46 124.39 123.93 124.39 142.88 123.89 143.19 123.89 124.24 100.74 110.79 101.23 110.46"/><polygon class="cls-16" points="100.72 110.77 123.89 124.24 123.89 143.19 100.72 129.72 100.72 110.77"/><polygon class="cls-27" points="101.42 112.14 123.18 124.78 123.18 142.09 101.42 129.45 101.42 112.14"/><polygon class="cls-28" points="124.38 123.96 123.89 124.24 100.74 110.79 101.23 110.46 124.38 123.96"/><polygon class="cls-29" points="106.31 132.84 106.09 132.84 105.45 132.47 105.45 113.52 106.31 114.03 106.31 132.84"/><polygon class="cls-29" points="112.41 136.36 112.14 136.36 111.55 136.01 111.55 117.07 112.41 117.57 112.41 136.36"/><polygon class="cls-29" points="118.51 139.88 118.2 139.88 117.64 139.56 117.64 120.61 118.51 121.11 118.51 139.88"/><polygon class="cls-29" points="123.79 129.65 100.72 116.86 100.72 116.61 101.36 116.26 123.89 128.75 123.89 129.58 123.79 129.65"/><polygon class="cls-29" points="123.79 134.27 100.72 121.48 100.72 121.23 101.36 120.88 123.89 133.37 123.89 134.19 123.79 134.27"/><polygon class="cls-29" points="123.79 138.89 100.72 126.1 100.72 125.85 101.36 125.5 123.89 137.98 123.89 138.82 123.79 138.89"/><polygon class="cls-26" points="133.95 126.08 146.94 133.76 146.94 164.86 146.43 165.17 146.43 134.08 133.47 126.41 133.95 126.08"/><polygon class="cls-16" points="133.44 126.39 146.43 134.08 146.43 165.17 133.44 157.49 133.44 126.39"/><polygon class="cls-26" points="194.79 115.02 171.62 129.65 171.62 148.59 172.13 148.88 172.13 129.93 195.28 115.33 194.79 115.02"/><polygon class="cls-16" points="195.3 115.31 172.13 129.93 172.13 148.88 195.3 134.26 195.3 115.31"/><polygon class="cls-27" points="194.6 116.71 172.84 130.44 172.84 147.76 194.6 134.03 194.6 116.71"/><polygon class="cls-28" points="171.64 129.68 172.13 129.93 195.28 115.33 194.79 115.02 171.64 129.68"/><polygon class="cls-29" points="189.7 137.66 189.93 137.65 190.57 137.24 190.57 118.3 189.7 118.84 189.7 137.66"/><polygon class="cls-29" points="183.61 141.48 183.88 141.47 184.47 141.09 184.47 122.14 183.61 122.69 183.61 141.48"/><polygon class="cls-29" points="177.51 145.31 177.82 145.29 178.38 144.94 178.38 125.99 177.51 126.54 177.51 145.31"/><polygon class="cls-29" points="172.23 135.34 195.3 121.4 195.3 121.15 194.66 120.82 172.13 134.44 172.13 135.27 172.23 135.34"/><polygon class="cls-29" points="172.23 139.96 195.3 126.02 195.3 125.77 194.66 125.44 172.13 139.06 172.13 139.89 172.23 139.96"/><polygon class="cls-29" points="172.23 144.58 195.3 130.63 195.3 130.39 194.66 130.06 172.13 143.68 172.13 144.51 172.23 144.58"/><polygon class="cls-30" points="96.36 89.8 121.41 44.95 122.9 45.81 97.85 90.66 96.36 89.8"/><polygon class="cls-30" points="100.25 92.06 125.3 47.21 126.79 48.08 101.74 92.92 100.25 92.06"/><polygon class="cls-30" points="104.14 94.32 129.19 49.47 130.68 50.34 105.63 95.19 104.14 94.32"/><polygon class="cls-30" points="108.03 96.58 133.08 51.73 134.57 52.6 109.52 97.45 108.03 96.58"/><polygon class="cls-30" points="111.92 98.84 136.97 53.99 138.46 54.86 113.41 99.71 111.92 98.84"/><polygon class="cls-30" points="115.81 101.1 140.86 56.25 142.35 57.12 117.3 101.97 115.81 101.1"/><polygon class="cls-30" points="119.7 103.36 144.75 58.52 146.24 59.38 121.19 104.23 119.7 103.36"/><polygon class="cls-30" points="123.59 105.63 148.64 60.78 150.13 61.64 125.08 106.49 123.59 105.63"/><polygon class="cls-30" points="127.48 107.89 152.53 63.04 154.02 63.9 128.97 108.75 127.48 107.89"/><polygon class="cls-30" points="131.37 110.15 156.42 65.3 157.91 66.16 132.86 111.01 131.37 110.15"/><polygon class="cls-30" points="135.26 112.41 160.31 67.56 161.8 68.42 136.75 113.27 135.26 112.41"/><polygon class="cls-30" points="139.15 114.67 164.2 69.82 165.69 70.69 140.64 115.53 139.15 114.67"/><polygon class="cls-30" points="143.04 116.93 168.09 72.08 169.58 72.94 144.53 117.8 143.04 116.93"/><polygon class="cls-30" points="146.93 119.19 171.98 74.34 173.47 75.21 148.42 120.06 146.93 119.19"/><polygon class="cls-30" points="150.82 121.45 175.87 76.6 177.36 77.47 152.31 122.31 150.82 121.45"/><path class="cls-31" d="M119.44,21.18a1.67,1.67,0,0,0,.69-.83c-1-.42-1.69-.45-2.78-.8,3.06-.29,4.86-.42,7.56-1.79a1.69,1.69,0,0,0,.94-1.43l-.51-.37c1.66-.85,2.64-1.19,4.31-2,.88-.45,1.57-1,1.66-2a8.45,8.45,0,0,0-1.7.39c4-2,6.37-4.51,7.19-8.89a8.26,8.26,0,0,0-5.36.75l-3,1.52a8.64,8.64,0,0,1,.66-.89l-.32-.63L126,5.62a41.53,41.53,0,0,0-3.86,2.6c-.22-.52-.26-.82-.52-1.32-.58-1.13-2,.24-3.15.81a8,8,0,0,0-3.89,3.41c-.15-.36-.16-.63-.34-1a1.38,1.38,0,0,0-1.88-.43c-3.49,1.78-2.56,5.62-3.71,9.34-.34,1.12,1.46,1.32,2.6,1.69C114.33,21.72,116.61,22.62,119.44,21.18Z"/><path class="cls-31" d="M114.44,29.55a1.67,1.67,0,0,0,.86-.63c-.91-.66-1.53-.84-2.51-1.45,3,.46,4.82.77,7.77.09a1.68,1.68,0,0,0,1.25-1.16l-.4-.49c1.82-.42,2.85-.52,4.67-.94a2.46,2.46,0,0,0,2.08-1.49,8.42,8.42,0,0,0-1.75,0c4.33-1,7.27-2.84,9.12-6.89a8.24,8.24,0,0,0-5.38-.57l-3.26.75a8.11,8.11,0,0,1,.85-.7l-.16-.69-3,.69a41.32,41.32,0,0,0-4.38,1.59c-.09-.56-.05-.86-.18-1.41-.29-1.24-2-.26-3.25,0a8,8,0,0,0-4.6,2.36,10.16,10.16,0,0,0-.09-1,1.39,1.39,0,0,0-1.72-.87c-3.81.88-3.84,4.83-5.86,8.16-.6,1,1.1,1.63,2.12,2.26C109.35,28.84,111.34,30.26,114.44,29.55Z"/><path class="cls-32" d="M79.17,106.49s3.47-1,4.63-5.78c0,0-.49-32.4,19.5-75h3S88.43,70.3,90.57,99.39c0,0,1.16,5.13,3.47,6.28H91.9l-1.49.66-1.49,1.16-1.49-.33-1.49-.5L84,107l-.66-1Z"/><path class="cls-31" d="M111.84,34.38a1.67,1.67,0,0,0,1-.28c-.62-.94-1.13-1.33-1.82-2.25,2.67,1.52,4.22,2.44,7.22,2.87a1.68,1.68,0,0,0,1.59-.63l-.2-.6c1.85.26,2.85.54,4.7.8a2.46,2.46,0,0,0,2.48-.65,8.52,8.52,0,0,0-1.62-.66c4.4.62,7.81,0,11-3.16a8.26,8.26,0,0,0-4.82-2.46l-3.32-.46a8.45,8.45,0,0,1,1-.35l.1-.7-3-.43a41.52,41.52,0,0,0-4.66-.08c.11-.55.26-.82.34-1.38.18-1.26-1.79-1-3-1.14a8,8,0,0,0-5.14.56,10.24,10.24,0,0,0,.28-1A1.38,1.38,0,0,0,112.66,21c-3.88-.55-5.32,3.13-8.4,5.52-.92.73.44,1.91,1.16,2.87C107.35,31.9,108.7,33.94,111.84,34.38Z"/><path class="cls-31" d="M113.93,24.27a1.67,1.67,0,0,0,.18-1.06c-1.11.16-1.69.46-2.81.7,2.5-1.78,4-2.79,5.65-5.33a1.68,1.68,0,0,0,.09-1.7l-.63-.07c1-1.57,1.69-2.35,2.71-3.92a2.46,2.46,0,0,0,.46-2.52,8.5,8.5,0,0,0-1.28,1.19c2.42-3.73,3.26-7.09,1.78-11.29a8.28,8.28,0,0,0-4.27,3.33L114,6.4a8.13,8.13,0,0,1,.12-1.1l-.59-.38-1.67,2.57a40.84,40.84,0,0,0-2,4.18c-.46-.34-.63-.58-1.11-.89-1.06-.69-1.63,1.21-2.32,2.28A8,8,0,0,0,104.74,18a9.63,9.63,0,0,0-.78-.68,1.38,1.38,0,0,0-1.84.57c-2.13,3.28.59,6.15,1.45,9.94.27,1.14,1.92.41,3.1.16C109.78,27.29,112.2,26.93,113.93,24.27Z"/><path class="cls-31" d="M105.77,21.61a1.32,1.32,0,0,0-.46-.71c-.55.69-.72,1.17-1.24,1.91a14,14,0,0,0,.39-6.09,1.33,1.33,0,0,0-.86-1l-.4.3c-.25-1.45-.28-2.26-.54-3.7a1.93,1.93,0,0,0-1.08-1.69,6.77,6.77,0,0,0-.1,1.37c-.61-3.43-1.93-5.82-5-7.44a6.47,6.47,0,0,0-.67,4.2l.46,2.59a6.83,6.83,0,0,1-.52-.7l-.55.1.42,2.37a33.17,33.17,0,0,0,1.07,3.5c-.44,0-.67,0-1.11.08-1,.17-.28,1.57-.11,2.55a6.27,6.27,0,0,0,1.66,3.7c-.31,0-.51,0-.81,0a1.09,1.09,0,0,0-.75,1.32c.53,3,3.63,3.21,6.16,4.93.77.51,1.32-.8,1.86-1.56C105,25.57,106.2,24.06,105.77,21.61Z"/><path class="cls-31" d="M104.76,36.73a1.19,1.19,0,0,0,.73.2c0-.78-.2-1.21-.28-2a12.54,12.54,0,0,0,3.29,4.31,1.18,1.18,0,0,0,1.18.19l.09-.43c1,.82,1.51,1.35,2.52,2.17a1.72,1.72,0,0,0,1.72.5,6.07,6.07,0,0,0-.74-1c2.41,2,4.69,2.78,7.72,2.06a5.76,5.76,0,0,0-2-3.21l-1.82-1.47a5.92,5.92,0,0,1,.75.17l.31-.38-1.66-1.35a28.68,28.68,0,0,0-2.76-1.73c.27-.29.45-.4.7-.7.56-.69-.73-1.22-1.41-1.78a5.55,5.55,0,0,0-3.28-1.51c.19-.2.36-.28.53-.49a1,1,0,0,0-.26-1.32c-2.13-1.72-4.32,0-7,.28-.81.1-.42,1.31-.34,2.14C103,33.62,103,35.33,104.76,36.73Z"/><path class="cls-31" d="M240.51,67a1.67,1.67,0,0,0,.16-1.06c-1.11.18-1.68.49-2.79.75,2.47-1.82,3.95-2.86,5.55-5.43a1.68,1.68,0,0,0,.06-1.7l-.63-.06c1-1.59,1.66-2.38,2.64-4a2.46,2.46,0,0,0,.42-2.53,8.36,8.36,0,0,0-1.26,1.21c2.35-3.77,3.13-7.15,1.58-11.32a8.25,8.25,0,0,0-4.21,3.4l-1.78,2.84a8.78,8.78,0,0,1,.11-1.1l-.6-.37-1.63,2.6a41.12,41.12,0,0,0-2,4.22c-.46-.33-.64-.57-1.12-.87C234,53,233.45,54.89,232.78,56a8,8,0,0,0-1.58,4.92,9.71,9.71,0,0,0-.8-.66,1.38,1.38,0,0,0-1.83.6c-2.07,3.32.7,6.14,1.63,9.91.29,1.14,1.93.37,3.1.11C236.41,70.13,238.82,69.73,240.51,67Z"/><path class="cls-31" d="M236.58,72.85a1.68,1.68,0,0,0,.87-.63c-.92-.66-1.53-.84-2.51-1.45,3,.46,4.82.77,7.77.09A1.7,1.7,0,0,0,244,69.7l-.4-.49c1.82-.42,2.85-.51,4.67-.93a2.46,2.46,0,0,0,2.08-1.49,8.39,8.39,0,0,0-1.75,0c4.33-1,7.28-2.84,9.12-6.88a8.23,8.23,0,0,0-5.38-.57l-3.26.75a8.08,8.08,0,0,1,.85-.7l-.16-.69-3,.69a41.36,41.36,0,0,0-4.37,1.59c-.09-.56-.06-.86-.18-1.41-.29-1.24-2-.26-3.25,0a8,8,0,0,0-4.6,2.37,10.06,10.06,0,0,0-.09-1,1.38,1.38,0,0,0-1.72-.87c-3.81.88-3.84,4.84-5.86,8.16-.6,1,1.1,1.63,2.12,2.26C231.49,72.14,233.48,73.56,236.58,72.85Z"/><path class="cls-32" d="M198.17,155.09s3.47-1,4.63-5.79c0,0-.49-32.39,19.5-75h3s-17.85,44.62-15.7,73.72c0,0,1.16,5.12,3.47,6.28H210.9l-1.49.66-1.49,1.16-1.49-.33-1.49-.5-2,.33-.66-1Z"/><path class="cls-31" d="M232.16,81a1.66,1.66,0,0,0,1-.28c-.62-.94-1.13-1.34-1.82-2.25,2.67,1.52,4.22,2.44,7.22,2.87a1.69,1.69,0,0,0,1.58-.63l-.2-.6c1.85.26,2.84.54,4.7.8a2.46,2.46,0,0,0,2.48-.65,8.5,8.5,0,0,0-1.62-.65c4.4.62,7.81,0,11-3.16A8.24,8.24,0,0,0,251.71,74l-3.32-.47a9.16,9.16,0,0,1,1-.35l.1-.7-3-.43a41.32,41.32,0,0,0-4.65-.09c.11-.55.26-.82.34-1.38.18-1.26-1.79-1-3-1.14A8,8,0,0,0,234,70a9.41,9.41,0,0,0,.28-1A1.38,1.38,0,0,0,233,67.57c-3.88-.54-5.32,3.13-8.4,5.52-.92.72.44,1.92,1.16,2.87C227.67,78.5,229,80.55,232.16,81Z"/><path class="cls-31" d="M234.74,68.54a1.69,1.69,0,0,0-.37-1c-.89.69-1.23,1.24-2.09,2,1.28-2.79,2.07-4.41,2.23-7.44a1.69,1.69,0,0,0-.77-1.52l-.58.25c.1-1.87.29-2.88.39-4.75a2.46,2.46,0,0,0-.86-2.41,8.36,8.36,0,0,0-.51,1.67c.23-4.44-.72-7.77-4.1-10.67a8.26,8.26,0,0,0-2,5L225.88,53a8.42,8.42,0,0,1-.44-1l-.71,0c-.06,1.2-.09,1.87-.16,3.07a41.18,41.18,0,0,0,.32,4.64c-.56-.06-.84-.18-1.4-.22-1.27-.06-.8,1.87-.87,3.13a8,8,0,0,0,1,5.07,9.9,9.9,0,0,0-1-.2,1.38,1.38,0,0,0-1.31,1.42c-.21,3.91,3.59,5,6.23,7.89.8.85,1.87-.61,2.76-1.41C232.66,73.23,234.58,71.71,234.74,68.54Z"/><path class="cls-31" d="M224.77,70.2a1.34,1.34,0,0,0-.46-.71c-.55.69-.72,1.17-1.24,1.9a14,14,0,0,0,.39-6.09,1.33,1.33,0,0,0-.86-1l-.4.29c-.26-1.45-.28-2.26-.54-3.7a1.93,1.93,0,0,0-1.08-1.69,6.45,6.45,0,0,0-.1,1.37c-.61-3.44-1.93-5.82-5-7.44a6.44,6.44,0,0,0-.67,4.19c.18,1,.28,1.58.46,2.59a6.83,6.83,0,0,1-.52-.7l-.55.1.42,2.37a33.05,33.05,0,0,0,1.07,3.5c-.44,0-.67,0-1.11.08-1,.17-.28,1.57-.11,2.55a6.28,6.28,0,0,0,1.66,3.7c-.31,0-.51,0-.81,0a1.08,1.08,0,0,0-.75,1.31c.53,3,3.63,3.21,6.16,4.93.77.51,1.32-.8,1.86-1.56C224,74.16,225.2,72.65,224.77,70.2Z"/><path class="cls-31" d="M227.15,80.86a1.17,1.17,0,0,0,.74-.12c-.36-.7-.69-1-1.1-1.7a12.53,12.53,0,0,0,4.81,2.52,1.18,1.18,0,0,0,1.15-.32l-.09-.43c1.26.32,1.93.58,3.2.9a1.72,1.72,0,0,0,1.77-.27,5.83,5.83,0,0,0-1.08-.57c3,.75,5.43.54,7.87-1.39a5.76,5.76,0,0,0-3.17-2.06L239,76.85a6,6,0,0,1,.76-.17l.12-.48-2.08-.52a28.6,28.6,0,0,0-3.23-.4c.12-.38.24-.55.34-.93.21-.86-1.17-.8-2-1a5.56,5.56,0,0,0-3.61,0c.09-.26.2-.41.27-.67a1,1,0,0,0-.8-1.09c-2.66-.66-3.93,1.79-6.24,3.22-.7.43.17,1.36.6,2.08C224.21,78.81,225,80.33,227.15,80.86Z"/></symbol></defs><title>01_modele_1col</title><g id="MODULE"><g id="CONTENT"><use id="illus-1-3" data-name="illus-1" width="272" height="272" transform="scale(2.1)" xlink:href="#illus-1"/></g></g></svg>