<svg xmlns="http://www.w3.org/2000/svg" xmlns:xlink="http://www.w3.org/1999/xlink" viewBox="0 0 571.99 571.99"><defs><style>.cls-1{fill:none;}.cls-2{fill:#ebece0;}.cls-10,.cls-12,.cls-13,.cls-16,.cls-17,.cls-18,.cls-19,.cls-2,.cls-20,.cls-22,.cls-23,.cls-24,.cls-25,.cls-26,.cls-27,.cls-29,.cls-3,.cls-30,.cls-31,.cls-32,.cls-33,.cls-35,.cls-4,.cls-5,.cls-6,.cls-7,.cls-8{fill-rule:evenodd;}.cls-3{fill:#e5e6da;}.cls-4{fill:#e0e1d6;}.cls-5{fill:#dbdbd0;}.cls-6{fill:#d5d6cb;}.cls-7{fill:#cfd0c6;}.cls-8{fill:#c9cac0;}.cls-9{fill:#58861e;}.cls-10{fill:#85b220;}.cls-11{fill:#6b9cd3;}.cls-12,.cls-34{fill:#9ebce3;}.cls-13{fill:#506aaf;}.cls-14{fill:#d3c068;}.cls-15{fill:#b29b00;}.cls-16,.cls-28{fill:#fff;}.cls-17{fill:#669c24;}.cls-18{fill:#e1d4b9;}.cls-19{fill:#b7b2a8;}.cls-20{fill:#c6b991;}.cls-21{fill:#a79c71;}.cls-22{fill:#7682a4;}.cls-23{fill:#355978;}.cls-24{fill:#d9dee9;}.cls-25{fill:#d4d5db;}.cls-26{fill:#1d1d1b;}.cls-27{fill:#e2e3ea;}.cls-29{fill:#807b82;}.cls-30{fill:#9da3be;}.cls-31{fill:#638e2f;}.cls-32{fill:#a98014;}.cls-33{fill:#28455d;}.cls-35{fill:#534f3c;}</style><symbol id="illus-4" data-name="illus-4" viewBox="0 0 272 272"><rect class="cls-1" width="272" height="272"/><path class="cls-2" d="M4.21,187.09c-2.7-1.6-2.7-4.2,0-5.8L131.6,105.84a10.58,10.58,0,0,1,9.8,0l127.4,75.45c2.7,1.6,2.7,4.2,0,5.8L141.42,262.54a10.59,10.59,0,0,1-9.8,0Z"/><path class="cls-3" d="M6.4,187.11c-2.66-1.58-2.66-4.13,0-5.71l125.26-74.19a10.42,10.42,0,0,1,9.64,0L266.57,181.4c2.67,1.58,2.67,4.13,0,5.71L141.32,261.29a10.4,10.4,0,0,1-9.64,0Z"/><path class="cls-4" d="M8.59,187.12c-2.62-1.55-2.62-4.06,0-5.61l123.14-72.93a10.25,10.25,0,0,1,9.48,0l123.15,72.93c2.61,1.55,2.61,4.06,0,5.61L141.22,260.05a10.25,10.25,0,0,1-9.48,0Z"/><path class="cls-5" d="M10.77,187.13c-2.57-1.52-2.57-4,0-5.51l121-71.67a10.06,10.06,0,0,1,9.31,0l121,71.67c2.57,1.52,2.57,4,0,5.51l-121,71.67a10.06,10.06,0,0,1-9.31,0Z"/><path class="cls-6" d="M13,187.14c-2.52-1.5-2.52-3.92,0-5.42l118.89-70.41a9.88,9.88,0,0,1,9.15,0l118.91,70.41c2.52,1.5,2.52,3.92,0,5.42L141,257.56a9.89,9.89,0,0,1-9.15,0Z"/><path class="cls-7" d="M15.15,187.16c-2.48-1.47-2.48-3.85,0-5.32l116.77-69.16a9.73,9.73,0,0,1,9,0l116.78,69.16c2.48,1.47,2.48,3.85,0,5.32L140.92,256.32a9.72,9.72,0,0,1-9,0Z"/><path class="cls-8" d="M17.34,187.17c-2.44-1.44-2.44-3.78,0-5.22L132,114a9.55,9.55,0,0,1,8.82,0L255.46,182c2.43,1.44,2.43,3.78,0,5.22l-114.65,67.9a9.51,9.51,0,0,1-8.82,0Z"/><path class="cls-9" d="M272,173.78,136,252.6v-13c21.07-5.17,34.9-33.13,34.9-33.13l-1.75.1L272,147Z"/><path class="cls-9" d="M0,173.77,136,252.6Z"/><polygon class="cls-10" points="136 67.96 272 147 136 226.04 0 147 136 67.96"/><polygon class="cls-11" points="136 226.04 136 239.93 0 160.88 0 147 136 226.04"/><path class="cls-12" d="M44.13,121.35c4.42,6.4,21.88,28.17,58.67,34.91,0,0,57.8,14.24,68,49.58L136,226,0,147Z"/><path class="cls-13" d="M170.9,206.5s-13.83,28-34.9,33.13V225.83l34.74-20Z"/><polygon class="cls-14" points="136 239.93 136 252.6 0 173.77 0 160.88 136 239.93"/><path class="cls-15" d="M136,252.6v-13c15.11-3.71,26.5-19.14,31.73-27.57L272,151.63v22.15Z"/><path class="cls-16" d="M168.82,207l-2.38,1.38c-1.35-6.81-1.78-12.11-7.11-16.72-1.82-1.57-4.05-1.08-5.62-3-3-3.47-2.89-6.94-6.28-9.92-6.44-5.78-12.15-6.36-20.16-9.58-7.19-2.89-9.58-8.68-17.19-9.92-20.49-3.39-41.51-3.78-55.14-19.73C48.64,132.13,45.39,130.78,43,122l4.42-2.57c1.91,2.15,2.51,6.12,4.46,9.06,4.13,6.28,9.26,7.44,15.21,11.9,9.09,6.78,14.79,12.89,26.2,12.89h9.75c5.7,0,7.85,4.46,13.3,6.28,7.85,2.56,13,2.56,19.5,7.61,2.31,1.73,2.56,4.46,5.29,5.62,8.51,3.71,11.08,9.42,18.51,14.87,6,4.38,9.59,9.34,9.59,16.86A7.38,7.38,0,0,1,168.82,207Z"/><polygon class="cls-17" points="158.01 172.46 135.2 104.69 251.55 135.12 266.38 143.74 252.22 152.62 226.1 164.52 158.01 172.46"/><polygon class="cls-18" points="95.39 86.62 157.24 122.57 157.24 173.15 95.39 137.21 95.39 86.62"/><polygon class="cls-19" points="95.39 89.58 157.24 125.52 157.24 128.25 95.39 92.31 95.39 89.58"/><polygon class="cls-20" points="207.38 95.2 179.95 80.44 157.24 122.57 157.24 173.15 206.9 143.76 207.38 95.2"/><polygon class="cls-21" points="180.04 85.01 157.24 126.88 157.24 125.23 179.95 83.53 226.37 100.98 226.37 102.42 180.04 85.01"/><polygon class="cls-22" points="98.41 83.65 155.4 125.94 179.95 80.8 118.1 44.86 98.41 83.65"/><polygon class="cls-23" points="148.18 58.89 216.83 80.69 179.95 80.8 118.1 44.86 148.18 58.89"/><polygon class="cls-16" points="93.55 89.94 155.4 125.89 155.4 128.62 93.55 92.67 93.55 89.94"/><polygon class="cls-24" points="179.95 80.8 155.4 125.89 155.4 128.62 179.95 83.53 179.95 80.8"/><polygon class="cls-24" points="179.95 80.8 216.73 80.64 216.73 83.37 179.95 83.53 179.95 80.8"/><polygon class="cls-25" points="101.23 112.29 124.39 125.76 124.39 144.71 123.89 145.02 123.89 126.07 100.74 112.63 101.23 112.29"/><polygon class="cls-16" points="100.72 112.6 123.89 126.07 123.89 145.02 100.72 131.56 100.72 112.6"/><polygon class="cls-26" points="101.42 113.97 123.18 126.62 123.18 143.93 101.42 131.28 101.42 113.97"/><polygon class="cls-27" points="124.38 125.79 123.89 126.07 100.74 112.63 101.23 112.29 124.38 125.79"/><polygon class="cls-28" points="109.47 132.75 109.26 132.84 108.52 132.76 100.82 115.45 101.81 115.56 109.47 132.75"/><polygon class="cls-28" points="114.29 137.49 114.03 137.54 113.36 137.34 109.11 118.88 110.06 119.17 114.29 137.49"/><polygon class="cls-28" points="110.27 142.55 110.04 142.35 109.83 141.74 122.26 127.44 122.58 128.38 110.27 142.55"/><polygon class="cls-28" points="124.09 125.72 97.91 128.93 97.76 128.72 98.07 128.06 123.64 124.92 124.13 125.6 124.09 125.72"/><polygon class="cls-28" points="124.75 132.43 98.64 128.76 98.55 128.52 99.01 127.97 124.52 131.56 124.82 132.33 124.75 132.43"/><polygon class="cls-28" points="123.79 140.72 100.72 127.93 100.72 127.68 101.36 127.33 123.89 139.82 123.89 140.65 123.79 140.72"/><polygon class="cls-25" points="133.95 127.91 146.94 135.6 146.94 166.7 146.43 167 146.43 135.91 133.47 128.25 133.95 127.91"/><polygon class="cls-26" points="133.44 128.22 146.43 135.91 146.43 167 133.44 159.32 133.44 128.22"/><polygon class="cls-25" points="194.79 116.86 171.62 131.48 171.62 150.43 172.13 150.71 172.13 131.77 195.28 117.16 194.79 116.86"/><polygon class="cls-16" points="195.3 117.14 172.13 131.77 172.13 150.71 195.3 136.09 195.3 117.14"/><polygon class="cls-29" points="194.6 118.54 172.84 132.27 172.84 149.59 194.6 135.86 194.6 118.54"/><polygon class="cls-27" points="171.64 131.52 172.13 131.77 195.28 117.16 194.79 116.86 171.64 131.52"/><polygon class="cls-28" points="189.7 139.49 189.93 139.48 190.57 139.07 190.57 120.13 189.7 120.67 189.7 139.49"/><polygon class="cls-28" points="183.61 143.31 183.88 143.3 184.47 142.92 184.47 123.97 183.61 124.52 183.61 143.31"/><polygon class="cls-28" points="177.51 147.14 177.82 147.12 178.38 146.77 178.38 127.82 177.51 128.37 177.51 147.14"/><polygon class="cls-28" points="172.23 137.18 195.3 123.23 195.3 122.98 194.66 122.66 172.13 136.27 172.13 137.11 172.23 137.18"/><polygon class="cls-28" points="172.23 141.79 195.3 127.85 195.3 127.6 194.66 127.28 172.13 140.89 172.13 141.72 172.23 141.79"/><polygon class="cls-28" points="172.23 146.41 195.3 132.47 195.3 132.22 194.66 131.9 172.13 145.51 172.13 146.34 172.23 146.41"/><polygon class="cls-30" points="96.36 91.63 121.41 46.78 122.9 47.65 97.85 92.5 96.36 91.63"/><polygon class="cls-30" points="100.25 93.89 125.3 49.04 126.79 49.91 101.74 94.76 100.25 93.89"/><polygon class="cls-30" points="104.14 96.15 129.19 51.3 130.68 52.17 105.63 97.02 104.14 96.15"/><polygon class="cls-30" points="108.03 98.42 133.08 53.56 134.57 54.43 109.52 99.28 108.03 98.42"/><polygon class="cls-30" points="115.81 102.94 140.86 58.09 142.35 58.95 117.3 103.8 115.81 102.94"/><polygon class="cls-30" points="119.7 105.19 144.75 60.35 146.24 61.21 121.19 106.06 119.7 105.19"/><polygon class="cls-30" points="123.59 107.46 148.64 62.61 150.13 63.47 125.08 108.32 123.59 107.46"/><polygon class="cls-30" points="127.48 109.72 152.53 64.87 154.02 65.73 128.97 110.58 127.48 109.72"/><polygon class="cls-30" points="131.37 111.98 156.42 67.13 157.91 68 132.86 112.84 131.37 111.98"/><polygon class="cls-30" points="135.26 114.24 160.31 69.39 161.8 70.26 136.75 115.11 135.26 114.24"/><polygon class="cls-30" points="139.15 116.5 164.2 71.65 165.69 72.52 140.64 117.37 139.15 116.5"/><polygon class="cls-30" points="143.04 118.77 168.09 73.91 169.58 74.78 144.53 119.63 143.04 118.77"/><polygon class="cls-30" points="146.93 121.02 171.98 76.17 173.47 77.04 148.42 121.89 146.93 121.02"/><polygon class="cls-30" points="150.82 123.28 175.87 78.44 177.36 79.3 152.31 124.15 150.82 123.28"/><polygon class="cls-30" points="111.92 100.68 136.97 55.82 138.46 56.69 113.41 101.54 111.92 100.68"/><path class="cls-31" d="M236.8,75.66a2.15,2.15,0,0,0,1.07-.48c-.69-.77-1.25-1-2-1.78,2.85.92,4.5,1.5,7.64,1.3a2.15,2.15,0,0,0,1.62-.92l-.24-.53c1.93-.12,3,0,4.92-.16A3.06,3.06,0,0,0,252.33,72a8.32,8.32,0,0,0-1.71-.3c4.6-.28,8.1-1.59,11.25-5.19a7.82,7.82,0,0,0-5.13-1.39l-3.47.21a10.83,10.83,0,0,1,1.07-.55l.07-.68-3.18.19c-1.86.12-3,.56-4.84.84.09-.55.22-.83.28-1.38.12-1.23-1.9-.56-3.22-.48a9.72,9.72,0,0,0-5.31,1.55c.07-.38.21-.62.24-1,.07-.72-.65-1.15-1.42-1.11-4.05.25-5.37,4-8.44,6.93-.92.87.55,1.74,1.35,2.51C232,74.18,233.51,75.86,236.8,75.66Z"/><path class="cls-32" d="M89,46.56s3.06,2.2,8,.72c0,0,33.16-28,89.55-9l1.49,2.58s-51.93-18.56-85.61,11.06c0,0-3.8,3.45-3.37,5.82L97.77,56l-1.52-.83-2-.58-.64-1.32-.49-1.4-1.54-1.38.46-1Z"/><path class="cls-31" d="M176.82,43.42a1,1,0,0,0,.17.7c.73-.3,1-.6,1.76-1a9.91,9.91,0,0,0-2.45,4.38,1.08,1.08,0,0,0,.4,1.08l.46-.07c-.27,1.17-.53,1.78-.8,3a1.51,1.51,0,0,0,.38,1.66,4.76,4.76,0,0,0,.56-1,7.35,7.35,0,0,0,1.9,7.41,4.7,4.7,0,0,0,2.05-2.86l.49-2.1a4.9,4.9,0,0,1,.22.71l.52.13.45-1.92a22.9,22.9,0,0,0,.26-3c.41.13.6.25,1,.36.93.24.8-1.06,1-1.85a4.58,4.58,0,0,0-.2-3.37c.28.09.45.21.74.28a.92.92,0,0,0,1.13-.69c.57-2.45-2.12-3.75-3.78-6-.51-.67-1.46.09-2.21.46C178.88,40.77,177.29,41.43,176.82,43.42Z"/><path class="cls-31" d="M244.51,32.39a15,15,0,0,1,8.76-1.56l-1.1.2c1.12.26,1.77.23,2.85.55a1.69,1.69,0,0,1-.62.88c-2.69,1.68-5,1-8.15.27C245.72,32.61,245.06,32.54,244.51,32.39Z"/><path class="cls-31" d="M246.79,44.26a15,15,0,0,1-8.85-.92l1.11.11c-1-.55-1.63-.71-2.58-1.32a1.65,1.65,0,0,1,.83-.68c3-.88,5.12.44,7.91,2C245.69,43.71,246.31,44,246.79,44.26Z"/><path class="cls-31" d="M266.87,44.26a15,15,0,0,1-8.85-.92l1.11.11c-1-.55-1.63-.71-2.58-1.32a1.65,1.65,0,0,1,.83-.68c3-.88,5.12.44,7.91,2C265.78,43.71,266.39,44,266.87,44.26Z"/><path class="cls-31" d="M261.18,54.05a15,15,0,0,1-3.91-8l.5,1c-.06-1.14-.27-1.76-.25-2.89a1.67,1.67,0,0,1,1,.35c2.36,2.12,2.34,4.57,2.51,7.76C261.07,52.83,261.18,53.49,261.18,54.05Z"/><path class="cls-31" d="M162.57,36.23a15,15,0,0,1-6.92-5.59l.87.7c-.54-1-1-1.48-1.44-2.51a1.65,1.65,0,0,1,1.07-.12c3,.93,4.05,3.16,5.55,6C162,35.17,162.33,35.72,162.57,36.23Z"/><path class="cls-31" d="M166.61,25.94a.91.91,0,0,0,.52,0c-.14-.47-.32-.68-.5-1.14a6.93,6.93,0,0,0,2.88,1.81.92.92,0,0,0,.83-.17v-.28c.81.25,1.23.45,2,.7a1.29,1.29,0,0,0,1.24-.11,3.37,3.37,0,0,0-.64-.41,6.22,6.22,0,0,0,5.52-.61,3.15,3.15,0,0,0-1.84-1.45l-1.45-.45a4.4,4.4,0,0,1,.53-.08l.15-.31L174.53,23a18.7,18.7,0,0,0-2.12-.37c.13-.24.24-.35.36-.59.27-.55-.67-.56-1.23-.73a3.91,3.91,0,0,0-2.44-.12c.1-.16.2-.26.28-.42A.53.53,0,0,0,169,20c-1.7-.52-2.92,1-4.69,1.85-.53.26-.09.89.1,1.37C164.92,24.51,165.23,25.52,166.61,25.94Z"/><path class="cls-31" d="M169.38,39.38a.48.48,0,0,0,.33.16c.12-.39.1-.61.19-1a5,5,0,0,0,1,2.39.56.56,0,0,0,.56.19l.12-.2c.38.49.54.78.92,1.27a.78.78,0,0,0,.78.39A2.46,2.46,0,0,0,173,42a3.76,3.76,0,0,0,3.56,1.63,2.41,2.41,0,0,0-.48-1.74l-.67-.87a3.62,3.62,0,0,1,.35.14L176,41l-.62-.8a11.35,11.35,0,0,0-1.11-1.07c.18-.12.29-.16.47-.29.4-.29-.16-.66-.42-1a2.36,2.36,0,0,0-1.41-1c.13-.08.23-.11.35-.2a.47.47,0,0,0,.09-.67c-.79-1-2.18-.36-3.59-.42-.43,0-.43.61-.52,1C169,37.71,168.74,38.56,169.38,39.38Z"/><path class="cls-12" d="M38.15,112.81c3.58,0,4.13,4.68,4.13,8.26h5c1-.14,1.24-1.1,2.2-1.1,5.09,0,0,8.39,2.75,12.66,1.38,2.2,3.3,3,4.4,5.5,3.44,8,13.9,2.06,21.46,6.05,1.93,1,.28,3.85,1.65,5.5,4,4.68,9.22,4.4,15.41,4.4,2.2,0,2.75-2.75,5-2.75,7.43,0,8.67,8.81,16,10.46,8.12,1.79,12.8,4.26,19.26,9.36,9.49,7.57,17.89,9.91,23.11,20.91,2.48,5.37,8.26,6.74,8.26,12.66,0,7.43-8.12,8.81-14.31,12.66a31.6,31.6,0,0,0-4.57,3.58L136,226,0,147l.49-1c3.68-1.83,6.65-4.57,11-7.3,6.47-4,10.32-7.15,14.86-13.21C30.31,120.11,31.41,112.81,38.15,112.81Z"/><path class="cls-16" d="M32.37,118.32a6.79,6.79,0,0,0-3.26,2.52c2.22-4.17,4.14-8,9-8,3.58,0,4.13,4.68,4.13,8.26h5c1-.14,1.24-1.1,2.2-1.1,5.09,0,0,8.39,2.75,12.66,1.38,2.2,3.3,3,4.4,5.5,3.44,8,13.9,2.06,21.46,6.05,1.93,1,.28,3.85,1.65,5.5,4,4.68,9.22,4.4,15.41,4.4,2.2,0,2.75-2.75,5-2.75,7.43,0,8.67,8.81,16,10.46,8.12,1.79,12.8,4.26,19.26,9.36,9.49,7.57,17.89,9.91,23.11,20.91,2.48,5.37,8.26,6.74,8.26,12.66a8.67,8.67,0,0,1-.25,2.12,17.13,17.13,0,0,1-2.5-5.43c-1.38-5-7.7-5.37-7.7-10.46-5.23-.69-12.66.28-12.66-5,0-1.38.69-2.06,1.1-3.3-13.9-4.27-17.2-15.55-30.82-20.36-16.37-5.78-26.83-6.88-42.38-14.86-5-2.48-9.22.69-14.31-1.65-5.92-2.75-7.57-7.43-13.76-9.91l1.1-2.2v-6.05C38.56,127.67,35.4,123.41,32.37,118.32Z"/><path class="cls-13" d="M165.55,194h1.38l.28,1.1c-3.23,1.93-5.57,3.65-6.33,7.43a14.91,14.91,0,0,0,2.48,0l.28,1.11c-.62,1.24-1.38,1.93-1.38,3.3,0,1,1.24,1.1,2.2,1.1,1.38,0,2.06-.62,3.3-1.1h1.38v1.44c0,5.64-6.26,6.47-10.46,10.11-4.61,4-6.33,9.63-12.45,9.63h-6c-2-1.17-6.05.14-5.5-2.2.48-1.93,2.89-1.1,4.4-2.2,4.27-3.16,7.77-4.54,10.18-9.36C153.86,205.21,156.06,198.74,165.55,194Z"/><path class="cls-16" d="M162.25,186.83a3,3,0,0,1,2.75,1.38,17,17,0,0,1-7.15,1.1C155.92,189.31,160.32,186.83,162.25,186.83Z"/><path class="cls-16" d="M152.07,182.43a8,8,0,0,1,5-4.13l.83,1.38C156.13,181.4,154.2,181.19,152.07,182.43Z"/><path class="cls-16" d="M55.21,124.92c1.31-1.31,2.27-2.2,4.13-2.2A1.82,1.82,0,0,1,61,124.1a6.59,6.59,0,0,1-2.48.83C57.21,124.92,56.45,124.51,55.21,124.92Z"/><path class="cls-16" d="M55.21,136.48c.69-2.61,2.55-4.68,5.3-4.68,1,0,1.44.21,2.41.28v1.38C60.09,134.07,58,135.38,55.21,136.48Z"/><path class="cls-31" d="M183.46,55.93a1.51,1.51,0,0,0,.9-.09c-.24-.81-.55-1.18-.86-2a12.13,12.13,0,0,0,5,3.14,1.6,1.6,0,0,0,1.43-.29v-.49c1.41.44,2.12.78,3.53,1.22a2.22,2.22,0,0,0,2.15-.19,5.72,5.72,0,0,0-1.12-.71,10.79,10.79,0,0,0,9.59-1.06,5.44,5.44,0,0,0-3.2-2.52l-2.52-.78a8,8,0,0,1,.92-.14l.26-.53-2.31-.71a32.92,32.92,0,0,0-3.69-.65c.24-.42.42-.6.63-1,.47-1-1.17-1-2.13-1.27a6.79,6.79,0,0,0-4.24-.22,8.68,8.68,0,0,0,.49-.73.92.92,0,0,0-.66-1.27c-2.95-.91-5.06,1.76-8.14,3.22-.92.45-.15,1.54.18,2.37C180.52,53.43,181.07,55.19,183.46,55.93Z"/><path class="cls-31" d="M185.23,29.49a1.5,1.5,0,0,0,.8-.42c-.53-.66-1-.89-1.54-1.51a12.11,12.11,0,0,0,5.82,1,1.6,1.6,0,0,0,1.22-.8l-.18-.45c1.47-.12,2.26-.07,3.73-.2a2.23,2.23,0,0,0,1.92-1,5.66,5.66,0,0,0-1.31-.24,10.8,10.8,0,0,0,8.5-4.58,5.45,5.45,0,0,0-3.91-1.14l-2.63.22a8.31,8.31,0,0,1,.81-.48l0-.59-2.41.2a33.39,33.39,0,0,0-3.67.77c.06-.47.16-.71.2-1.19.08-1.06-1.45-.46-2.45-.38a6.8,6.8,0,0,0-4,1.39c.05-.33.15-.54.18-.86a.92.92,0,0,0-1.09-.93c-3.08.26-4,3.53-6.34,6-.69.76.44,1.49,1,2.13C181.57,28.28,182.73,29.7,185.23,29.49Z"/><path class="cls-12" d="M29.62,119.69c2.34-3.78,4.2-7.43,8.6-7.43h5.09c6.6,0,9.7,4.68,16.3,4.68,10.8,0,15.48-5.71,25.59-10.73a8.08,8.08,0,0,1,.83,2.48c0,2.89-3.3,3.23-5,5.5h6.05c.21.62.55,1,.55,1.65,0,1.65-1.44,2.06-2.2,3.58,3.85,1.72,3.85,7.43,8.12,7.43,2.68,0,3.85-1.93,6.47-2.48.28,1.38.83,2.06.83,3.44,0,2.41-2.75,3.23-2.75,5.64s3,2.75,4.4,4.68c1.58,2.13,2.55,4.68,5.23,4.68,1.38,0,2.06-.83,3.44-.83,5,0,4,9.08,8.94,9.08,3.51,0,4.2-4.68,7.7-4.68,1.44,0,2.2,1.58,2.2,3,0,1.86-1.1,2.82-1.1,4.68,0,3.44,4.82,3,8.26,3,0,4.4,2.34,7.84,6.6,9.08s7.22.21,11,2.48c15.2,0,20.57-15.68,35.77-15.68,2.34,0,3.85,2.34,3.85,4.68,4.06.76,6.4,0,10.46,0,2.2-2.2,4.2-3.3,7.29-3.3,2.55,0,4,.69,6.47.07.14.55.55,1,.55,1.58,0,4.13-5,4.26-8,7.09,4.82.83,7.57.07,12.38.07a7.93,7.93,0,0,1,2.75.83c-1.72,1.24-3.1,1.93-4.13,3.85h5.5v2.55c0,2.82-3.37,2.82-5.5,4.61a27.07,27.07,0,0,1-7.43,4.68c-7.43,3.37-10.94,6.54-18.71,9.08-10,3.3-13.76,9-22.56,14.86-2.75,1.79-3.58,5-6.88,5-.76,0-1.17-.55-1.93-.55-.48,0-.62.55-1.1.55-.69,0-.69-.83-1.1-1.38-.89.48-.89,1.93-1.93,1.93-.55,0-.55-.83-1.1-.83-1.93,0-1.1,3.16-2.48,4.4-4,3.71-7.22,6.33-12.73,6.33h-7.84c-6.95,0-8.94-6.33-14.65-10.18-12.52-8.53-19.47-13.56-32.75-21.19-11.21-6.47-13.35-16.1-25-21.46-7.36-3.37-12-4.2-19.54-7.15-3.44-1.38-6.74-.76-8.81-3.85-3.85-5.85-1.65-11.08-4.13-17.61-1.38-3.58-3-5.64-3-9.49,0-2.41.76-3.65,1.65-5.92v-1.38H28.79"/><path class="cls-13" d="M138.31,224.26l1.38-1.38c3.26-1,5.79-1.46,7.43-4.4,3.51-6.33,5.92-13.21,13.21-13.21.55,0,.83.55,1.38.55,1.72,0,1.86-2.13,3-3.31,3.51-3.51,6.12-6,6.6-11,1.31.21,2.06-.28,3.37-.28h8.67c2.41,0,2.75-2.89,4.75-4.13s4-.48,6.33-1.38,3.37-3.3,6.05-3.3c1,0,1.58.55,2.61.55,8.13,0,13.41-4.14,19.37-7.28l-53.33,30.91,1.75-.1s-1.11,2.24-3.17,5.56c-.74,1.19-1.61,2.53-2.59,3.95-6.1,5.14-12.13,9.62-21.74,9.62-1.59,0-2.09-1.47-3.25-2.43A15.28,15.28,0,0,0,138.31,224.26Z"/><path class="cls-16" d="M59.61,117.22c10.88-.37,15.57-6,25.59-11a8.08,8.08,0,0,1,.83,2.48c0,2.89-3.3,3.23-5,5.5h6.05c.21.62.55,1,.55,1.65,0,1.65-1.44,2.06-2.2,3.58,3.85,1.72,3.85,7.43,8.12,7.43,2.68,0,3.85-1.93,6.47-2.48.28,1.38.83,2.06.83,3.44,0,2.41-2.75,3.23-2.75,5.64s3,2.75,4.4,4.68c1.58,2.13,2.55,4.68,5.23,4.68,1.38,0,2.06-.83,3.44-.83,5,0,4,9.08,8.94,9.08,3.51,0,4.2-4.68,7.7-4.68,1.44,0,2.2,1.58,2.2,3,0,1.86-1.1,2.82-1.1,4.68,0,3.44,4.82,3,8.26,3,0,4.4,2.34,7.84,6.6,9.08s7.22.21,11,2.48c15.2,0,20.57-15.68,35.77-15.68,2.34,0,3.85,2.34,3.85,4.68,4.06.76,6.4,0,10.46,0,2.2-2.2,4.2-3.3,7.29-3.3,2.55,0,4,.69,6.47.07.14.55.55,1,.55,1.58,0,4.13-5,4.26-8,7.09,4.82.83,7.57.07,12.38.07a7.93,7.93,0,0,1,2.75.83c-1.72,1.24-3.1,1.93-4.13,3.85h5.5v2.55c0,1.71-1.23,2.38-2.67,3-3.65-.46-6.38-1.72-10.26-3.66l.83-1.51h-7.7c0-1.58,1-2.55,2.2-3.44-3.65-.48-7.5.34-8.81-3-2.48,1-3.23,3.3-5.85,3.3h-1.86v-1.38a18.94,18.94,0,0,1,2.48-2.2c-3,1.44-4.33,3-7.5,3H187v-1.38c.69-1.79,2.13-2.2,3.58-3.44-1.58-.07-2.48-.14-4.06-.14-4.75,0-6.4,3.78-10,6.88-5.92,5.16-11.21,6.33-19,6.33-.55,0-.83-.55-1.38-.55-1.72,0-2.55.76-4.13,1.38l-.28-1.1-4.4,1.65h-2.48V171.7c-3.65.69-5.16,3.3-8.81,3.3a3.21,3.21,0,0,1-3.3-3c-2.75,0-6.88,1.1-6.88-1.65,0-2.06,3-2.34,3-4.4a4,4,0,0,0-3.85-4.13c-2.34,0-3.16,2.2-5.5,2.2-.55,0-.62-.76-1.1-.83l2.2-2.75c-.83-1.72-1.93-3-3.85-3s-3,1.93-5,1.93c-.83,0-1.31-.21-2.13-.28v-2.48l2.75-3.58-.55-1.1c-1.86-.21-4.4.21-4.4-1.65,0-.69.55-1,.55-1.65s-.41-1-.55-1.65H104c-1.38,0-2.06.83-3.44.83s-2-.07-3.23-.07v-4c0-2.27-2.34-3-4.4-3.92.55-1.51,1.79-1.93,2.2-3.58-2.27-.55-2.48-3-2.48-5.23h-8l-1.38-.83c.76-1.51,3-1.38,3-3,0-3-4.13-3.37-4.13-6.33,0,1.72-2.68.34-4.4,0,1.31-2.27,3.65-2.34,5-4.68l-.28-1.1c-1.79.69-3,1.65-5,1.65l.55-1.1a7.79,7.79,0,0,1-6.6,3c-.55,0-.89-.41-1.38-.55a3.6,3.6,0,0,0,1.65-2.2c-3.65.48-5.64,1.65-9.29,1.65A19.61,19.61,0,0,1,59.61,117.22Z"/><path class="cls-16" d="M40.08,113.64c-3.65,0-5.78,2.41-7.43,5.78l1.1.28c1.24-1.24,2.48-1.31,4.13-1.93l-5,3.85-.55,1.1,2.48-1.38-1.38,2.48c5.43-2.68,8.39-3.85,13.48-6.88-.55-1.38-2.13-1.38-3.58-1.38a11.64,11.64,0,0,0,3-.83C44.62,113.71,42.14,113.78,40.08,113.64Z"/><path class="cls-16" d="M51.08,123.27l1.1.83,4.68-.28c-2.82.55-3.92,1.72-6.6,2.75a19.36,19.36,0,0,0,6.6,0,12.11,12.11,0,0,0-2.75,1.1l-.55,1.1c4.61,0,6.74-3.16,11.35-3.16h6.53C69,122.51,65.53,123,61.54,123a14.59,14.59,0,0,0,6.33-1.38c-2.27-.28-3.51-.83-5.78-.83C57.69,120.79,55.28,121.89,51.08,123.27Z"/><path class="cls-16" d="M80.8,133.45c-1-.07-1.44-.28-2.41-.28a10.08,10.08,0,0,0-4.47,1H80.8Z"/><path class="cls-33" d="M121.8,52.55l-.14.69a2.75,2.75,0,0,1,1.51,1c-.41.24-.79.38-1,.83.28.14.48.41.83.41s.52-.17.83-.28a5.42,5.42,0,0,0,.55,2.06h.69c.89-1.51,2.61-2,2.61-3.71C127.72,51.18,124,51.69,121.8,52.55Z"/><path class="cls-33" d="M138.72,61.63A2,2,0,0,1,136.8,63v1.14c0,1.41,1.89,1.48,3.3,1.48a1.08,1.08,0,0,0,1-1.17C141.06,63,139.72,62.63,138.72,61.63Z"/><path class="cls-33" d="M149.46,89.56a7.19,7.19,0,0,0-1.2-.14,3.07,3.07,0,0,0-1.55.41c.48.55,1.38.62,1.38,1.38,0,.55-.45.72-.69,1.24l.83.14c.31-.28.52-.69,1-.69s.76.31,1.24.55h.69a6.72,6.72,0,0,0,.55-1.79C150.73,90.39,150,90.35,149.46,89.56Z"/><path class="cls-33" d="M150.42,54.89l-1.72-.07a11.18,11.18,0,0,1,0,1.86c1.38,0,2.13-.31,3.51-.41l.14-.62C151.66,55.61,151.11,54.89,150.42,54.89Z"/><path class="cls-33" d="M169.68,47.46l-.83-.41h-1.38c0,.55-.14.86-.14,1.41,0,1.1,1.38,1.1,1.93,2h1.1C170.44,49.35,169.75,48.6,169.68,47.46Z"/><path class="cls-33" d="M137.07,48.7c0,.31-.1.52-.14.83l.55.28h1.93a2.32,2.32,0,0,0-.55-.83"/><path class="cls-33" d="M180.69,64.11a3.3,3.3,0,0,0-3,2.2l1.1.55H180A5.83,5.83,0,0,1,180.69,64.11Z"/><path class="cls-33" d="M108.32,89c.45.62.76,1.38,1.55,1.38s1.07-.1,1.75-.14c.07-.45.28-.65.28-1.1A1.71,1.71,0,0,0,110,87.64C109.32,87.64,109,88.87,108.32,89Z"/><path class="cls-33" d="M167.34,78.21a.83.83,0,0,0-.83.76c0,.55.55.86,1.1,1a2.31,2.31,0,0,0-1.65,2.2,4,4,0,0,0,.28,1.1,8.55,8.55,0,0,1,2.48,0c-.28.41-.55.69-.55,1.17s.38.48.55.76h.69a15.19,15.19,0,0,0,.41-2.75l.55-.14c.52.41.72,1,1.38,1,.24,0,.31-.28.55-.28a11.19,11.19,0,0,0,.41-1.79c0-1.31-1.48-1.65-1.65-3Z"/><path class="cls-31" d="M227.63,39a1.05,1.05,0,0,0-.34-.7c-.67.69-.92,1.17-1.56,1.9.89-2.36,1.44-3.74,1.42-6.08a1.06,1.06,0,0,0-.68-1l-.45.3c0-1.44.09-2.26.09-3.7,0-.77-.12-1.4-.8-1.69a7.81,7.81,0,0,0-.33,1.37c0-3.44-.94-5.82-3.76-7.44a7.23,7.23,0,0,0-1.38,4.2c0,1,0,1.58,0,2.59a5.5,5.5,0,0,1-.4-.7l-.56.1c0,.92,0,1.44,0,2.37a29.76,29.76,0,0,0,.47,3.5c-.45,0-.67,0-1.12.08-1,.17-.55,1.57-.55,2.55a5.33,5.33,0,0,0,1,3.7c-.31,0-.51,0-.82,0a1.33,1.33,0,0,0-1,1.32c0,3,3.09,3.21,5.32,4.93.68.51,1.46-.8,2.13-1.57C226.19,43,227.65,41.46,227.63,39Z"/><path class="cls-33" d="M125.1,64.93c-2,0-3.1,1.1-5,1.65a51.69,51.69,0,0,0-9.91,3.58c1.1,1.51,2.61,2.06,3.3,3.85l-1.65,2.48c1.38.69,2.68.69,3.85,1.65,1.86,1.58.89,3.85,1.1,6.33a20.82,20.82,0,0,0,.83,3.58A3.7,3.7,0,0,0,119,90.8c.76.48,1.65.21,2.2.83.89,1,.28,2.61,1.38,3.3s3,.07,3,1.38c0,1.65-1.1,2.41-1.1,4.06v6.19c0,1.65,1.79,2.13,3.3,2.68,2.48.89,3.71,1.93,6.33,2.2,2.34.28,4.27.28,5.5,2.2.83,1.31,1.17,3,2.75,3,3.51,0,4.82-2.68,8-4.13,2.48-1.1,5,.14,6.88-1.93,1.65-1.86,1.44-3.78,2.75-5.78.76-1.17,1.86-1.38,2.75-2.48,2-2.48,5.23-3,5.23-6.12V91.14c0-5.85-5.43-7.57-8.53-12.45a17,17,0,0,0-10.46-8c-6.12-1.86-9.77-2.34-16.23-3.3C129.64,67,128.27,64.93,125.1,64.93Z"/><polygon class="cls-30" points="111.92 100.68 136.97 55.82 138.46 56.69 113.41 101.54 111.92 100.68"/><polygon class="cls-30" points="119.7 105.19 144.75 60.35 146.24 61.21 121.19 106.06 119.7 105.19"/><polygon class="cls-30" points="123.59 107.46 148.64 62.61 150.13 63.47 125.08 108.32 123.59 107.46"/><polygon class="cls-30" points="135.26 114.24 160.31 69.39 161.8 70.26 136.75 115.11 135.26 114.24"/><polygon class="cls-30" points="139.15 116.5 164.2 71.65 165.69 72.52 140.64 117.37 139.15 116.5"/><path class="cls-34" d="M46.68,112.81h1.86c2.34,0,3.58-.76,5.85-1.38a25.86,25.86,0,0,0,10.46-5.23c2.41-1.86,4.61-1.65,7.43-2.75,5.3-2.06,8.19-3.65,13.76-5,1.79-.41,2.89-.41,4.68-.83.48-.07.62-.83,1.17-.83,2.06,0,3.23.07,5.3.07-.07,1.65,0,2.55,0,4.2,0,1.24-1.58,1.24-2.06,2.34s-.07,2.27-.28,3.58a22.77,22.77,0,0,0-.83,4.82c0,3.58-.55,8.67,3,8.67A8.88,8.88,0,0,0,99,120h2.48a20.74,20.74,0,0,0,0,3.58,8,8,0,0,1-.83,3c2.27.34,3.85-.83,5.78.28s1.79,3,2.75,5a5.13,5.13,0,0,0,4.68,3c6,.28,9.42.55,15.41.55.07,1.93-.41,3.16.28,5,.55,1.51,2.2,1.93,2.2,3.58,0,.62-1.1.62-1.1,1.24,0,2,2.48,2.13,4.4,2.61a64.26,64.26,0,0,1,8,2.75c4.47,1.58,7,1.72,11.69,2.75l5.37-1.93a12.46,12.46,0,0,0,7.15,1.93c1.65,0,2.27-1.51,3.85-1.93,1.79-.48,3.44-.48,4.13-2.2.48-1.31.07-2.68,1.1-3.58,2.55-2.2,4.54-2.68,7.43-4.4.41-.21.34-1,.83-1.1,1.79-.62,3.1.07,5-.28,2.27-.41,3-2.41,4.4-4.13,2.34-2.75,3.85-5.5,7.5-5.5h5.71V103.46l9.91,9.36,3.58,3.3,5,.55,6.05,3,5.78,3.58,3.3,2.48,7.7,4.68,6.33,3.3,7.15,1.93,4.4,1.38,5.23,3.3v6.88L225,173.35l-3.85,3.58L211,181.33l-51.46,4.4s-51.18,2.75-52.28,2.48-64.39-65.49-64.39-65.49Z"/><path class="cls-35" d="M179.86,102.63c-1.93.55-4.68.69-4.68,2.75,0,.89.83,1.31.83,2.2,0,3.23-2.2,4.68-3.85,7.43.48.14.83.55,1.38.55s.55-.83,1.1-.83c1,0,1.1,1.24,1.65,1.93a3.63,3.63,0,0,0,3,1.1c5,0,7.15-5.57,7.15-10.53v-4.61Z"/><path class="cls-35" d="M122.63,120.24a6.8,6.8,0,0,0,1.93-.83v3.44c0,1.24,1,1.72,1.38,2.89,1.65-.83,2-2.75,3.85-2.75s2.82,1.93,4.82,1.93c1.58,0,3,.34,4-.83.83-1,.55-2,.55-3.3,0-3.44-3.92-3.71-6.88-5.5-2.41-1.44-3.23-3.85-6.05-3.85-.76,0-1.51-.28-1.93.28s-.14,1.58-.28,2.48C123.59,116.53,123,117.84,122.63,120.24Z"/><path class="cls-32" d="M167.37,158.81S171,160,175.23,157c0,0,21.85-24.44,67.92-45.36l2.49,1.62S200,136.85,181.82,159.72c0,0-2.55,4.45-1.41,6.58l-1.8-1.17-1.7-.32-2,.05-1-1.05-.91-1.18-1.89-.83.13-1.1Z"/><path class="cls-31" d="M246.8,122a1.88,1.88,0,0,0,1.07.35c.13-1,0-1.61,0-2.67,1.2,2.59,1.86,4.12,4.08,6.07a2,2,0,0,0,1.77.39l.24-.55c1.38,1.2,2,2,3.39,3.16a2.74,2.74,0,0,0,2.52.86,7.11,7.11,0,0,0-.91-1.37,13.38,13.38,0,0,0,11.38,3.63,6.71,6.71,0,0,0-2.35-4.46l-2.46-2.16a11,11,0,0,1,1.12.31l.56-.47-2.25-2a41.39,41.39,0,0,0-3.84-2.6c.47-.35.77-.47,1.23-.85,1-.84-.84-1.69-1.77-2.51a8.4,8.4,0,0,0-4.69-2.38c.34-.23.61-.33.92-.58a1.14,1.14,0,0,0-.11-1.77c-2.88-2.52-6.62-.56-10.83-.46-1.27,0-.94,1.67-1,2.78C244.74,117.74,244.47,120,246.8,122Z"/><path class="cls-33" d="M203.53,62.46c-4.88,1.58-7.22,3.37-12.11,5l1.1.55v1.38a14.4,14.4,0,0,0-1.65,1.93,14.42,14.42,0,0,0,2.48-.55v1.38c.48,0,.62.55,1.1.55s.76-.83,1.38-.83.69,1.1,1.38,1.1c1.24,0,1.51-1.17,2.48-1.93s1.93-.55,2.75-1.38C204.28,67.76,203.53,65.14,203.53,62.46Z"/><path class="cls-33" d="M164.73,57.23c0,1.44,1.65,1.86,1.65,3.3,0,1-.55,1.44-1.1,2.2.83,0,1.51.34,2.2,0,1.31-.76,1.31-2.48,2.75-2.75s3.3,0,3.3-1.38c0-2.2-1.72-3.51-3.85-4.13-1-.28-1.72-1.1-2.75-.83C165.35,54.07,164.73,55.58,164.73,57.23Z"/><path class="cls-33" d="M157,47.6l-.83,1.93c1,.55,1.65,1.38,2.89,1.38.83,0,1.31-.55,2.06-.83C159.77,48.49,159,48.36,157,47.6Z"/><path class="cls-33" d="M209,57l-.28,1.1c1,.34,2,.21,2.48,1.1s.89,2.2,2.06,2.2c1.44,0,1.38-2,2.61-2.75.41-.21,1.1-.21,1.1-.69a3.07,3.07,0,0,0-3.3-3.16C211.71,55,210.89,56.06,209,57Z"/><path class="cls-33" d="M217.56,71.81c0,.62.55.89.83,1.38H222c.07-1,.28-1.51.28-2.48C222.24,68.86,217.56,70,217.56,71.81Z"/><path class="cls-16" d="M55.49,113.36c2.89,0,4.54-.83,7.43-.83-2.2,1.24-3.85,1.44-6.05,2.75l2.48.55c-3.16,1.58-4.47,2.82-7.7,3.85,6-2.34,9.84-1.51,16-3.3,2.89-.83,5.23-.89,7.15-3.3-3,0-4.26,2.2-7.22,2.2H65.39c1.93-1.93,3.44-2.55,6.05-3.58l-1.65-.28-1.65.55c3.23-.76,4.75-2.06,7.43-3.85-.48-.14-.55-.83-1.1-.83a15.57,15.57,0,0,0-8.26,1.93c-1.93,1-2.82,2.2-5,2.75S57.69,112.68,55.49,113.36Z"/><path class="cls-16" d="M91.81,97.68a10.19,10.19,0,0,0,1-.82c1.5,0,2.61.06,4.32.06-.07,1.65,0,2.55,0,4.2,0,1.24-1.58,1.24-2.06,2.34s-.07,2.27-.28,3.58a22.77,22.77,0,0,0-.83,4.82c0,3.58-.55,8.67,3,8.67A8.88,8.88,0,0,0,99,120h2.48a20.74,20.74,0,0,0,0,3.58,8,8,0,0,1-.83,3c2.27.34,3.85-.83,5.78.28s1.79,3,2.75,5a5.13,5.13,0,0,0,4.68,3c6,.28,9.42.55,15.41.55.07,1.93-.41,3.16.28,5,.55,1.51,2.2,1.93,2.2,3.58,0,.62-1.1.62-1.1,1.24,0,2,2.48,2.13,4.4,2.61a64.26,64.26,0,0,1,8,2.75c4.47,1.58,7,1.72,11.69,2.75l5.37-1.93a12.46,12.46,0,0,0,7.15,1.93c1.65,0,2.27-1.51,3.85-1.93,1.79-.48,3.44-.48,4.13-2.2.48-1.31.07-2.68,1.1-3.58,2.55-2.2,4.54-2.68,7.43-4.4.41-.21.34-1,.83-1.1,1.79-.62,3.1.07,5-.28,2.27-.41,3-2.41,4.4-4.13,2.34-2.75,3.85-5.5,7.5-5.5h5.71V126.8c.83,1,1.65,1,1.65,1.56,0,3.78-4.33,4.06-7.15,6.47-1,.83-1.17,1.72-2.2,2.48-1.38,1-2.68.48-4.13,1.38-1.93,1.24-2.68,3-5,3-1,0-1.58-.55-2.61-.55-2.41,0-3.3,1.72-5.64,2.48-1,.34-2,.41-2.48,1.38-1.1,2,1,4.54-.83,6.05-1.58,1.31-3.51.28-5.23,1.38-3.51,2.34-4.88,5.78-9.08,5.78-2.55,0-4.33.14-6.6-.83-.89-.34-.89-1.93-1.93-1.93-2.82,0-3.23,3.85-6.05,3.85-5.16,0-7.29-3.71-12.11-5.5-3.44-1.24-5-3.3-8.26-5-2.34-1.17-4.06-.89-6.33-2.2-.89-.48-.41-2-1.38-2.48-1.24-.62-2.2-.28-3.58-.28v-2.75c.07-.48.55-.62.55-1.1,0-2.27-3.1-2.2-5.37-2.2-1.24,0-1.58-1.31-2.34-2.2s-1.93-.21-3-.55a8.88,8.88,0,0,1-2.75-1.1c-.41-.28-.28-1.1-.83-1.1-1,0-1.58.55-2.61.55a3.34,3.34,0,0,1-2.34-1.38l.83-1.38c-1.1-.07-1.65-.14-2.75-.28,1-1.38,1.93-2.34,1.93-4.13,0-1.17-1.31-1.65-2.48-1.65-2.75,0-4,2.2-6.74,2.2-1,0-2.34-.34-2.34-1.38,0-1.51.83-2.34,1.65-3.58l-.28-1.1c-1.17,0-2.75.07-2.75-1.1,0-2.34,2.2-2.75,3.3-5a3.45,3.45,0,0,1-1.65-3,16.58,16.58,0,0,1,.55-4.13c.14-.69,1.17-.69,1.38-1.38.55-1.72.28-3,1.1-4.68a15.3,15.3,0,0,1-2.75-1.1A11.75,11.75,0,0,1,91.81,97.68Z"/><path class="cls-16" d="M64,132.35h3.51c5.57,0,8.53-2,14.1-2.75-3,2.27-5.78,1.93-9.08,3.85,2.61,0,4.13-.69,6.6-1.65l-3,1.65-.55,1.1c4.27,0,6.19-2.75,10.46-3l-1.1-.28c-4.4,4.4-8.53,4.88-14.58,5.23-1.72.07-2.68.83-4.4.83a13,13,0,0,1-2.75-.55A60.8,60.8,0,0,1,69,134.28h-6.6a6.62,6.62,0,0,0-2.2-1.65l-1.38-.28C61.06,132.35,61.88,133.18,64,132.35Z"/><path class="cls-16" d="M103.64,149.41,99,151.34c1.72,0,2.68.14,4.4,0,1.1-.07,1.44-1.1,2.55-1.1h2.68c-.83,2.2-2.75,2.48-4.4,4.13h5.23a28.82,28.82,0,0,1-3.3,3.85,17.77,17.77,0,0,0,2.68.28c3,0,4.54-1.24,7.5-1.38,1,0,1.51.07,2.48,0s2.2-1.1,2.2-.28c0,1,1.58.83,2.61.83a28.11,28.11,0,0,0,5.37-.83c1.72-.28,2.34-1.93,4.13-1.93,1,0,1.31,1.17,1.93,1.93l-5,3,.28,1.38h3.3a5.47,5.47,0,0,0-1.93,2.2,5,5,0,0,0,2.2.83c5.57,0,8.46-2.48,14-2.48-11.08,1.65-16,9.08-27,9.08h-2.68a22.91,22.91,0,0,1,7.15-5.23c-.48-.14-.83-.55-1.38-.55-2.27,0-3.51.69-5.78.83,2.34-1.17,4.2-1.58,5.5-3.85a8,8,0,0,0-3.58-.83c-2.13,0-3.37.69-5.5.83-1.86.14-2.89-.41-4.68,0-1.17.28-1.79.83-3,.83-2.41,0-3.65-1.24-6.05-1.38-2.75-.14-5.5.41-6.88-1.93,1.93-1.93,3.37-2.55,5.5-4.13l1.38-.28c-.48-.14-.83-.55-1.38-.55-2.2,0-3.44,1-5.5,1.65a17.46,17.46,0,0,1,.83-2.48L92.91,153H83l-1.1-.55c1.93-1.51,3.65-1.44,6.05-1.65,3-.28,4.54-1.1,7.5-1.1h5.09c2.82,0,4.13-1.51,6.95-1.93Z"/><path class="cls-16" d="M163.9,161.24l-1.1,1h7.7c-3.23,1.31-5.5,1.65-8.26,3.71a6.75,6.75,0,0,0,3.85.83c-5.3,1.1-7.5,3.92-12.93,5.23a65.19,65.19,0,0,0,14-3.85c2.34-.83,3.78-.83,6.05-1.93l-1.1.55-.55,1.1c3.85,0,5.71-1.86,9.36-3.3a42.36,42.36,0,0,1-9.63,7.43c2.82-.41,4.06-1.72,6.88-2.2a5.19,5.19,0,0,0,2.75-.83l-1.1,1.1c.48.14.83.55,1.38.55,1.44,0,2.06-1,3.3-1.65a47.48,47.48,0,0,0,7.7-5.23,14.9,14.9,0,0,0-1.72-.28c-2.27,0-3.44.76-5.71,1.1,1.31-2.68,4.4-3.16,4.4-6.05h-2.75l1.1-1.38c-.48-.28-.76-.83-1.38-.83-3.65,0-5.09,2.75-8.53,4.13.62-1.31,1.44-1.72,2.48-2.75-.48-.07-.62-.55-1.1-.55-2.13,0-3.37,1-5.23,1.93s-3.37.55-5.5,1.1C166.65,160.56,165.62,161.18,163.9,161.24Z"/><path class="cls-16" d="M180.69,149.41a5.42,5.42,0,0,0,2.06.55,11.59,11.59,0,0,0,4.54-1.1c-2.75,1.38-4.54,1.79-6.6,3.85l1.65.28,13.21-5.23,1.1-.83C190.73,144.6,186.95,149,180.69,149.41Z"/><path class="cls-16" d="M225.54,150a35.55,35.55,0,0,0,7.15,0c-2.82,0-4.06,2.2-6.88,2.48-1.86.21-3,0-4.68.55h-1.38a21.54,21.54,0,0,0,3,.28c3.37,0,5.23-.76,8.6-1.38a18.31,18.31,0,0,0,3.85-1.38c.62-.21,1.65.14,1.65-.55s1.51,0,2.2-.28a29.14,29.14,0,0,0,6.05-3.85,5.4,5.4,0,0,0-1.79-.55c-3,0-4.61,1.31-7.57,1.93C231.66,148,229.12,147.83,225.54,150Z"/><path class="cls-13" d="M262.14,143.91c3.69-1.06,5.79-2.36,9.36-3.1v6.4L225,173.35l-3.85,3.58-13.35,6.33-10,.41c1.14-1.1,4.06-1.79,5.23-1.79,5.85-2.34,7.36-6.33,12.66-9.63,1.93-1.17,3.44-1.1,5.23-2.48.76-.55.89-1.44,1.65-1.93,1.65-1.17,3.23-.62,5.23-1.1a28,28,0,0,0,5.23-1.93c2.55-1.1,3.65-2.48,6.05-3.85,6.54-3.78,9.91-6.81,14.86-12.66C256.29,145.49,258.7,144.87,262.14,143.91Z"/><polygon class="cls-30" points="149.77 68.35 198.4 51.79 198.93 53.42 150.3 69.99 149.77 68.35"/><polygon class="cls-30" points="211.08 41.71 223.52 61.22 222.3 62.44 209.85 42.92 211.08 41.71"/></symbol></defs><title>01_modele_1col</title><g id="MODULE"><g id="CONTENT"><use width="272" height="272" transform="scale(2.1)" xlink:href="#illus-4"/></g></g></svg>