<svg xmlns="http://www.w3.org/2000/svg" xmlns:xlink="http://www.w3.org/1999/xlink" viewBox="0 0 572 571.99"><defs><style>.cls-1{fill:none;}.cls-2{fill:#ebece0;}.cls-10,.cls-12,.cls-13,.cls-16,.cls-17,.cls-19,.cls-2,.cls-20,.cls-21,.cls-23,.cls-24,.cls-25,.cls-26,.cls-27,.cls-28,.cls-3,.cls-30,.cls-31,.cls-32,.cls-33,.cls-34,.cls-4,.cls-5,.cls-6,.cls-7,.cls-8{fill-rule:evenodd;}.cls-3{fill:#e5e6da;}.cls-4{fill:#e0e1d6;}.cls-5{fill:#dbdbd0;}.cls-6{fill:#d5d6cb;}.cls-7{fill:#cfd0c6;}.cls-8{fill:#c9cac0;}.cls-9{fill:#6a6a69;}.cls-10{fill:#85b220;}.cls-11{fill:#6b9cd3;}.cls-12{fill:#959594;}.cls-13{fill:#506aaf;}.cls-14{fill:#d3c068;}.cls-15{fill:#b29b00;}.cls-16,.cls-29{fill:#fff;}.cls-17,.cls-18{fill:#669c24;}.cls-19{fill:#e1d4b9;}.cls-20{fill:#939393;}.cls-21{fill:#c6b991;}.cls-22{fill:#838382;}.cls-23{fill:#7682a4;}.cls-24{fill:#355978;}.cls-25{fill:#c3c3c2;}.cls-26{fill:#b8b8b7;}.cls-27{fill:#696968;}.cls-28{fill:#ccc;}.cls-30{fill:#1d1d1b;}.cls-31{fill:#9da3be;}.cls-32{fill:#638e2f;}.cls-33{fill:#a98014;}.cls-34{fill:#9ebce3;}</style><symbol id="illus-2" data-name="illus-2" viewBox="0 0 272 272"><rect class="cls-1" width="272" height="272"/><path class="cls-2" d="M3.71,187.09c-2.7-1.6-2.7-4.2,0-5.8L131.1,105.84a10.58,10.58,0,0,1,9.8,0l127.4,75.45c2.7,1.6,2.7,4.2,0,5.8L140.91,262.54a10.6,10.6,0,0,1-9.8,0Z"/><path class="cls-3" d="M5.9,187.1c-2.66-1.58-2.66-4.13,0-5.71l125.26-74.19a10.41,10.41,0,0,1,9.64,0L266.07,181.4c2.67,1.58,2.67,4.13,0,5.71L140.81,261.29a10.41,10.41,0,0,1-9.64,0Z"/><path class="cls-4" d="M8.09,187.12c-2.62-1.55-2.62-4.06,0-5.61l123.14-72.93a10.25,10.25,0,0,1,9.48,0l123.15,72.93c2.61,1.55,2.61,4.06,0,5.61L140.71,260a10.25,10.25,0,0,1-9.48,0Z"/><path class="cls-5" d="M10.27,187.13c-2.57-1.52-2.57-4,0-5.51l121-71.67a10.06,10.06,0,0,1,9.31,0l121,71.67c2.57,1.52,2.57,4,0,5.51l-121,71.67a10,10,0,0,1-9.31,0Z"/><path class="cls-6" d="M12.46,187.15c-2.52-1.5-2.52-3.92,0-5.42l118.89-70.41a9.88,9.88,0,0,1,9.15,0l118.91,70.41c2.52,1.5,2.52,3.92,0,5.42L140.52,257.56a9.89,9.89,0,0,1-9.15,0Z"/><path class="cls-7" d="M14.65,187.16c-2.48-1.47-2.48-3.85,0-5.32l116.77-69.16a9.72,9.72,0,0,1,9,0l116.78,69.16c2.48,1.47,2.48,3.85,0,5.32L140.41,256.32a9.71,9.71,0,0,1-9,0Z"/><path class="cls-8" d="M16.84,187.17c-2.44-1.44-2.44-3.78,0-5.22L131.48,114a9.55,9.55,0,0,1,8.82,0L255,181.95c2.43,1.44,2.43,3.78,0,5.22l-114.65,67.9a9.52,9.52,0,0,1-8.82,0Z"/><path class="cls-9" d="M272,174.79,136,253.61v-13c21.07-5.17,34.9-33.13,34.9-33.13l-1.75.11L272,148Z"/><path class="cls-9" d="M0,174.79l136,78.83Z"/><polygon class="cls-10" points="136 68.97 272 148.02 136 227.06 0 148.01 136 68.97"/><polygon class="cls-11" points="136 227.06 136 240.94 0 161.89 0 148.01 136 227.06"/><path class="cls-12" d="M44.13,122.36c4.42,6.4,21.88,28.17,58.68,34.91,0,0,57.8,14.24,68,49.58L136,227.06,0,148Z"/><path class="cls-13" d="M170.91,207.51s-13.84,28-34.9,33.13V226.84l34.74-20Z"/><polygon class="cls-14" points="136 240.94 136 253.61 0 174.79 0 161.89 136 240.94"/><path class="cls-15" d="M136,253.61v-13c15.11-3.71,26.5-19.14,31.73-27.57L272,152.64v22.15Z"/><path class="cls-16" d="M168.83,208l-2.39,1.38c-1.35-6.8-1.78-12.11-7.11-16.72-1.81-1.57-4-1.07-5.62-3-3-3.47-2.89-6.94-6.28-9.92-6.44-5.78-12.15-6.36-20.16-9.59-7.19-2.89-9.59-8.68-17.19-9.92-20.5-3.39-41.51-3.78-55.14-19.73C48.65,133.14,45.39,131.79,43,123l4.42-2.56c1.91,2.14,2.51,6.12,4.47,9.06,4.13,6.28,9.25,7.44,15.2,11.9,9.09,6.78,14.79,12.89,26.2,12.89h9.75c5.71,0,7.85,4.46,13.31,6.28,7.85,2.56,13,2.56,19.5,7.6,2.31,1.74,2.56,4.46,5.29,5.62,8.51,3.72,11.08,9.42,18.51,14.88,6,4.38,9.58,9.34,9.58,16.86A7.35,7.35,0,0,1,168.83,208Z"/><polygon class="cls-17" points="158.01 173.47 135.2 105.7 251.55 136.13 266.38 144.75 252.22 153.63 226.11 165.53 158.01 173.47"/><path class="cls-18" d="M107.19,39.58A3.76,3.76,0,0,1,106,37C98.53,51.42,84.4,81,82.35,102.23c0,0,.28,5.12,2.4,6.28H82.61l-1.6.66-1.69,1.16L77.89,110l-1.4-.5-2,.33-.49-1-4.22.49s3.64-1,5.61-5.78c0,0,4.75-30.63,30.07-71.53-2.24-1.72-5.3-1.91-5.32-4.93a1.32,1.32,0,0,1,1-1.32c.31-.05.5,0,.81,0a5.37,5.37,0,0,1-1-3.7c0-1-.46-2.38.55-2.55.45-.08.67,0,1.12-.08a29,29,0,0,1-.47-3.5V13.55c.67.18.82.35,1,.6l0-2.59a7.25,7.25,0,0,1,1.38-4.2c2.82,1.62,3.74,4,3.76,7.44a7.45,7.45,0,0,1,.33-1.37c.67.29.8.93.8,1.69,0,1.44-.1,2.26-.09,3.7.87-.09,1.13.21,1.13.74l0,1.13a10.9,10.9,0,0,1,2.61-4.78c.87-1.07,1.76-3,2.71-2.28.42.31.56.55,1,.89,1.1-1.6,1.52-2.67,2.76-4.18l2.11-2.57a1.81,1.81,0,0,1,.22,1.48l2.3-2.81a10.49,10.49,0,0,1,4.83-3.33,11.14,11.14,0,0,1-.59,6.29c.48-.16.86-.12,1,.35s.15.8.29,1.32c1.69-1,2.56-1.78,4.3-2.6l3-1.39a2.28,2.28,0,0,1-.59,1.52l3.24-1.52a8.84,8.84,0,0,1,5.49-.75c-1.56,4.37-4.4,6.87-8.7,8.89a9.32,9.32,0,0,1,1.77-.39,3.11,3.11,0,0,1-2,2c-1.7.8-2.71,1.14-4.33,1.89l2-.45a2.41,2.41,0,0,1-.93,1.39l3.39-.75a7.84,7.84,0,0,1,5.29.57c-2.55,4.05-5.8,5.89-10.3,6.89a8.32,8.32,0,0,1,1.74,0,3.05,3.05,0,0,1-2.33,1.49l-1.66.33a11.48,11.48,0,0,1,1.67.12l3,.43c-.63.79-.92.92-1.32,1.05l3.24.46a6.75,6.75,0,0,1,4.4,2.46,13.37,13.37,0,0,1-11.53,3.16,7.07,7.07,0,0,1,1.51.66,2.75,2.75,0,0,1-2.59.65c-1.81-.26-2.76-.54-4.56-.8-.4,1.08-.95,1.32-1.59,1.23a12,12,0,0,1-3.47-1,5.57,5.57,0,0,1-1,1.06A23,23,0,0,1,119,39.37l1.44,1.35c-.63.29-.84.28-1.1.21l1.57,1.47a4.71,4.71,0,0,1,1.46,3.21A7.35,7.35,0,0,1,115,43.55a4.46,4.46,0,0,1,.57,1A1.52,1.52,0,0,1,114,44c-.88-.82-1.28-1.35-2.16-2.17-.61.56-1,.53-1.31.24a9.93,9.93,0,0,1-2.56-4.31c-.05.8,0,1.22-.06,2ZM230.4,83.71A4.18,4.18,0,0,1,227.52,81c-4.32,8-14.26,27.31-20.62,46.37v17.43l-5.12,3q-.22,1.54-.36,3s.28,5.12,2.4,6.28h-2.15l-1.6.66-1.69,1.16-1.43-.33-1.4-.5-2,.33-.49-1-4.22.5s3.64-1,5.61-5.78l-37.17,22-10.7-6.22-13.1-7.61L95.4,138.22V94.76l-1.85-1.07V91C118.1,45.82,118.1,45.87,118.1,45.87l30.08,14,62.14,35.9v2.73L206.91,97v17a267.66,267.66,0,0,1,17.58-33.3c-2.23-1.72-5.3-1.9-5.32-4.93a1.32,1.32,0,0,1,1-1.31c.31-.05.5,0,.81,0a5.35,5.35,0,0,1-1-3.7c0-1-.46-2.38.55-2.55.45-.08.67,0,1.12-.08a29.65,29.65,0,0,1-.47-3.5V62.14c.67.18.82.35,1,.6l0-2.59A7.28,7.28,0,0,1,223.42,56c2.82,1.62,3.74,4,3.76,7.44a7.1,7.1,0,0,1,.33-1.37c.68.29.8.93.8,1.69,0,1.45-.1,2.26-.09,3.7a5.33,5.33,0,0,0,.76-2c.28-1.27.15-3.2,1.4-3.13.56,0,.81.15,1.37.21a40.26,40.26,0,0,1,.47-4.64l.68-3.07c.75.43.87.69,1,1l.74-3.35a10,10,0,0,1,2.88-5c2.89,2.9,3.28,6.23,2.29,10.67a10,10,0,0,1,.8-1.67,1.51,1.51,0,0,1,.58,1c.57-.82,1.16-1.49,1.79-1,.43.3.57.54,1,.87,1.08-1.62,1.47-2.69,2.69-4.22l2.07-2.6a1.78,1.78,0,0,1,.25,1.47l2.26-2.84a10.51,10.51,0,0,1,4.79-3.4c.84,4.17-.51,7.55-3.51,11.32a11.05,11.05,0,0,1,1.46-1.21,2.72,2.72,0,0,1-.84,2.53c-1.26,1.59-2.06,2.38-3.32,4,.7.35.73.63.67.91a20.59,20.59,0,0,1,3.24-1.09l3.11-.69a2.46,2.46,0,0,1-.93,1.39l3.39-.75a7.81,7.81,0,0,1,5.28.57c-2.54,4-5.8,5.89-10.3,6.88a8.34,8.34,0,0,1,1.74,0,3.06,3.06,0,0,1-2.33,1.49c-1.9.42-2.94.51-4.83.93,0,1.08-.45,1.5-1.13,1.65-.77.45-.9.69-1.05,1.09a41,41,0,0,1,4.64.09l3,.43c-.63.78-.93.92-1.32,1l3.24.47a6.73,6.73,0,0,1,4.4,2.46A13.37,13.37,0,0,1,249,82.44a7.16,7.16,0,0,1,1.51.65,2.75,2.75,0,0,1-2.59.65L246,83.41a8.19,8.19,0,0,1-3.48.71,1.72,1.72,0,0,1-.74.05,14.13,14.13,0,0,1-1.84-.38,3.81,3.81,0,0,1,.84.5,1.84,1.84,0,0,1-1.81.27c-1.14-.3-1.76-.55-2.85-.85-.56.67-1,.81-1.39.7a10.15,10.15,0,0,1-4.38-2.52c.3.69.57,1,.81,1.7A1.25,1.25,0,0,1,230.4,83.71Z"/><polygon class="cls-19" points="95.4 87.64 157.25 123.58 157.25 174.17 95.4 138.22 95.4 87.64"/><polygon class="cls-20" points="95.4 90.59 157.25 126.54 157.25 129.26 95.4 93.32 95.4 90.59"/><polygon class="cls-21" points="206.91 94.19 179.95 81.45 157.25 123.58 157.25 174.17 206.91 144.77 206.91 94.19"/><polygon class="cls-22" points="180.04 86.02 157.24 127.89 157.24 126.25 179.95 84.55 206.91 96.96 206.91 98.39 180.04 86.02"/><polygon class="cls-23" points="93.55 91.01 155.4 126.96 179.95 81.82 118.1 45.88 93.55 91.01"/><polygon class="cls-24" points="148.18 59.9 210.41 95.85 179.95 81.82 118.1 45.88 148.18 59.9"/><polygon class="cls-16" points="93.55 90.96 155.4 126.91 155.4 129.63 93.55 93.69 93.55 90.96"/><polygon class="cls-25" points="179.95 81.82 155.4 126.91 155.4 129.63 179.95 84.55 179.95 81.82"/><polygon class="cls-25" points="179.95 81.82 210.32 95.81 210.32 98.53 179.95 84.55 179.95 81.82"/><polygon class="cls-26" points="101.23 113.31 124.4 126.77 124.4 145.72 123.89 146.03 123.89 127.08 100.74 113.64 101.23 113.31"/><polygon class="cls-16" points="100.72 113.62 123.89 127.08 123.89 146.03 100.72 132.57 100.72 113.62"/><polygon class="cls-27" points="101.42 114.98 123.18 127.63 123.18 144.94 101.42 132.3 101.42 114.98"/><polygon class="cls-28" points="124.39 126.81 123.89 127.08 100.74 113.64 101.23 113.31 124.39 126.81"/><polygon class="cls-29" points="106.32 135.69 106.09 135.69 105.45 135.32 105.45 116.37 106.32 116.87 106.32 135.69"/><polygon class="cls-29" points="112.42 139.21 112.15 139.21 111.55 138.86 111.55 119.91 112.42 120.42 112.42 139.21"/><polygon class="cls-29" points="118.51 142.72 118.2 142.72 117.64 142.4 115.3 125.36 116.16 125.87 118.51 142.72"/><polygon class="cls-29" points="123.79 132.5 100.72 119.71 100.72 119.46 101.37 119.1 123.89 131.59 123.89 132.42 123.79 132.5"/><polygon class="cls-29" points="123.79 137.12 100.72 124.33 100.72 124.08 101.37 123.72 123.89 136.21 123.89 137.04 123.79 137.12"/><polygon class="cls-29" points="123.79 141.74 100.72 128.95 100.72 128.7 101.37 128.34 123.89 140.83 123.89 141.66 123.79 141.74"/><polygon class="cls-26" points="133.96 128.93 146.94 136.61 146.94 167.71 146.43 168.02 146.43 136.92 133.47 129.26 133.96 128.93"/><polygon class="cls-30" points="133.45 129.24 146.43 136.92 146.43 168.02 133.45 160.33 133.45 129.24"/><polygon class="cls-26" points="194.79 117.87 171.63 132.49 171.63 151.44 172.13 151.73 172.13 132.78 195.28 118.17 194.79 117.87"/><polygon class="cls-16" points="195.3 118.15 172.13 132.78 172.13 151.73 195.3 137.1 195.3 118.15"/><polygon class="cls-27" points="194.6 119.56 172.84 133.29 172.84 150.6 194.6 136.87 194.6 119.56"/><polygon class="cls-28" points="171.64 132.53 172.13 132.78 195.28 118.17 194.79 117.87 171.64 132.53"/><polygon class="cls-29" points="189.71 140.5 189.94 140.49 190.57 140.09 190.57 121.14 189.71 121.69 189.71 140.5"/><polygon class="cls-29" points="183.61 144.33 183.88 144.31 184.47 143.94 184.47 124.99 183.61 125.54 183.61 144.33"/><polygon class="cls-29" points="177.51 148.15 177.82 148.14 178.38 147.79 178.38 128.84 177.51 129.38 177.51 148.15"/><polygon class="cls-29" points="172.24 138.19 195.3 124.24 195.3 123.99 194.66 123.67 172.13 137.29 172.13 138.12 172.24 138.19"/><polygon class="cls-29" points="172.24 142.81 195.3 128.86 195.3 128.61 194.66 128.29 172.13 141.91 172.13 142.74 172.24 142.81"/><polygon class="cls-29" points="172.24 147.43 195.3 133.48 195.3 133.23 194.66 132.91 172.13 146.53 172.13 147.36 172.24 147.43"/><polygon class="cls-31" points="96.36 92.64 121.41 47.8 122.9 48.66 97.85 93.51 96.36 92.64"/><polygon class="cls-31" points="100.25 94.91 125.3 50.06 126.79 50.92 101.74 95.77 100.25 94.91"/><polygon class="cls-31" points="104.14 97.17 129.19 52.32 130.68 53.18 105.63 98.03 104.14 97.17"/><polygon class="cls-31" points="108.03 99.43 133.08 54.58 134.57 55.45 109.52 100.29 108.03 99.43"/><polygon class="cls-31" points="111.92 101.69 136.97 56.84 138.46 57.7 113.41 102.56 111.92 101.69"/><polygon class="cls-31" points="115.81 103.95 140.86 59.1 142.35 59.96 117.3 104.81 115.81 103.95"/><polygon class="cls-31" points="119.7 106.21 144.75 61.36 146.24 62.23 121.19 107.08 119.7 106.21"/><polygon class="cls-31" points="123.59 108.47 148.64 63.62 150.13 64.49 125.08 109.34 123.59 108.47"/><polygon class="cls-31" points="127.48 110.73 152.53 65.88 154.02 66.75 128.97 111.6 127.48 110.73"/><polygon class="cls-31" points="131.37 112.99 156.42 68.14 157.91 69.01 132.86 113.86 131.37 112.99"/><polygon class="cls-31" points="135.26 115.26 160.31 70.41 161.8 71.27 136.75 116.12 135.26 115.26"/><polygon class="cls-31" points="139.15 117.52 164.2 72.67 165.69 73.53 140.64 118.38 139.15 117.52"/><polygon class="cls-31" points="143.04 119.78 168.09 74.93 169.58 75.79 144.53 120.64 143.04 119.78"/><polygon class="cls-31" points="146.93 122.04 171.98 77.19 173.47 78.05 148.42 122.9 146.93 122.04"/><polygon class="cls-31" points="150.82 124.3 175.87 79.45 177.36 80.31 152.31 125.16 150.82 124.3"/><path class="cls-32" d="M124.51,24a2.19,2.19,0,0,0,.83-.83c-1-.42-1.62-.45-2.65-.8,3.11-.29,4.93-.42,7.86-1.79a2.11,2.11,0,0,0,1.18-1.43l-.44-.37c1.81-.85,2.84-1.19,4.65-2a3.11,3.11,0,0,0,2-2,9.32,9.32,0,0,0-1.77.39c4.3-2,7.14-4.51,8.7-8.89a8.84,8.84,0,0,0-5.49.75l-3.24,1.52a11.07,11.07,0,0,1,.8-.89l-.21-.63-3,1.39c-1.74.82-2.61,1.63-4.3,2.6-.14-.52-.12-.82-.29-1.32-.38-1.13-2.06.24-3.28.81A10.13,10.13,0,0,0,121.41,14a9,9,0,0,0-.17-1c-.22-.66-1.09-.76-1.81-.43-3.79,1.78-3.51,5.62-5.3,9.34-.53,1.12,1.24,1.32,2.31,1.69C119.31,24.57,121.44,25.47,124.51,24Z"/><path class="cls-32" d="M118.09,32.39a2.09,2.09,0,0,0,1-.64c-.8-.66-1.39-.84-2.26-1.45,3,.46,4.68.77,7.76.09A2.13,2.13,0,0,0,126,29.24l-.32-.49c1.89-.42,2.94-.52,4.83-.94a3.05,3.05,0,0,0,2.33-1.49,8.32,8.32,0,0,0-1.74,0c4.5-1,7.76-2.84,10.3-6.89a7.84,7.84,0,0,0-5.29-.57l-3.39.75a11.63,11.63,0,0,1,1-.7l0-.69-3.11.69a48.59,48.59,0,0,0-4.64,1.59c0-.56.09-.86.06-1.41-.08-1.24-2-.26-3.26,0a9.73,9.73,0,0,0-5,2.36c0-.39.1-.65.08-1,0-.72-.82-1-1.57-.87-4,.88-4.67,4.83-7.25,8.16-.77,1,.82,1.63,1.73,2.26C113.12,31.68,114.87,33.11,118.09,32.39Z"/><path class="cls-33" d="M69.74,109.34s3.64-1,5.61-5.78c0,0,5-32.4,32.26-75h3S85.15,73.14,82.35,102.23c0,0,.28,5.12,2.4,6.28H82.61l-1.6.66-1.69,1.16L77.89,110l-1.4-.5-2,.33-.49-1Z"/><path class="cls-32" d="M114.67,37.23a1.89,1.89,0,0,0,1.08-.28c-.46-.94-.9-1.34-1.44-2.25,2.41,1.52,3.8,2.44,6.73,2.87a2,2,0,0,0,1.69-.63l-.1-.6c1.81.26,2.75.54,4.56.8a2.75,2.75,0,0,0,2.59-.65,7.07,7.07,0,0,0-1.51-.66,13.37,13.37,0,0,0,11.53-3.16,6.75,6.75,0,0,0-4.4-2.46l-3.24-.46a9.94,9.94,0,0,1,1.1-.35l.22-.7-3-.43a41.06,41.06,0,0,0-4.64-.08c.21-.55.4-.82.57-1.38.39-1.26-1.63-1-2.85-1.14a8.42,8.42,0,0,0-5.23.56c.15-.38.33-.61.45-1a1.14,1.14,0,0,0-1.05-1.43c-3.79-.55-5.86,3.13-9.34,5.52-1,.73.12,1.91.67,2.87C110.59,34.74,111.6,36.79,114.67,37.23Z"/><path class="cls-32" d="M118.48,27.12a1.91,1.91,0,0,0,.36-1.06c-1.14.16-1.76.46-2.93.7,2.81-1.78,4.47-2.79,6.56-5.33a1.8,1.8,0,0,0,.39-1.7l-.61-.07c1.29-1.57,2.09-2.35,3.38-3.92a2.76,2.76,0,0,0,.89-2.52A11,11,0,0,0,125,14.4c3.05-3.73,4.47-7.09,3.7-11.3a10.49,10.49,0,0,0-4.83,3.33l-2.3,2.81a8.5,8.5,0,0,1,.31-1.1l-.53-.38-2.11,2.57c-1.24,1.51-1.65,2.58-2.76,4.18-.4-.34-.53-.58-1-.89-1-.69-1.84,1.21-2.71,2.28a9.49,9.49,0,0,0-2.49,4.89,8.68,8.68,0,0,0-.67-.67c-.55-.4-1.43-.05-1.94.57-2.69,3.28-.46,6.15-.24,9.94.07,1.14,1.85.41,3.07.16C113.82,30.14,116.3,29.78,118.48,27.12Z"/><path class="cls-32" d="M110.76,24.45a1.07,1.07,0,0,0-.34-.71c-.67.69-.92,1.17-1.57,1.91.89-2.36,1.44-3.74,1.43-6.09a1.07,1.07,0,0,0-.68-1l-.45.3c0-1.45.1-2.26.09-3.7,0-.77-.12-1.4-.8-1.69a7.45,7.45,0,0,0-.33,1.37c0-3.44-.93-5.82-3.76-7.44a7.25,7.25,0,0,0-1.38,4.2c0,1,0,1.58,0,2.59a5.37,5.37,0,0,1-.4-.69l-.56.1c0,.93,0,1.44,0,2.37a29,29,0,0,0,.47,3.5c-.45,0-.68,0-1.12.08-1,.17-.55,1.57-.55,2.55a5.37,5.37,0,0,0,1,3.7c-.31,0-.5,0-.81,0a1.32,1.32,0,0,0-1,1.32c0,3,3.08,3.21,5.32,4.93.67.51,1.46-.8,2.12-1.57C109.33,28.41,110.78,26.91,110.76,24.45Z"/><path class="cls-32" d="M107.19,39.58a1,1,0,0,0,.69.2c.1-.78,0-1.21.06-2a9.93,9.93,0,0,0,2.56,4.31,1.09,1.09,0,0,0,1.14.19l.17-.43c.88.82,1.28,1.35,2.16,2.17a1.52,1.52,0,0,0,1.63.5,4.46,4.46,0,0,0-.57-1,7.35,7.35,0,0,0,7.37,2.06,4.71,4.71,0,0,0-1.46-3.21l-1.57-1.47a5.55,5.55,0,0,1,.73.17l.37-.38L119,39.37a23,23,0,0,0-2.46-1.73c.31-.29.52-.4.82-.7.68-.69-.52-1.22-1.11-1.78a4.59,4.59,0,0,0-3-1.51c.22-.2.4-.28.61-.49a.92.92,0,0,0,0-1.32c-1.84-1.72-4.31,0-7.06.28-.83.1-.64,1.31-.7,2.14C105.92,36.47,105.7,38.18,107.19,39.58Z"/><path class="cls-32" d="M246.11,69.88a1.86,1.86,0,0,0,.34-1.06c-1.14.18-1.76.49-2.92.75,2.78-1.82,4.43-2.86,6.48-5.43a1.78,1.78,0,0,0,.36-1.7l-.62-.06c1.26-1.59,2.06-2.38,3.32-4a2.72,2.72,0,0,0,.84-2.53,11.05,11.05,0,0,0-1.46,1.21c3-3.77,4.35-7.15,3.51-11.32a10.51,10.51,0,0,0-4.79,3.4L248.91,52a9.1,9.1,0,0,1,.29-1.1l-.54-.37-2.07,2.6c-1.21,1.53-1.61,2.6-2.69,4.22-.4-.33-.55-.57-1-.87-1-.67-1.82,1.24-2.67,2.32a9.44,9.44,0,0,0-2.42,4.92,8.29,8.29,0,0,0-.68-.66c-.56-.39-1.44,0-1.93.6-2.64,3.32-.34,6.14-.06,9.91.09,1.14,1.87.37,3.08.11C241.49,73,244,72.57,246.11,69.88Z"/><path class="cls-32" d="M241.19,75.69a2.1,2.1,0,0,0,1-.63c-.8-.66-1.39-.84-2.26-1.45,3,.46,4.68.77,7.75.09a2.14,2.14,0,0,0,1.45-1.16l-.32-.49c1.9-.42,2.94-.51,4.83-.93A3.06,3.06,0,0,0,256,69.63a8.34,8.34,0,0,0-1.74,0c4.5-1,7.76-2.84,10.3-6.88a7.81,7.81,0,0,0-5.28-.57l-3.39.75a10.44,10.44,0,0,1,1-.7l0-.69-3.11.69A49,49,0,0,0,249,63.79c0-.56.09-.86.06-1.41-.07-1.24-2-.26-3.25,0a9.68,9.68,0,0,0-5,2.36c0-.39.1-.65.08-1,0-.72-.83-1-1.57-.87-4,.88-4.67,4.84-7.25,8.16-.77,1,.82,1.63,1.73,2.26C236.23,75,238,76.41,241.19,75.69Z"/><path class="cls-33" d="M188.8,157.93s3.64-1,5.61-5.78c0,0,5-32.39,32.26-75h3s-25.44,44.62-28.23,73.72c0,0,.28,5.12,2.4,6.28h-2.15l-1.6.66-1.69,1.16-1.43-.33-1.4-.5-2,.33-.49-1Z"/><path class="cls-32" d="M235.39,83.84a1.87,1.87,0,0,0,1.08-.28c-.46-.94-.9-1.33-1.44-2.25,2.41,1.52,3.8,2.44,6.73,2.87a2,2,0,0,0,1.69-.63l-.1-.6c1.81.26,2.76.54,4.56.8a2.75,2.75,0,0,0,2.59-.65,7.16,7.16,0,0,0-1.51-.65,13.37,13.37,0,0,0,11.53-3.16,6.73,6.73,0,0,0-4.4-2.46l-3.24-.47A10,10,0,0,1,254,76l.22-.7-3-.43a41,41,0,0,0-4.64-.09c.21-.55.4-.82.57-1.38.39-1.26-1.63-1-2.85-1.14a8.38,8.38,0,0,0-5.23.56c.15-.38.33-.61.45-1a1.14,1.14,0,0,0-1-1.43c-3.78-.54-5.86,3.14-9.34,5.52-1,.72.12,1.92.68,2.87C231.32,81.35,232.32,83.39,235.39,83.84Z"/><path class="cls-32" d="M240.09,71.38a1.45,1.45,0,0,0-.2-1c-1,.69-1.44,1.24-2.43,2,1.75-2.79,2.82-4.41,3.5-7.44a1.44,1.44,0,0,0-.51-1.52l-.62.25c.42-1.87.78-2.88,1.2-4.75.22-1,.27-1.84-.45-2.41a10,10,0,0,0-.8,1.67c1-4.44.6-7.77-2.29-10.67a10,10,0,0,0-2.88,5l-.74,3.35a8,8,0,0,1-.27-1l-.7,0-.68,3.07a40.26,40.26,0,0,0-.47,4.64c-.55-.06-.81-.18-1.37-.21-1.26-.07-1.12,1.87-1.4,3.13a7.55,7.55,0,0,0,.14,5.07,8.77,8.77,0,0,0-1-.2,1.72,1.72,0,0,0-1.55,1.42c-.87,3.91,2.73,5,4.89,7.89.66.85,2-.61,3-1.41C237.21,76.08,239.39,74.55,240.09,71.38Z"/><path class="cls-32" d="M229.83,73a1.07,1.07,0,0,0-.34-.71c-.67.69-.92,1.17-1.56,1.91.89-2.36,1.44-3.74,1.43-6.09a1.07,1.07,0,0,0-.68-1l-.45.29c0-1.45.1-2.26.09-3.7,0-.76-.12-1.4-.8-1.69a7.1,7.1,0,0,0-.33,1.37c0-3.44-.94-5.82-3.76-7.44A7.28,7.28,0,0,0,222,60.15c0,1,0,1.58,0,2.59a5.08,5.08,0,0,1-.4-.7l-.56.1c0,.93,0,1.45,0,2.37a29.65,29.65,0,0,0,.47,3.5c-.45,0-.67,0-1.12.08-1,.17-.55,1.57-.55,2.55a5.35,5.35,0,0,0,1,3.7c-.31,0-.5,0-.81,0a1.32,1.32,0,0,0-1,1.31c0,3,3.09,3.21,5.32,4.93.68.51,1.46-.8,2.13-1.57C228.39,77,229.85,75.5,229.83,73Z"/><path class="cls-32" d="M230.4,83.71a1.25,1.25,0,0,0,.76-.12c-.24-.7-.52-1-.81-1.7a10.15,10.15,0,0,0,4.38,2.52,1.33,1.33,0,0,0,1.2-.32l0-.43c1.21.32,1.84.58,3.05.9a1.84,1.84,0,0,0,1.81-.27,4.63,4.63,0,0,0-1-.57,9,9,0,0,0,8.1-1.39,4.58,4.58,0,0,0-2.82-2.06l-2.18-.57a6.68,6.68,0,0,1,.78-.17l.2-.48-2-.52a26.71,26.71,0,0,0-3.16-.4c.18-.38.33-.55.49-.93.36-.86-1-.8-1.86-1a5.57,5.57,0,0,0-3.61,0c.13-.26.27-.41.38-.67a.8.8,0,0,0-.61-1.09c-2.54-.66-4.23,1.79-6.78,3.22-.77.43-.06,1.36.25,2.08C227.81,81.65,228.34,83.18,230.4,83.71Z"/><path class="cls-32" d="M244.52,33.4a15,15,0,0,1,8.76-1.56l-1.1.2c1.12.26,1.76.23,2.84.55a1.68,1.68,0,0,1-.62.88c-2.69,1.68-5,1-8.15.27C245.72,33.63,245.06,33.55,244.52,33.4Z"/><path class="cls-32" d="M246.79,45.27a15,15,0,0,1-8.85-.92l1.11.11c-1-.56-1.63-.71-2.58-1.32a1.68,1.68,0,0,1,.83-.68c3.05-.88,5.12.44,7.91,2C245.69,44.72,246.31,45,246.79,45.27Z"/><path class="cls-32" d="M265.23,29.31a15,15,0,0,1-8.85-.92l1.11.11c-1-.56-1.63-.71-2.58-1.32a1.68,1.68,0,0,1,.83-.68c3.05-.88,5.12.44,7.91,2C264.13,28.76,264.75,29,265.23,29.31Z"/><path class="cls-32" d="M271.09,49a15,15,0,0,1-3.91-8l.5,1c-.06-1.15-.27-1.76-.25-2.89a1.69,1.69,0,0,1,1,.35c2.36,2.12,2.34,4.57,2.5,7.76C271,47.79,271.09,48.45,271.09,49Z"/><path class="cls-32" d="M146.43,31.44A15,15,0,0,1,138.72,27l1,.55c-.69-.92-1.21-1.31-1.82-2.25a1.68,1.68,0,0,1,1-.28c3.14.44,4.5,2.48,6.42,5C145.65,30.49,146.11,31,146.43,31.44Z"/><path class="cls-32" d="M148.8,20.66a.89.89,0,0,0,.5-.13c-.21-.44-.42-.62-.67-1a7,7,0,0,0,3.13,1.33.92.92,0,0,0,.79-.29l0-.28c.84.12,1.28.25,2.12.37a1.28,1.28,0,0,0,1.2-.3,3.16,3.16,0,0,0-.7-.3,6.22,6.22,0,0,0,5.36-1.47,3.12,3.12,0,0,0-2-1.14l-1.5-.22c.18-.06.32-.12.52-.16l.1-.32-1.38-.2a19,19,0,0,0-2.16,0c.1-.26.18-.38.27-.64.18-.58-.76-.45-1.33-.53a3.9,3.9,0,0,0-2.43.26c.07-.18.15-.28.21-.46a.53.53,0,0,0-.49-.66c-1.76-.25-2.72,1.46-4.34,2.56-.49.34.06.89.31,1.33C146.91,19.5,147.37,20.45,148.8,20.66Z"/><path class="cls-32" d="M153.64,33.5a.52.52,0,0,0,.35.11c.05-.4,0-.62,0-1a5.07,5.07,0,0,0,1.31,2.21.57.57,0,0,0,.59.1l.09-.22c.45.42.65.69,1.11,1.11a.77.77,0,0,0,.83.26,2.36,2.36,0,0,0-.29-.5,3.77,3.77,0,0,0,3.77,1.06,2.42,2.42,0,0,0-.75-1.64l-.8-.76a3.37,3.37,0,0,1,.37.09l.19-.2-.74-.69a11.63,11.63,0,0,0-1.26-.89c.16-.15.26-.2.42-.36.34-.35-.27-.62-.57-.91a2.37,2.37,0,0,0-1.55-.78c.11-.1.21-.14.31-.25a.48.48,0,0,0,0-.68c-.94-.88-2.21,0-3.62.14-.43.05-.33.67-.36,1.09C153,31.91,152.88,32.78,153.64,33.5Z"/><path class="cls-34" d="M38.15,113.83c3.58,0,4.13,4.68,4.13,8.26h5c1-.14,1.24-1.1,2.2-1.1,5.09,0,0,8.39,2.75,12.66,1.38,2.2,3.3,3,4.4,5.5,3.44,8,13.9,2.06,21.46,6.05,1.93,1,.28,3.85,1.65,5.5,4,4.68,9.22,4.4,15.41,4.4,2.2,0,2.75-2.75,5-2.75,7.43,0,8.67,8.81,16,10.46,8.12,1.79,12.8,4.26,19.26,9.36,9.49,7.57,17.89,9.91,23.11,20.91,2.48,5.37,8.26,6.74,8.26,12.66,0,7.43-8.12,8.81-14.31,12.66a32,32,0,0,0-4.57,3.58L136,227.06,0,148l.48-1c3.68-1.83,6.65-4.57,11-7.3,6.47-4,10.32-7.15,14.86-13.21C30.31,121.12,31.41,113.83,38.15,113.83Z"/><path class="cls-16" d="M32.38,119.33a6.76,6.76,0,0,0-3.26,2.52c2.21-4.17,4.14-8,9-8,3.58,0,4.13,4.68,4.13,8.26h5c1-.14,1.24-1.1,2.2-1.1,5.09,0,0,8.39,2.75,12.66,1.38,2.2,3.3,3,4.4,5.5,3.44,8,13.9,2.06,21.46,6.05,1.93,1,.28,3.85,1.65,5.5,4,4.68,9.22,4.4,15.41,4.4,2.2,0,2.75-2.75,5-2.75,7.43,0,9.37,7.65,16.67,9.3,8.12,1.79,15.24,4.62,21.7,9.71,9.49,7.57,14.74,10.71,20,21.71,2.48,5.37,8.26,6.74,8.26,12.66a8.7,8.7,0,0,1-.25,2.13,17.15,17.15,0,0,1-2.5-5.43c-1.38-5-7.7-5.37-7.7-10.46-5.23-.69-12.66.28-12.66-5,0-1.38.69-2.06,1.1-3.3-13.9-4.27-17.2-15.55-30.82-20.36C97.45,157.58,87,156.48,71.45,148.5c-5-2.48-9.22.69-14.31-1.65-5.92-2.75-7.57-7.43-13.76-9.91l1.1-2.2v-6.05C38.57,128.69,35.4,124.42,32.38,119.33Z"/><path class="cls-13" d="M165.56,195h1.38l.28,1.1c-3.23,1.93-5.57,3.65-6.33,7.43a14.91,14.91,0,0,0,2.48,0l.28,1.1c-.62,1.24-1.38,1.93-1.38,3.3,0,1,1.24,1.1,2.2,1.1,1.38,0,2.06-.62,3.3-1.1h1.38v1.44c0,5.64-6.26,6.47-10.46,10.11-4.61,4-6.33,9.63-12.45,9.63h-6c-2-1.17-6.05.14-5.5-2.2.48-1.93,2.89-1.1,4.4-2.2,4.27-3.16,7.77-4.54,10.18-9.36C153.86,206.22,156.06,199.75,165.56,195Z"/><path class="cls-16" d="M162.25,187.85a3,3,0,0,1,2.75,1.38,17,17,0,0,1-7.15,1.1C155.93,190.33,160.33,187.85,162.25,187.85Z"/><path class="cls-16" d="M152.07,183.45a8,8,0,0,1,5-4.13l.83,1.38C156.13,182.41,154.21,182.21,152.07,183.45Z"/><path class="cls-16" d="M55.21,125.94c1.31-1.31,2.27-2.2,4.13-2.2A1.82,1.82,0,0,1,61,125.11a6.59,6.59,0,0,1-2.48.83C57.21,125.94,56.45,125.52,55.21,125.94Z"/><path class="cls-16" d="M55.21,137.49c.69-2.61,2.55-4.68,5.3-4.68,1,0,1.44.21,2.41.28v1.38C60.1,135.09,58,136.39,55.21,137.49Z"/><path class="cls-30" d="M118.5,77.78c0,1.86,2.27,2.48,4.13,2.48.55,0,.89-.41,1.38-.55V75.86C121.74,75.86,118.5,75.51,118.5,77.78Z"/><path class="cls-30" d="M184.54,73.65a5.5,5.5,0,0,0-3,1.93,10.71,10.71,0,0,0,3,.55,15.72,15.72,0,0,0,3.1-.28V73.52c-1.31.07-2,0-3.3,0-.62,0-.83.41-1.38.69Z"/><path class="cls-30" d="M174.36,58.52c-.62,0-.83.76-.83,1.38,0,1.86,2.27,1.93,4.13,2.2l.28-2.75C176.56,59.07,175.81,58.52,174.36,58.52Z"/><path class="cls-30" d="M108.32,65.67l-.55,1.1h2.48a14.81,14.81,0,0,1,.28,1.72c0,1.79-.76,2.68-1.38,4.33a8.94,8.94,0,0,0,2.34.55c3.71,0,7.84-1.79,7.84-5.5,0-1.44-.62-2.13-.83-3.58C117.54,60.31,112,63.82,108.32,65.67Z"/><path class="cls-30" d="M159.5,54.94l-2.75,3.3,2.75,1.65C160.19,58.24,159.23,56.73,159.5,54.94Z"/><path class="cls-32" d="M176.9,24.91a15,15,0,0,1-8.85-.92l1.11.11c-1-.56-1.63-.71-2.58-1.32a1.68,1.68,0,0,1,.83-.68c3.05-.88,5.12.44,7.91,2C175.8,24.36,176.42,24.61,176.9,24.91Z"/><polygon class="cls-16" points="133.45 129.24 144.51 139.14 144.51 170.24 133.45 160.33 133.45 129.24"/><path class="cls-30" d="M165.57,81.28c.46,1.57,1.84,2.12,1.84,3.79,0,.74-.55,1.2-.74,1.84,1.2-.18,1.94-.74,3.14-.74.65,0,.83.65,1.48.74l.74-1.48V81.28A11.82,11.82,0,0,0,165.57,81.28Z"/></symbol></defs><title>01_modele_1col</title><g id="MODULE"><g id="CONTENT"><use width="272" height="272" transform="scale(2.1)" xlink:href="#illus-2"/></g></g></svg>